<?xml version="1.0" encoding="UTF-8"?>
<svg id="Camada_2" data-name="Camada 2" xmlns="http://www.w3.org/2000/svg" xmlns:xlink="http://www.w3.org/1999/xlink" viewBox="0 0 542.16 101.91">
  <defs>
    <style>
      .cls-1 {
        filter: url(#drop-shadow-1);
      }

      .cls-2 {
        fill: #fff;
        stroke-width: 0px;
      }
    </style>
    <filter id="drop-shadow-1" filterUnits="userSpaceOnUse">
      <feOffset dx="5" dy="5"/>
      <feGaussianBlur result="blur" stdDeviation="0"/>
      <feFlood flood-color="#00828b" flood-opacity=".75"/>
      <feComposite in2="blur" operator="in"/>
      <feComposite in="SourceGraphic"/>
    </filter>
  </defs>
  <g id="Layer_1" data-name="Layer 1">
    <g class="cls-1">
      <path class="cls-2" d="m33.51,32.02c-.82,4.32-4.8,12.29-16.18,12.29C7.49,44.31,0,38.26,0,26.5,0,15.46,6.72,8.16,17.57,8.16s14.64,6.96,15.65,12.72l-11.18,1.06c-.67-3.12-1.87-5.81-4.66-5.81s-4.46,2.78-4.46,10.03c0,8.11,2.02,10.18,4.7,10.18,2.54,0,4.22-2.02,4.9-6.43l10.99,2.11Z"/>
      <path class="cls-2" d="m36.62,43.4l.05-4.51V13.58l-.05-4.51h11.76l-.05,4.51v25.3l.05,4.51h-11.76Z"/>
      <path class="cls-2" d="m77.14,30.19h-11.47v4.85h14.02v8.35h-25.73l.05-4.51V13.58l-.05-4.51h25.35v8.35h-13.63v4.61h11.47v8.16Zm-6.53-23.38l-4.08-3.22-4.13,3.22h-6.53l5.52-6.82h10.08l5.57,6.82h-6.43Z"/>
      <path class="cls-2" d="m104.26,9.07h10.23l-.05,4.51v25.3l.05,4.51h-8.06l-12.62-16.75h-.1l.1,3.07v9.17l.05,4.51h-10.27l.05-4.51V13.58l-.05-4.51h9.98l10.75,14.21h.1l-.1-3.02v-6.67l-.05-4.51Z"/>
      <path class="cls-2" d="m151.78,32.02c-.82,4.32-4.8,12.29-16.18,12.29-9.84,0-17.33-6.05-17.33-17.81,0-11.04,6.72-18.34,17.57-18.34s14.64,6.96,15.65,12.72l-11.18,1.06c-.67-3.12-1.87-5.81-4.66-5.81s-4.46,2.78-4.46,10.03c0,8.11,2.02,10.18,4.7,10.18,2.54,0,4.22-2.02,4.9-6.43l10.99,2.11Z"/>
      <path class="cls-2" d="m154.89,43.4l.05-4.51V13.58l-.05-4.51h11.76l-.05,4.51v25.3l.05,4.51h-11.76Z"/>
      <path class="cls-2" d="m179.09,43.4h-10.56l12.15-34.32h12.34l11.67,34.32h-12.62l-1.44-5.42h-9.84l-1.68,5.42Zm3.98-12.91h5.57l-2.5-9.7h-.1l-2.98,9.7Z"/>
      <path class="cls-2" d="m230.59,19.25c-2.64-1.97-5.38-3.41-9.17-3.41-2.5,0-4.27.77-4.27,2.35,0,2.45,4.03,2.3,8.21,3.12,6.53,1.25,11.43,4.46,11.43,10.85,0,6.77-5.47,12.15-15.79,12.15-6.29,0-12.58-2.06-16.51-5.62l5.28-6.24c2.98,2.35,6.43,4.22,10.9,4.22,2.5,0,4.46-.72,4.46-2.45,0-2.59-4.51-2.54-8.78-3.41-6.19-1.25-10.85-4.13-10.85-10.51,0-6.72,5.23-12.15,15.07-12.15,5.47,0,11.62,1.87,15.27,4.8l-5.23,6.29Z"/>
      <path class="cls-2" d="m269.23,43.4l.05-4.51v-8.54h-7.97v8.54l.05,4.51h-11.76l.05-4.51V13.58l-.05-4.51h11.76l-.05,4.51v7.97h7.97v-7.97l-.05-4.51h11.81l-.05,4.51v25.3l.05,4.51h-11.81Z"/>
      <path class="cls-2" d="m297.55,13.58v17.43c0,2.88,1.39,4.42,4.13,4.42,2.54,0,3.84-1.39,3.84-4.42V13.58l-.05-4.51h10.75l-.05,4.51v17.52c0,3.5-.91,7.1-3.65,9.7-2.59,2.45-6.53,3.5-11.28,3.5-5.23,0-9.5-1.3-12-3.6-2.98-2.78-3.36-6.67-3.36-10.99V13.58l-.05-4.51h11.76l-.05,4.51Z"/>
      <path class="cls-2" d="m321.07,38.88V13.58l-.05-4.51h14.93l5.28,15.51h.1l5.18-15.51h15.02l-.05,4.51v25.3l.05,4.51h-11.57l.05-4.51v-12.29l.1-3.26h-.1l-6.29,20.07h-7.01l-6.29-20.07h-.1l.1,3.26v12.29l.05,4.51h-9.46l.05-4.51Z"/>
      <path class="cls-2" d="m373.96,43.4h-10.56l12.15-34.32h12.34l11.67,34.32h-12.62l-1.44-5.42h-9.84l-1.68,5.42Zm3.98-12.91h5.57l-2.5-9.7h-.1l-2.98,9.7Z"/>
      <path class="cls-2" d="m422.35,9.07h10.23l-.05,4.51v25.3l.05,4.51h-8.06l-12.62-16.75h-.1l.1,3.07v9.17l.05,4.51h-10.27l.05-4.51V13.58l-.05-4.51h9.98l10.75,14.21h.1l-.1-3.02v-6.67l-.05-4.51Z"/>
      <path class="cls-2" d="m445.01,43.4h-10.56l12.15-34.32h12.34l11.67,34.32h-12.62l-1.44-5.42h-9.84l-1.68,5.42Zm3.98-12.91h5.57l-2.5-9.7h-.1l-2.98,9.7Z"/>
      <path class="cls-2" d="m496.51,19.25c-2.64-1.97-5.38-3.41-9.17-3.41-2.5,0-4.27.77-4.27,2.35,0,2.45,4.03,2.3,8.21,3.12,6.53,1.25,11.42,4.46,11.42,10.85,0,6.77-5.47,12.15-15.79,12.15-6.29,0-12.58-2.06-16.51-5.62l5.28-6.24c2.98,2.35,6.43,4.22,10.9,4.22,2.5,0,4.46-.72,4.46-2.45,0-2.59-4.51-2.54-8.78-3.41-6.19-1.25-10.85-4.13-10.85-10.51,0-6.72,5.23-12.15,15.07-12.15,5.47,0,11.62,1.87,15.26,4.8l-5.23,6.29Z"/>
      <path class="cls-2" d="m24.48,87.79h-11.47v4.85h14.02v8.35H1.3l.05-4.51v-25.3l-.05-4.51h25.35v8.35h-13.63v4.61h11.47v8.16Z"/>
      <path class="cls-2" d="m64.56,76.85c-2.64-1.97-5.38-3.41-9.17-3.41-2.5,0-4.27.77-4.27,2.35,0,2.45,4.03,2.3,8.21,3.12,6.53,1.25,11.43,4.46,11.43,10.85,0,6.77-5.47,12.15-15.79,12.15-6.29,0-12.58-2.06-16.51-5.62l5.28-6.24c2.98,2.35,6.43,4.22,10.9,4.22,2.5,0,4.46-.72,4.46-2.45,0-2.59-4.51-2.54-8.78-3.41-6.19-1.25-10.85-4.13-10.85-10.51,0-6.72,5.23-12.15,15.07-12.15,5.47,0,11.62,1.87,15.27,4.8l-5.23,6.29Z"/>
      <path class="cls-2" d="m72.82,83.81c0-9.89,6.34-18.05,17.67-18.05s17.62,8.16,17.62,18.05-6.38,18.1-17.62,18.1-17.67-8.16-17.67-18.1Zm22.13,0c0-7.54-1.44-10.08-4.46-10.08s-4.46,2.54-4.46,10.08,1.34,10.13,4.46,10.13,4.46-2.54,4.46-10.13Z"/>
      <path class="cls-2" d="m144.05,89.62c-.82,4.32-4.8,12.29-16.18,12.29-9.84,0-17.33-6.05-17.33-17.81,0-11.04,6.72-18.34,17.57-18.34s14.64,6.96,15.65,12.72l-11.18,1.06c-.67-3.12-1.87-5.81-4.66-5.81s-4.46,2.78-4.46,10.03c0,8.11,2.02,10.18,4.7,10.18,2.54,0,4.22-2.02,4.9-6.43l10.99,2.11Z"/>
      <path class="cls-2" d="m147.17,101l.05-4.51v-25.3l-.05-4.51h11.76l-.05,4.51v25.3l.05,4.51h-11.76Z"/>
      <path class="cls-2" d="m171.36,101h-10.56l12.15-34.32h12.34l11.67,34.32h-12.62l-1.44-5.42h-9.84l-1.68,5.42Zm3.98-12.91h5.57l-2.5-9.7h-.1l-2.98,9.7Z"/>
      <path class="cls-2" d="m199.05,101l.05-4.51v-25.3l-.05-4.51h11.76l-.05,4.51v25.3l.05,4.51h-11.76Z"/>
      <path class="cls-2" d="m240.14,76.85c-2.64-1.97-5.38-3.41-9.17-3.41-2.5,0-4.27.77-4.27,2.35,0,2.45,4.03,2.3,8.21,3.12,6.53,1.25,11.43,4.46,11.43,10.85,0,6.77-5.47,12.15-15.79,12.15-6.29,0-12.58-2.06-16.51-5.62l5.28-6.24c2.98,2.35,6.43,4.22,10.9,4.22,2.5,0,4.46-.72,4.46-2.45,0-2.59-4.51-2.54-8.78-3.41-6.19-1.25-10.85-4.13-10.85-10.51,0-6.72,5.23-12.15,15.07-12.15,5.47,0,11.62,1.87,15.27,4.8l-5.23,6.29Z"/>
      <path class="cls-2" d="m265.25,101h-10.56l12.15-34.32h12.34l11.67,34.32h-12.62l-1.44-5.42h-9.84l-1.68,5.42Zm3.98-12.91h5.57l-2.5-9.7h-.1l-2.98,9.7Z"/>
      <path class="cls-2" d="m304.66,89.04v7.44l.05,4.51h-11.76l.05-4.51v-25.3l-.05-4.51h17.19c6.86,0,13.83,2.26,13.83,11.09s-5.9,11.28-12.43,11.28h-6.86Zm0-7.92h3.89c2.35,0,4.03-.62,4.03-3.31s-1.73-3.22-4.03-3.22h-3.89v6.53Z"/>
      <path class="cls-2" d="m327.45,101l.05-4.51v-25.3l-.05-4.51h11.76l-.05,4.51v21.46h12.34v8.35h-24.05Z"/>
      <path class="cls-2" d="m354.72,101l.05-4.51v-25.3l-.05-4.51h11.76l-.05,4.51v25.3l.05,4.51h-11.76Z"/>
      <path class="cls-2" d="m403.78,89.62c-.82,4.32-4.8,12.29-16.18,12.29-9.84,0-17.33-6.05-17.33-17.81,0-11.04,6.72-18.34,17.57-18.34s14.64,6.96,15.65,12.72l-11.18,1.06c-.67-3.12-1.87-5.81-4.66-5.81s-4.46,2.78-4.46,10.03c0,8.11,2.02,10.18,4.7,10.18,2.54,0,4.22-2.02,4.9-6.43l10.99,2.11Z"/>
      <path class="cls-2" d="m413.57,101h-10.56l12.15-34.32h12.34l11.67,34.32h-12.62l-1.44-5.42h-9.84l-1.68,5.42Zm3.98-12.91h5.57l-2.5-9.7h-.1l-2.98,9.7Z"/>
      <path class="cls-2" d="m441.26,66.67h15.27c10.99,0,17.67,6.91,17.67,17.52,0,11.23-7.3,16.8-17.67,16.8h-15.27l.05-4.51v-25.3l-.05-4.51Zm11.71,26.45h2.06c3.94,0,6.62-2.4,6.62-9.22s-2.64-9.31-6.62-9.31h-2.06v18.53Z"/>
      <path class="cls-2" d="m484.46,101h-10.56l12.14-34.32h12.34l11.66,34.32h-12.62l-1.44-5.42h-9.84l-1.68,5.42Zm3.98-12.91h5.57l-2.5-9.7h-.1l-2.98,9.7Z"/>
      <path class="cls-2" d="m535.97,76.85c-2.64-1.97-5.38-3.41-9.17-3.41-2.5,0-4.27.77-4.27,2.35,0,2.45,4.03,2.3,8.21,3.12,6.53,1.25,11.42,4.46,11.42,10.85,0,6.77-5.47,12.15-15.79,12.15-6.29,0-12.58-2.06-16.51-5.62l5.28-6.24c2.98,2.35,6.43,4.22,10.9,4.22,2.5,0,4.46-.72,4.46-2.45,0-2.59-4.51-2.54-8.78-3.41-6.19-1.25-10.85-4.13-10.85-10.51,0-6.72,5.23-12.15,15.07-12.15,5.47,0,11.62,1.87,15.26,4.8l-5.23,6.29Z"/>
    </g>
  </g>
</svg>