<?xml version="1.0" encoding="UTF-8"?>
<svg id="Camada_2" data-name="Camada 2" xmlns="http://www.w3.org/2000/svg" xmlns:xlink="http://www.w3.org/1999/xlink" viewBox="0 0 399.51 210.73">
  <defs>
    <style>
      .cls-1 {
        filter: url(#drop-shadow-1);
      }

      .cls-2 {
        fill: #fff;
      }

      .cls-2, .cls-3 {
        stroke-width: 0px;
      }

      .cls-3 {
        fill: #ff8b00;
      }
    </style>
    <filter id="drop-shadow-1" filterUnits="userSpaceOnUse">
      <feOffset dx="5" dy="5"/>
      <feGaussianBlur result="blur" stdDeviation="0"/>
      <feFlood flood-color="#00828b" flood-opacity=".75"/>
      <feComposite in2="blur" operator="in"/>
      <feComposite in="SourceGraphic"/>
    </filter>
  </defs>
  <g id="Layer_1" data-name="Layer 1">
    <g>
      <g>
        <g>
          <path class="cls-3" d="m70.47,180.15c-5.14,0-10.03-2.52-14.73-7.55L8.16,121.64C3.89,117.06-.26,112.06.01,105.84c.25-5.69,4.21-10.16,8.25-14.25l52.75-53.53c2.36-2.39,5.92-6.01,10.56-6.43,6.34-.58,11,4.42,14.75,8.43.33.35.64.69.95,1.01,4.51,4.75,8.94,9.7,13.22,14.49,4.04,4.51,8.21,9.18,12.43,13.65,3.33,3.53,6.77,7.07,10.1,10.49,2.62,2.69,5.24,5.39,7.84,8.1.9.94,1.89,1.89,2.95,2.89,2.31,2.2,4.69,4.47,6.53,7.08,2.38,3.37,3.35,6.68,2.98,10.1-.54,5-3.86,8.98-6.53,12.19-15.8,18.96-32.13,38.56-51.97,54.16-5.03,3.95-9.8,5.93-14.36,5.93Zm2.07-144.79c-.21,0-.42,0-.63.03-3.01.27-5.6,2.67-8.21,5.32L10.95,94.24c-3.67,3.72-6.97,7.42-7.16,11.77-.21,4.76,3.41,9.06,7.14,13.05l47.57,50.97c7.59,8.12,14.76,8.49,24,1.23,19.53-15.36,35.74-34.8,51.41-53.61,2.34-2.81,5.26-6.31,5.68-10.18.27-2.5-.47-4.89-2.32-7.52t0,0c-1.63-2.31-3.87-4.45-6.05-6.52-1.09-1.04-2.12-2.02-3.08-3.02-2.59-2.71-5.2-5.39-7.81-8.08-3.34-3.43-6.79-6.98-10.14-10.53-4.25-4.51-8.44-9.19-12.5-13.72-4.26-4.77-8.67-9.7-13.14-14.4-.32-.33-.64-.68-.97-1.04-3.2-3.42-6.8-7.28-11.03-7.28Z"/>
          <path class="cls-3" d="m73.18,154.16c-.33,0-.65-.02-.98-.05-3.43-.37-6.2-2.68-8.22-4.36-12.26-10.22-24.94-20.78-35.05-33.64-5.69-7.23-5.32-13.67,1.12-19.67l32.89-30.7c2.26-2.11,6.03-5.64,10.68-5.44,4.23.19,7.48,3.39,9.64,5.51l34.54,34.05c1.61,1.59,4.05,4,4.35,7.23.4,4.42-3.1,7.68-5.65,10.07l-.65.61c-3.07,2.92-6.27,5.78-9.37,8.55-2.91,2.6-5.91,5.29-8.79,8-2.28,2.15-4.56,4.37-6.77,6.52-1.74,1.69-3.47,3.38-5.23,5.05-.59.57-1.2,1.21-1.85,1.88-1.44,1.51-2.93,3.07-4.67,4.3h0c-1.99,1.41-3.96,2.1-5.99,2.1Zm.04-90.11c-2.73,0-5.31,2.19-7.71,4.43l-32.89,30.7c-4.99,4.66-5.2,8.89-.72,14.58,9.87,12.55,22.39,22.98,34.5,33.08,1.75,1.45,3.92,3.26,6.21,3.51,1.45.15,2.84-.28,4.4-1.38h0c1.44-1.01,2.8-2.44,4.11-3.82.65-.68,1.31-1.38,1.97-2.01,1.74-1.67,3.47-3.35,5.2-5.03,2.22-2.16,4.52-4.39,6.81-6.56,2.91-2.75,5.94-5.45,8.86-8.07,3.07-2.75,6.25-5.59,9.29-8.47l.67-.63c2.2-2.06,4.7-4.4,4.47-6.97-.16-1.71-1.62-3.29-3.24-4.88l-34.54-34.05c-2.3-2.27-4.58-4.32-7.16-4.43-.08,0-.15,0-.23,0Z"/>
          <path class="cls-3" d="m89.99,105.34c.49.69.8,1.46.7,2.33-.12,1.14-.89,2.08-1.62,2.96-4.23,5.07-8.5,10.19-13.69,14.27-2.57,2.02-4.79,2.03-7.03-.38-4.2-4.5-8.4-9-12.6-13.5-1.01-1.08-2.09-2.34-2.02-3.82.06-1.37,1.08-2.47,2.04-3.45,4.66-4.72,9.31-9.45,13.97-14.17.7-.71,1.49-1.47,2.48-1.56,1.57-.14,2.78,1.32,3.75,2.35,2.31,2.44,4.48,5.01,6.79,7.45,1.57,1.66,3.18,3.28,4.75,4.93.76.8,1.79,1.62,2.46,2.58Z"/>
        </g>
        <g>
          <path class="cls-3" d="m324.62,177.59c-.47,0-.93-.03-1.4-.08-5-.54-8.98-3.86-12.19-6.53-18.96-15.8-38.56-32.13-54.16-51.97-8.41-10.7-7.88-20.21,1.62-29.09l50.96-47.57c4.58-4.28,9.6-8.43,15.79-8.15,5.69.25,10.16,4.21,14.25,8.25l53.53,52.75c2.39,2.36,6.01,5.92,6.43,10.56.57,6.34-4.42,11-8.43,14.75-.35.33-.69.64-1.02.95-4.75,4.51-9.7,8.94-14.49,13.22-4.51,4.04-9.18,8.21-13.65,12.42-3.52,3.32-7.06,6.76-10.48,10.09-2.7,2.62-5.39,5.25-8.12,7.85-.94.9-1.89,1.89-2.89,2.95-2.2,2.31-4.47,4.69-7.08,6.53-2.91,2.05-5.77,3.06-8.7,3.06Zm.07-139.63c-4.6,0-8.77,3.52-12.65,7.15l-50.97,47.57c-8.12,7.58-8.49,14.76-1.23,24,15.36,19.53,34.8,35.74,53.61,51.41,2.81,2.34,6.31,5.26,10.18,5.68,2.5.27,4.89-.46,7.52-2.32h0c2.31-1.63,4.45-3.88,6.52-6.05,1.04-1.09,2.02-2.12,3.02-3.08,2.71-2.59,5.4-5.21,8.09-7.82,3.43-3.34,6.97-6.79,10.52-10.13,4.51-4.25,9.19-8.44,13.72-12.49,4.77-4.26,9.7-8.67,14.41-13.15.33-.32.68-.64,1.04-.97,3.59-3.35,7.65-7.16,7.25-11.66-.27-3.01-2.67-5.6-5.32-8.21l-53.53-52.75c-3.72-3.66-7.42-6.97-11.77-7.16-.13,0-.27,0-.4,0Z"/>
          <path class="cls-3" d="m323.33,156.36c-4.07,0-7.12-3.26-9.38-5.68l-.61-.65c-2.92-3.07-5.78-6.27-8.54-9.36-2.6-2.91-5.29-5.92-8.01-8.8-2.15-2.27-4.37-4.56-6.52-6.77-1.69-1.74-3.38-3.47-5.06-5.23-.57-.59-1.21-1.2-1.88-1.85-1.51-1.44-3.07-2.93-4.3-4.67-1.63-2.32-2.3-4.6-2.04-6.97.37-3.43,2.68-6.2,4.36-8.22,10.22-12.26,20.78-24.94,33.64-35.05,7.23-5.69,13.67-5.32,19.67,1.12l30.7,32.89c2.11,2.26,5.64,6.05,5.44,10.68-.17,3.91-2.82,6.9-5.51,9.64l-34.05,34.54c-1.59,1.61-4,4.05-7.23,4.35-.23.02-.47.03-.69.03Zm1.33-93.48c-2.25,0-4.62,1.07-7.33,3.2-12.55,9.87-22.98,22.39-33.08,34.5-1.45,1.74-3.26,3.92-3.51,6.21-.16,1.44.28,2.84,1.38,4.4h0c1.01,1.44,2.44,2.8,3.82,4.11.68.65,1.38,1.31,2.01,1.97,1.67,1.74,3.35,3.47,5.03,5.2,2.16,2.22,4.39,4.51,6.56,6.81,2.75,2.91,5.46,5.94,8.08,8.87,2.75,3.07,5.59,6.25,8.47,9.28l.63.67c2.06,2.2,4.4,4.7,6.97,4.47,1.71-.16,3.29-1.62,4.88-3.24l34.05-34.54c2.27-2.3,4.32-4.58,4.43-7.16.13-2.81-2.12-5.46-4.43-7.94l-30.7-32.89c-2.45-2.62-4.77-3.92-7.25-3.92Z"/>
          <path class="cls-3" d="m325.76,124.18c-.69.49-1.46.8-2.33.7-1.14-.12-2.08-.89-2.96-1.62-5.07-4.23-10.19-8.5-14.27-13.69-2.02-2.57-2.03-4.79.38-7.03,4.5-4.2,9-8.4,13.5-12.6,1.08-1.01,2.34-2.09,3.82-2.02,1.37.06,2.47,1.08,3.45,2.04,4.72,4.66,9.45,9.31,14.17,13.97.71.7,1.47,1.49,1.56,2.48.14,1.57-1.32,2.78-2.35,3.75-2.44,2.31-5.01,4.48-7.45,6.79-1.66,1.57-3.28,3.18-4.93,4.75-.8.76-1.62,1.79-2.58,2.46Z"/>
        </g>
        <g>
          <path class="cls-3" d="m302.62,12.41c-.24,1.31-1.04,2.66-2.37,3.9-15.6,14.55-31.14,29.33-46.57,44.12-7.86,7.53-15.67,15.13-23.34,22.86-3.94,3.97-7.85,7.98-11.71,12.04-3.59,3.77-6.95,5.55-2.84,10.06,5.81,6.37,11.76,12.62,17.64,18.93,11.76,12.62,23.52,25.23,35.28,37.85,7.53,8.07,15.05,16.15,22.58,24.22,3,3.21,6.09,6.61,7.23,10.85,1.14,4.24-.43,9.56-4.53,11.14-5.21,2-10.37-2.73-13.99-6.97-20.92-24.48-43.16-47.82-66.6-69.89-2.84-2.68-5.7-5.33-8.58-7.97-2.72-2.5-4.79-5.9-8.75-3.51-6.53,3.93-12.46,12-17.84,17.39-11.76,11.79-23.23,23.86-34.72,35.91-7.11,7.45-14.22,14.91-21.42,22.28-4.14,4.23-8.61,8.65-14.38,9.97-5.77,1.32-13-2.04-13.48-7.94-.36-4.44,3-8.21,6.14-11.38,24.94-25.21,47.73-53.73,76.04-75.31,1.84-1.41,3.79-2.83,4.88-4.88,2.95-5.51-3.31-8.24-6.49-11.34-2.49-2.43-4.97-4.85-7.46-7.28-19.9-19.42-39.79-38.83-59.69-58.25-4.06-3.96-9.43-9.14-9.62-15.26-.15-4.85,3.23-12.18,8.71-12.5,5.15-.3,9.24,5.15,12.51,8.35,19.58,19.19,39.12,38.42,58.67,57.64,4.78,4.7,9.64,9.31,14.37,14.07,2.16,2.17,4.77,6.38,8.53,5.61,5.81-1.2,9.4-7.5,13.05-11.62,4.92-5.55,9.97-10.99,15.14-16.31,14.21-14.63,29.55-28.09,44.45-41.98,7.08-6.64,16.56-13.79,25.55-10.13,2.87,1.17,4,3.2,3.61,5.35Z"/>
          <path class="cls-3" d="m160.39,210.73c-.84,0-1.67-.05-2.47-.09-.9-.05-1.75-.1-2.53-.08-.45.01-.91.03-1.36.04-3.55.12-7.23.24-10.74-1.06-2.04-.75-2.74-2.04-2.97-2.98-.6-2.45,1.31-4.94,3.04-6.84,2.69-2.95,5.35-5.93,8.01-8.91,5.09-5.69,10.36-11.58,15.73-17.2,9.71-10.17,20.1-19.85,30.89-28.8.67-.55,2.06-1.71,3.84-1.43,1.36.21,2.24,1.17,2.77,1.73,5.36,5.78,10.93,11.6,16.32,17.24,11.45,11.97,23.28,24.36,34.06,37.2,1.92,2.29,2.27,4.85.9,6.53h0c-.53.66-1.59,1.46-3.56,1.55l-15.13.73c-2.37.11-5.05.24-7.64-.54-4.72-1.44-7.98-5.59-10.36-8.63l-18.53-23.64c-.31-.4-1.15-1.47-1.67-1.47-.44,0-1.23.79-1.56,1.13-9.99,10.03-18.61,19.63-26.37,29.32l-.07.09c-1.34,1.68-2.73,3.42-4.69,4.67-1.83,1.17-3.89,1.43-5.89,1.43Zm-4.62-3.94c.78,0,1.58.04,2.36.09,2.34.13,4.55.25,6.12-.75,1.43-.92,2.57-2.34,3.78-3.85l.07-.09c7.84-9.81,16.56-19.5,26.64-29.63.78-.78,2.23-2.24,4.24-2.24,2.36,0,3.9,1.97,4.64,2.91l18.53,23.64c2.68,3.42,5.17,6.34,8.49,7.34,1.96.6,4.2.49,6.36.38l15.13-.73c.48-.02.71-.12.79-.16.01-.22-.14-.89-.85-1.73-10.7-12.75-22.49-25.09-33.9-37.02-5.39-5.64-10.97-11.48-16.36-17.28-.12-.13-.42-.45-.59-.56-.12.04-.37.19-.85.59-10.68,8.85-20.97,18.44-30.57,28.5-5.33,5.58-10.57,11.44-15.64,17.11-2.67,2.99-5.34,5.97-8.04,8.93-2.3,2.53-2.17,3.38-2.16,3.41h0s.13.16.61.33c2.82,1.04,6.12.93,9.31.83.47-.02.93-.03,1.39-.04.16,0,.32,0,.48,0Z"/>
          <path class="cls-3" d="m195.63,67.39c-.18,0-.36-.01-.55-.04-1.36-.21-2.24-1.17-2.77-1.73-5.36-5.78-10.93-11.6-16.32-17.24-11.45-11.97-23.28-24.36-34.06-37.2-1.92-2.29-2.27-4.85-.9-6.53h0c.53-.66,1.59-1.46,3.56-1.55l15.13-.73c2.37-.11,5.05-.24,7.64.54,4.72,1.44,7.98,5.59,10.36,8.63l18.53,23.64c.31.4,1.15,1.47,1.67,1.47.44,0,1.23-.79,1.56-1.13,9.99-10.03,18.61-19.63,26.37-29.32l.08-.1c1.34-1.68,2.73-3.41,4.68-4.66,2.59-1.66,5.66-1.49,8.36-1.34.9.05,1.75.1,2.53.08.45-.01.9-.03,1.36-.04,3.55-.12,7.23-.24,10.75,1.06,2.04.75,2.74,2.04,2.97,2.98.6,2.45-1.31,4.94-3.04,6.84-2.69,2.95-5.35,5.93-8.01,8.9-5.09,5.69-10.36,11.58-15.73,17.21-9.71,10.17-20.1,19.85-30.89,28.8-.6.5-1.78,1.47-3.29,1.47ZM143.97,7.02c-.01.22.14.89.85,1.73,10.7,12.75,22.49,25.09,33.9,37.02,5.39,5.64,10.97,11.48,16.36,17.27.12.13.42.45.59.56.12-.04.37-.19.85-.59,10.68-8.85,20.97-18.44,30.57-28.5,5.33-5.58,10.57-11.45,15.65-17.12,2.67-2.98,5.34-5.97,8.03-8.93,2.3-2.52,2.17-3.37,2.16-3.41h0s-.13-.16-.61-.33c-2.82-1.04-6.12-.93-9.31-.83-.47.02-.93.03-1.39.04-.94.02-1.9-.03-2.84-.08-2.34-.13-4.55-.25-6.12.75-1.43.92-2.57,2.34-3.77,3.84l-.08.1c-7.85,9.8-16.56,19.5-26.64,29.63-.78.78-2.23,2.24-4.24,2.24-2.36,0-3.9-1.97-4.64-2.91l-18.53-23.64c-2.68-3.42-5.17-6.34-8.49-7.34-1.96-.6-4.2-.49-6.36-.38l-15.13.73c-.48.02-.71.12-.79.16Zm-1.49-1.18h0,0Z"/>
        </g>
      </g>
      <g class="cls-1">
        <path class="cls-2" d="m24.48,141.28l.09-8.46v-47.43l-.09-8.46h22.05l-.09,8.46v47.43l.09,8.46h-22.05Z"/>
        <path class="cls-2" d="m95.76,76.93h19.17l-.09,8.46v47.43l.09,8.46h-15.12l-23.67-31.41h-.18l.18,5.76v17.19l.09,8.46h-19.26l.09-8.46v-47.43l-.09-8.46h18.72l20.16,26.64h.18l-.18-5.67v-12.51l-.09-8.46Z"/>
        <path class="cls-2" d="m125.37,141.28l.09-8.46v-47.43l-.09-8.46h22.05l-.09,8.46v47.43l.09,8.46h-22.05Z"/>
        <path class="cls-2" d="m217.34,119.95c-1.53,8.1-9,23.04-30.33,23.04-18.45,0-32.49-11.34-32.49-33.39,0-20.7,12.6-34.38,32.94-34.38s27.45,13.05,29.34,23.85l-20.97,1.98c-1.26-5.85-3.51-10.89-8.73-10.89s-8.37,5.22-8.37,18.81c0,15.21,3.78,19.08,8.82,19.08,4.77,0,7.92-3.78,9.18-12.06l20.61,3.96Z"/>
        <path class="cls-2" d="m223.2,141.28l.09-8.46v-47.43l-.09-8.46h22.05l-.09,8.46v47.43l.09,8.46h-22.05Z"/>
        <path class="cls-2" d="m268.56,141.28h-19.8l22.77-64.35h23.13l21.87,64.35h-23.67l-2.7-10.17h-18.45l-3.15,10.17Zm7.47-24.21h10.44l-4.68-18.18h-.18l-5.58,18.18Z"/>
        <path class="cls-2" d="m355.85,141.28l-8.1-23.22h-5.31v14.76l.09,8.46h-22.05l.09-8.46v-47.43l-.09-8.46h33.12c12.24,0,24.84,4.32,24.84,20.25,0,8.73-3.96,14.31-9.81,17.55l11.43,26.37v.18h-24.21Zm-13.41-38.07h7.38c4.05,0,7.11-1.35,7.11-5.67s-3.06-5.76-7.38-5.76h-7.11v11.43Z"/>
      </g>
    </g>
  </g>
</svg>