<?xml version="1.0" encoding="UTF-8"?>
<svg id="Camada_2" data-name="Camada 2" xmlns="http://www.w3.org/2000/svg" viewBox="0 0 86.55 64.88">
  <defs>
    <style>
      .cls-1 {
        fill: #fff;
        stroke-width: 0px;
      }
    </style>
  </defs>
  <g id="Layer_1" data-name="Layer 1">
    <g>
      <path class="cls-1" d="m16.91,21.5C29.37,2.86,66.32-8.74,86.55,8.29c-8.51-4.14-42.18-10.88-68.68,13.64l-.96-.42Z"/>
      <path class="cls-1" d="m32.6,29.12c.71-6.1,10.4-6.14,10.92,0h-10.92Zm52.19-5.05c.58,0,1.15.04,1.7.13v-4.68c-8.98-1.61-19.01,4.09-17.67,12.63-.29-3.35-13.65-3.92-13.13-6.33.81-2.81,6.89-2.13,9.65-.72v-4.9c-5.86-2.37-16.49-.1-16.41,6.13-3.46-11.49-24.51-7.45-22.93,5.11-.22-4.7-16.06-5.21-16-8.33-.36-2.55,5.71-2.48,6.91-1.6h0c1.38-1.72,2.87-3.36,4.45-4.92-10.82-5.96-28.47,6.82-13.45,13.84,18.42,2.6,10.47,10.88-1.48,3.93-1.45,1.96-2.95,4.12-3.75,5.45,6.78,4.48,23.72,4.96,23.92-4.94,2.14,6.54,9.37,8.85,16.65,6.85v-4.87c-4.67,1.46-9.27.96-10.65-3.83h17.1c.12-1.12.12-2.29-.01-3.42.47,2.79,13.85,3.15,13.09,6.13-1.22,3.97-9.97,1.32-12.97-.41v5.62c6.68,3.81,20.14,1.88,19.73-6.14,2.71,6.39,10.93,8.41,16.95,7.31v-4.76c-11.68,2.07-14.36-13.2-1.7-13.26"/>
      <path class="cls-1" d="m9.18,30.82c-1.73,2.01-5.14,6.71-6.51,8.97-1.34-.78-2.05-1.29-2.68-1.77,2.07-2.27,5.24-5.61,7.84-7.62,0,0,1.18.37,1.34.43"/>
      <path class="cls-1" d="m86.48,62.71c-4.9.33-4.79-6.69,0-6.29v-2.1c-3.35-.12-6.22,1.69-6.76,4.25-.12-2.21-2.32-3.33-5.04-3.11v2.11c1.16,0,2.37.24,2.38,1.55-2.29-.43-6.17-.09-6.32,1.96,1.73-5.94-8.41-7.84-8.98-1.96-.44-5.4-10.15-4.51-9.55,1.04-.23-1.64-6.51-1.76-6.25-3.26-.05-1.21,2.5-1.06,3.42-.62v-2.23c-5.92-1.73-9.3,5.61-1.98,6.33,6.17,1.63-1.3,3.6-3.1,1.09l-1.67,1.66c2.58,2.29,9.61,2.65,9.91-1.42.74,1.83,2.94,2.94,5.27,2.77v-1.99c-1.33.14-2.55-.42-2.83-1.69h6.74v3.54h2.83c.37-1.59-1.15-6.66,1.67-6.71,2.84.04,1.34,5.11,1.7,6.71h2.81v-1.92c.5,2.44,4.93,2.56,6.3.92v1.01h2.71v-3.64c.62,2.45,3.51,4.23,6.72,4.08v-2.09Zm-9.4-1.47h0c-2.88,4.4-6.63-1.82,0-.57,0,.09.02.3,0,.57m-22.12-1.98c.27-2.44,4.03-2.46,4.22,0h-4.22Z"/>
      <path class="cls-1" d="m31.69,56.32c-6.67-.84-6.45,6.78,0,6.11v2.41c-3.43.16-7.42-1-8.39-4.03v4.04h-3.65l-6.29-6.98v6.98c-1.5,0-3.76,0-5.24,0-9.75.67-11.19-10.79-.8-10.94v2.42c-6.88.78-2.96,7.41,2.44,6.12v-8.55c3.5-.94,8.8,6.13,9.98,7.37v-7.37h3.56v3.87c.97-2.84,4.98-4.02,8.39-3.86v2.41Z"/>
    </g>
  </g>
</svg>