<?xml version="1.0" encoding="UTF-8"?>
<svg id="Camada_2" data-name="Camada 2" xmlns="http://www.w3.org/2000/svg" viewBox="0 0 1108.18 498.48">
  <defs>
    <style>
      .cls-1 {
        opacity: .85;
      }

      .cls-2 {
        fill: #fff;
      }

      .cls-2, .cls-3 {
        stroke-width: 0px;
      }

      .cls-3 {
        fill: #ff8b00;
      }
    </style>
  </defs>
  <g id="Layer_1" data-name="Layer 1">
    <g>
      <path class="cls-2" d="m145.97,175.77c-1.57.88-3.06,1.54-4.47,1.97-1.41.43-2.74.64-3.98.64-1.67,0-2.84-.47-3.51-1.4-.67-.93-1.01-2.68-1.01-5.23,0-1.67.17-6.76.52-15.26.34-8.5.52-16.16.52-22.97,0-1.74-.05-5.41-.15-11.01-.03-2.72-.05-4.87-.05-6.44h-3.73c-4.82,0-8.71.21-11.67.64-2.97.43-5.25,1.1-6.86,2.01-.75-1.44-1.31-2.68-1.67-3.71-.36-1.03-.54-1.94-.54-2.73,0-1.47.51-2.51,1.52-3.12,1.02-.61,2.78-.91,5.31-.91,1.31,0,5.06.15,11.25.44s11.74.44,16.66.44c5.93,0,10.66-.23,14.18-.69,3.52-.46,6.2-1.2,8.03-2.21.65,1.05,1.14,2.01,1.45,2.87.31.87.47,1.68.47,2.43,0,1.77-.66,3.07-1.97,3.91-1.31.84-3.34,1.25-6.09,1.25-1.02,0-3.47-.09-7.37-.27-3.9-.18-7.01-.3-9.34-.37-.23,5.74-.4,11.14-.52,16.21-.12,5.07-.17,9.73-.17,13.99,0,8.16.25,14.57.76,19.23.51,4.66,1.32,8.08,2.43,10.28Z"/>
      <path class="cls-2" d="m193.78,167.91c.72.88,1.25,1.71,1.6,2.48.34.77.52,1.52.52,2.24,0,1.77-1.32,3.22-3.96,4.35-2.64,1.13-6.09,1.7-10.34,1.7-7.83,0-13.96-2.14-18.4-6.41-4.44-4.28-6.66-10.18-6.66-17.72s2.24-13.82,6.71-18.65c4.47-4.83,10.21-7.25,17.22-7.25,5.41,0,9.84,1.54,13.32,4.62,3.47,3.08,5.21,7.01,5.21,11.79,0,3.77-1.44,6.45-4.32,8.06-2.88,1.61-7.78,2.41-14.69,2.41-2.59,0-5.17-.09-7.74-.27-2.57-.18-5.12-.45-7.64-.81v.69c0,5.11,1.51,9.16,4.52,12.14,3.01,2.98,7.11,4.47,12.29,4.47,2.42,0,4.67-.32,6.73-.96s3.95-1.6,5.65-2.87Zm-28.6-19.31c2.16.36,4.55.63,7.15.81,2.6.18,5.41.27,8.43.27,4.09,0,6.83-.38,8.21-1.13,1.38-.75,2.06-2.11,2.06-4.08,0-2.98-1.03-5.34-3.1-7.08-2.06-1.74-4.88-2.6-8.45-2.6-3.8,0-6.96,1.21-9.48,3.64-2.52,2.42-4.13,5.82-4.82,10.17Z"/>
      <path class="cls-2" d="m217.42,139.6c2.46-3.44,4.8-6,7.03-7.69,2.23-1.69,4.42-2.53,6.58-2.53,1.83,0,3.4.58,4.69,1.74,1.29,1.16,1.94,2.6,1.94,4.3,0,1.11-.37,2.2-1.11,3.27-.74,1.06-1.84,2.12-3.32,3.17-.52-1.44-1.17-2.51-1.94-3.19-.77-.69-1.7-1.03-2.78-1.03-1.61,0-3.29.79-5.06,2.38-1.77,1.59-3.51,3.87-5.21,6.86-.16,1.47-.29,2.97-.39,4.5s-.15,3.01-.15,4.45c0,4.91.27,9.01.81,12.29.54,3.28,1.38,5.96,2.53,8.06-1.31.69-2.6,1.21-3.86,1.57-1.26.36-2.5.54-3.71.54-1.61,0-2.71-.4-3.32-1.2-.61-.8-.91-2.42-.91-4.84,0-.88.17-4.28.52-10.2.34-5.91.52-11.41.52-16.49,0-4.16-.16-7.35-.49-9.58-.33-2.23-.87-4.19-1.62-5.9.65-.23,1.3-.4,1.94-.52.64-.11,1.3-.17,1.99-.17,1.9,0,3.31.45,4.23,1.35.92.9,1.38,2.29,1.38,4.15,0,.43-.02,1.01-.07,1.74s-.12,1.73-.22,2.97Z"/>
      <path class="cls-2" d="m253.73,139.6c2.46-3.44,4.8-6,7.03-7.69,2.23-1.69,4.42-2.53,6.58-2.53,1.83,0,3.4.58,4.69,1.74,1.29,1.16,1.94,2.6,1.94,4.3,0,1.11-.37,2.2-1.11,3.27-.74,1.06-1.84,2.12-3.32,3.17-.52-1.44-1.17-2.51-1.94-3.19-.77-.69-1.7-1.03-2.78-1.03-1.61,0-3.29.79-5.06,2.38-1.77,1.59-3.51,3.87-5.21,6.86-.16,1.47-.29,2.97-.39,4.5s-.15,3.01-.15,4.45c0,4.91.27,9.01.81,12.29.54,3.28,1.38,5.96,2.53,8.06-1.31.69-2.6,1.21-3.86,1.57-1.26.36-2.5.54-3.71.54-1.61,0-2.71-.4-3.32-1.2-.61-.8-.91-2.42-.91-4.84,0-.88.17-4.28.52-10.2.34-5.91.52-11.41.52-16.49,0-4.16-.16-7.35-.49-9.58-.33-2.23-.87-4.19-1.62-5.9.65-.23,1.3-.4,1.94-.52.64-.11,1.3-.17,1.99-.17,1.9,0,3.31.45,4.23,1.35.92.9,1.38,2.29,1.38,4.15,0,.43-.02,1.01-.07,1.74s-.12,1.73-.22,2.97Z"/>
      <path class="cls-2" d="m294.08,176.06c-1.38.75-2.69,1.31-3.93,1.67-1.25.36-2.44.54-3.59.54-1.61,0-2.7-.43-3.27-1.3-.57-.87-.86-2.61-.86-5.23,0-1.51.15-4.88.44-10.12.29-5.24.44-9.75.44-13.51,0-4.09-.2-7.42-.59-9.98s-1.03-4.73-1.92-6.54c1.21-.72,2.46-1.27,3.73-1.65,1.28-.38,2.54-.57,3.78-.57,1.51,0,2.54.37,3.1,1.11.56.74.84,2.11.84,4.1,0,.52-.15,3.39-.44,8.6s-.44,10.16-.44,14.84c0,4.39.22,8.03.66,10.91.44,2.88,1.12,5.26,2.04,7.13Zm-.39-61.67c0,1.87-.66,3.42-1.97,4.67-1.31,1.25-2.97,1.87-4.96,1.87-1.74,0-3.11-.49-4.13-1.47-1.02-.98-1.52-2.31-1.52-3.98,0-1.83.65-3.4,1.97-4.69,1.31-1.29,2.9-1.94,4.77-1.94,1.7,0,3.1.52,4.2,1.57,1.1,1.05,1.65,2.38,1.65,3.98Z"/>
      <path class="cls-2" d="m310.39,138.86c-.56,0-1.33.02-2.31.07s-1.62.07-1.92.07c-1.34,0-2.29-.19-2.83-.57-.54-.38-.81-1.02-.81-1.94,0-.43.07-.93.22-1.5.15-.57.38-1.22.71-1.94.26,0,.7.02,1.33.05.62.03,1.11.05,1.47.05.85,0,2.21-.05,4.08-.15.23,0,.41-.02.54-.05,0-.36.02-.9.05-1.62.03-.72.05-1.24.05-1.57,0-2.56-.16-4.81-.49-6.76-.33-1.95-.84-3.66-1.52-5.14,1.41-.69,2.67-1.21,3.78-1.57,1.11-.36,2.06-.54,2.85-.54,1.34,0,2.32.42,2.92,1.25.61.84.91,2.2.91,4.1,0,.82-.15,3.39-.44,7.72-.1,1.61-.18,2.88-.25,3.83,1.9-.26,3.61-.46,5.14-.59,1.52-.13,2.89-.2,4.1-.2,1.08,0,1.86.2,2.33.59.47.39.71,1.03.71,1.92,0,.49-.15,1.11-.44,1.84s-.72,1.56-1.28,2.48c-.85-.2-1.75-.34-2.7-.44-.95-.1-2.1-.15-3.44-.15-.23,0-.92.02-2.06.07-1.15.05-2.13.09-2.95.12-.29,5.11-.51,9.32-.64,12.63-.13,3.31-.2,6.01-.2,8.11,0,4.55.4,7.74,1.2,9.56.8,1.82,2.15,2.73,4.05,2.73.52,0,1.07-.1,1.65-.29.57-.2,1.15-.51,1.74-.93.29.66.51,1.23.64,1.72.13.49.2.93.2,1.33,0,1.61-.66,2.92-1.99,3.96s-3.06,1.55-5.18,1.55c-3.54,0-6.17-1.17-7.89-3.51-1.72-2.34-2.58-5.94-2.58-10.79,0-1.38.16-5.02.49-10.93.33-5.91.57-10.77.74-14.57Z"/>
      <path class="cls-2" d="m363.02,179.5c-7.6,0-13.79-2.34-18.58-7.03-4.78-4.68-7.17-10.7-7.17-18.03,0-7.8,2.56-14.13,7.67-18.99,5.11-4.87,11.74-7.3,19.9-7.3,7.37,0,13.44,2.31,18.21,6.93s7.15,10.47,7.15,17.54c0,2.85-.45,5.67-1.35,8.45-.9,2.78-2.12,5.16-3.66,7.13-2.92,3.77-6.22,6.59-9.9,8.48s-7.77,2.83-12.26,2.83Zm.59-7.08c5.31,0,9.66-1.78,13.05-5.33,3.39-3.55,5.09-8.12,5.09-13.69s-1.66-9.87-4.99-13.29c-3.33-3.42-7.64-5.14-12.95-5.14s-9.77,1.78-13.1,5.33c-3.33,3.56-4.99,8.26-4.99,14.13,0,5.21,1.69,9.51,5.06,12.9,3.37,3.39,7.65,5.09,12.83,5.09Zm13.22-60.79c0,1.21-.48,2.39-1.43,3.54-.95,1.15-2.36,2.24-4.23,3.29-2.62,1.54-5.07,2.75-7.35,3.64-2.28.88-3.96,1.33-5.04,1.33-.75,0-1.31-.13-1.67-.39-.36-.26-.54-.67-.54-1.23,0-.65.7-1.56,2.11-2.7,1.41-1.15,2.46-2.1,3.15-2.85.69-.72,1.62-1.75,2.8-3.1,3.44-3.83,6.03-5.75,7.76-5.75,1.34,0,2.42.39,3.22,1.15.8.77,1.2,1.79,1.2,3.07Z"/>
      <path class="cls-2" d="m409.12,139.6c2.46-3.44,4.8-6,7.03-7.69,2.23-1.69,4.42-2.53,6.58-2.53,1.83,0,3.4.58,4.69,1.74,1.29,1.16,1.94,2.6,1.94,4.3,0,1.11-.37,2.2-1.11,3.27-.74,1.06-1.84,2.12-3.32,3.17-.52-1.44-1.17-2.51-1.94-3.19-.77-.69-1.7-1.03-2.78-1.03-1.61,0-3.29.79-5.06,2.38-1.77,1.59-3.51,3.87-5.21,6.86-.16,1.47-.29,2.97-.39,4.5s-.15,3.01-.15,4.45c0,4.91.27,9.01.81,12.29.54,3.28,1.38,5.96,2.53,8.06-1.31.69-2.6,1.21-3.86,1.57-1.26.36-2.5.54-3.71.54-1.61,0-2.71-.4-3.32-1.2-.61-.8-.91-2.42-.91-4.84,0-.88.17-4.28.52-10.2.34-5.91.52-11.41.52-16.49,0-4.16-.16-7.35-.49-9.58-.33-2.23-.87-4.19-1.62-5.9.65-.23,1.3-.4,1.94-.52.64-.11,1.3-.17,1.99-.17,1.9,0,3.31.45,4.23,1.35.92.9,1.38,2.29,1.38,4.15,0,.43-.02,1.01-.07,1.74s-.12,1.73-.22,2.97Z"/>
      <path class="cls-2" d="m449.46,176.06c-1.38.75-2.69,1.31-3.93,1.67-1.25.36-2.44.54-3.59.54-1.61,0-2.7-.43-3.27-1.3-.57-.87-.86-2.61-.86-5.23,0-1.51.15-4.88.44-10.12.29-5.24.44-9.75.44-13.51,0-4.09-.2-7.42-.59-9.98s-1.03-4.73-1.92-6.54c1.21-.72,2.46-1.27,3.73-1.65,1.28-.38,2.54-.57,3.78-.57,1.51,0,2.54.37,3.1,1.11.56.74.84,2.11.84,4.1,0,.52-.15,3.39-.44,8.6s-.44,10.16-.44,14.84c0,4.39.22,8.03.66,10.91.44,2.88,1.12,5.26,2.04,7.13Zm-.39-61.67c0,1.87-.66,3.42-1.97,4.67-1.31,1.25-2.97,1.87-4.96,1.87-1.74,0-3.11-.49-4.13-1.47-1.02-.98-1.52-2.31-1.52-3.98,0-1.83.65-3.4,1.97-4.69,1.31-1.29,2.9-1.94,4.77-1.94,1.7,0,3.1.52,4.2,1.57,1.1,1.05,1.65,2.38,1.65,3.98Z"/>
      <path class="cls-2" d="m485.09,179.5c-7.6,0-13.79-2.34-18.58-7.03-4.78-4.68-7.17-10.7-7.17-18.03,0-7.8,2.56-14.13,7.67-18.99s11.74-7.3,19.9-7.3c7.37,0,13.44,2.31,18.21,6.93s7.15,10.47,7.15,17.54c0,2.85-.45,5.67-1.35,8.45-.9,2.78-2.12,5.16-3.66,7.13-2.92,3.77-6.22,6.59-9.9,8.48s-7.77,2.83-12.26,2.83Zm.59-7.08c5.31,0,9.66-1.78,13.05-5.33,3.39-3.55,5.09-8.12,5.09-13.69s-1.66-9.87-4.99-13.29c-3.33-3.42-7.64-5.14-12.95-5.14s-9.77,1.78-13.1,5.33c-3.33,3.56-4.99,8.26-4.99,14.13,0,5.21,1.69,9.51,5.06,12.9,3.37,3.39,7.65,5.09,12.83,5.09Z"/>
      <path class="cls-2" d="m523.03,170.41c1.18.62,2.31,1.08,3.39,1.38s2.13.44,3.15.44c2.36,0,4.26-.57,5.7-1.7,1.44-1.13,2.16-2.61,2.16-4.45,0-1.44-.39-2.78-1.18-4.03-.79-1.24-2.26-2.75-4.42-4.52-.36-.26-.85-.65-1.47-1.18-5.54-4.59-8.3-8.65-8.3-12.19,0-1.44.28-2.88.84-4.32.56-1.44,1.38-2.82,2.46-4.13,2.06-2.46,4.48-4.33,7.25-5.63,2.77-1.29,5.76-1.94,8.97-1.94,1.57,0,2.77.3,3.59.91.82.61,1.23,1.48,1.23,2.63,0,.56-.15,1.22-.44,1.99-.29.77-.79,1.74-1.47,2.92-.88-.36-1.72-.63-2.51-.81-.79-.18-1.56-.27-2.31-.27-2.72,0-4.92.66-6.61,1.99-1.69,1.33-2.53,3.04-2.53,5.14,0,2.29,2.28,5.39,6.83,9.29,1.15.98,2.01,1.75,2.6,2.31,1.93,1.7,3.36,3.38,4.28,5.04.92,1.65,1.38,3.35,1.38,5.09,0,4.1-1.81,7.63-5.43,10.59-3.62,2.97-8.02,4.45-13.19,4.45-1.8,0-3.19-.36-4.15-1.08-.97-.72-1.45-1.74-1.45-3.05,0-.62.13-1.31.39-2.06.26-.75.69-1.69,1.28-2.8Z"/>
      <path class="cls-2" d="m599.3,176.06c-1.38.75-2.69,1.31-3.93,1.67-1.25.36-2.44.54-3.59.54-1.61,0-2.7-.43-3.27-1.3-.57-.87-.86-2.61-.86-5.23,0-1.51.15-4.88.44-10.12.29-5.24.44-9.75.44-13.51,0-4.09-.2-7.42-.59-9.98s-1.03-4.73-1.92-6.54c1.21-.72,2.46-1.27,3.73-1.65,1.28-.38,2.54-.57,3.78-.57,1.51,0,2.54.37,3.1,1.11.56.74.84,2.11.84,4.1,0,.52-.15,3.39-.44,8.6s-.44,10.16-.44,14.84c0,4.39.22,8.03.66,10.91.44,2.88,1.12,5.26,2.04,7.13Zm-.39-61.67c0,1.87-.66,3.42-1.97,4.67-1.31,1.25-2.97,1.87-4.96,1.87-1.74,0-3.11-.49-4.13-1.47-1.02-.98-1.52-2.31-1.52-3.98,0-1.83.65-3.4,1.97-4.69,1.31-1.29,2.9-1.94,4.77-1.94,1.7,0,3.1.52,4.2,1.57,1.1,1.05,1.65,2.38,1.65,3.98Z"/>
      <path class="cls-2" d="m621.56,140.54c-.07,3.6-.16,7.48-.27,11.62-.12,4.14-.17,6.48-.17,7,0,4.26.2,7.72.59,10.37s1.02,4.87,1.87,6.63c-1.38.72-2.64,1.25-3.78,1.6-1.15.34-2.28.52-3.39.52-1.51,0-2.54-.43-3.1-1.28-.56-.85-.84-2.64-.84-5.36,0-.59.17-3.63.52-9.12.34-5.49.52-10.67.52-15.55,0-4.62-.18-8.19-.54-10.71-.36-2.52-.95-4.78-1.77-6.78.72-.23,1.45-.41,2.19-.54.74-.13,1.45-.2,2.14-.2,1.74,0,3.11.48,4.13,1.45,1.02.97,1.59,2.33,1.72,4.1,2.46-1.77,5.06-3.14,7.81-4.1,2.75-.97,5.47-1.45,8.16-1.45,3.28,0,6.22.71,8.82,2.14s4.59,3.4,5.97,5.92c.95,1.74,1.63,3.76,2.04,6.07.41,2.31.61,5.82.61,10.54,0,.49-.02,1.65-.07,3.49-.05,1.84-.07,3.42-.07,4.77,0,3.37.22,6.27.66,8.7.44,2.42,1.11,4.32,1.99,5.7-1.54.75-2.87,1.31-4.01,1.67-1.13.36-2.15.54-3.07.54-1.54,0-2.61-.4-3.22-1.2-.61-.8-.91-2.32-.91-4.55,0-1.34.11-4.23.32-8.67.21-4.44.32-8.21.32-11.33,0-5.93-.9-10.23-2.7-12.9-1.8-2.67-4.7-4.01-8.7-4.01-2.03,0-4.23.42-6.58,1.25s-4.75,2.06-7.17,3.66Z"/>
      <path class="cls-2" d="m705.49,131.49v-4.32c0-5.01-.2-9.02-.59-12.02s-1-5.33-1.82-7c1.31-.72,2.54-1.25,3.69-1.6,1.15-.34,2.16-.52,3.05-.52,1.57,0,2.67.41,3.29,1.23.62.82.93,2.34.93,4.57,0,1.41-.22,6.26-.66,14.55-.44,8.29-.66,15.89-.66,22.8,0,8.39.24,14.48.71,18.28.47,3.8,1.29,6.67,2.43,8.6-1.44.75-2.75,1.31-3.93,1.67-1.18.36-2.26.54-3.24.54-1.31,0-2.24-.38-2.78-1.13-.54-.75-.81-2.05-.81-3.88,0-.62.02-1.11.05-1.45.03-.34.05-.66.05-.96-2.56,2.75-5.22,4.78-8,6.07-2.77,1.29-5.85,1.94-9.23,1.94-6.53,0-11.87-2.16-16.02-6.49s-6.22-9.91-6.22-16.76c0-7.73,2.56-14.13,7.67-19.19,5.11-5.06,11.58-7.59,19.41-7.59,1.9,0,3.91.22,6.02.66s4.33,1.11,6.66,1.99Zm-.54,32.24c.07-3.21.12-6.64.17-10.3.05-3.65.07-5.71.07-6.17,0-2.49,0-4.34-.02-5.55-.02-1.21-.06-2.34-.12-3.39-2.33-.98-4.5-1.71-6.51-2.19-2.01-.47-3.92-.71-5.72-.71-5.73,0-10.27,1.79-13.61,5.38s-5.01,8.46-5.01,14.62c0,5.11,1.38,9.16,4.13,12.14,2.75,2.98,6.47,4.47,11.16,4.47,3.05,0,5.83-.68,8.35-2.04,2.52-1.36,4.9-3.45,7.13-6.27Z"/>
      <path class="cls-2" d="m745.54,111.64c0,1.21-.48,2.39-1.43,3.54-.95,1.15-2.36,2.24-4.23,3.29-2.62,1.54-5.07,2.75-7.35,3.64-2.28.88-3.96,1.33-5.04,1.33-.75,0-1.31-.13-1.67-.39-.36-.26-.54-.67-.54-1.23,0-.65.7-1.56,2.11-2.7,1.41-1.15,2.46-2.1,3.15-2.85.69-.72,1.62-1.75,2.8-3.1,3.44-3.83,6.03-5.75,7.76-5.75,1.34,0,2.42.39,3.22,1.15.8.77,1.2,1.79,1.2,3.07Zm-6.04,64.42c-1.38.75-2.69,1.31-3.93,1.67-1.25.36-2.44.54-3.59.54-1.61,0-2.7-.43-3.27-1.3-.57-.87-.86-2.61-.86-5.23,0-1.51.15-4.88.44-10.12.29-5.24.44-9.75.44-13.51,0-4.09-.2-7.42-.59-9.98s-1.03-4.73-1.92-6.54c1.21-.72,2.46-1.27,3.73-1.65,1.28-.38,2.54-.57,3.78-.57,1.51,0,2.54.37,3.1,1.11.56.74.84,2.11.84,4.1,0,.52-.15,3.39-.44,8.6s-.44,10.16-.44,14.84c0,4.39.22,8.03.66,10.91.44,2.88,1.12,5.26,2.04,7.13Z"/>
      <path class="cls-2" d="m760.73,159.65c-3.18-1.6-5.56-3.6-7.15-5.97-1.59-2.37-2.38-5.12-2.38-8.23,0-5.01,1.81-9.15,5.43-12.41,3.62-3.26,8.28-4.89,13.98-4.89,1.64,0,3.31.25,5.01.74,1.7.49,3.46,1.21,5.26,2.16,3.67-.98,6.39-1.88,8.16-2.68,1.77-.8,2.9-1.61,3.39-2.43.65.69,1.14,1.41,1.45,2.16.31.75.47,1.54.47,2.36,0,1.67-.63,2.96-1.89,3.86-1.26.9-3.42,1.56-6.46,1.99,1.18,1.47,2.05,2.95,2.6,4.42.56,1.47.84,3.01.84,4.62,0,4.55-1.77,8.36-5.31,11.43-3.54,3.06-7.98,4.59-13.32,4.59-.66,0-1.35-.02-2.09-.07-.74-.05-1.48-.12-2.24-.22-.62.62-1.1,1.24-1.43,1.84-.33.61-.49,1.2-.49,1.79,0,2.26,3.15,4.08,9.44,5.45,1.47.33,2.62.57,3.44.74,6.16,1.44,10.32,3.1,12.48,4.99,2.16,1.88,3.24,4.56,3.24,8.03,0,4.98-2.24,9.09-6.71,12.33-4.47,3.24-10.23,4.87-17.27,4.87-6.55,0-11.73-1.35-15.53-4.05-3.8-2.7-5.7-6.35-5.7-10.93,0-3.21.94-6.04,2.83-8.48,1.88-2.44,4.66-4.45,8.33-6.02-.79-.72-1.38-1.46-1.79-2.21-.41-.75-.61-1.56-.61-2.41,0-1.08.34-2.23,1.01-3.44.67-1.21,1.68-2.52,3.02-3.93Zm3.24,15.53h.1c-2.72,1.08-4.76,2.42-6.12,4.01-1.36,1.59-2.04,3.4-2.04,5.43,0,3.01,1.33,5.45,3.98,7.3,2.65,1.85,6.19,2.78,10.61,2.78s7.76-.83,10.42-2.48c2.65-1.65,3.98-3.78,3.98-6.36,0-3.9-6.67-7.39-20-10.47-.43-.1-.74-.16-.93-.2Zm6.44-19.95c3.34,0,6.1-.97,8.28-2.92,2.18-1.95,3.27-4.4,3.27-7.35s-1.04-5.56-3.12-7.44c-2.08-1.88-4.82-2.83-8.23-2.83s-6.33.93-8.48,2.78c-2.15,1.85-3.22,4.28-3.22,7.3s1.07,5.55,3.22,7.52,4.91,2.95,8.28,2.95Z"/>
      <path class="cls-2" d="m837.14,167.91c.72.88,1.25,1.71,1.6,2.48.34.77.52,1.52.52,2.24,0,1.77-1.32,3.22-3.96,4.35-2.64,1.13-6.09,1.7-10.34,1.7-7.83,0-13.96-2.14-18.4-6.41-4.44-4.28-6.66-10.18-6.66-17.72s2.24-13.82,6.71-18.65c4.47-4.83,10.21-7.25,17.22-7.25,5.41,0,9.84,1.54,13.32,4.62,3.47,3.08,5.21,7.01,5.21,11.79,0,3.77-1.44,6.45-4.32,8.06-2.88,1.61-7.78,2.41-14.69,2.41-2.59,0-5.17-.09-7.74-.27-2.57-.18-5.12-.45-7.64-.81v.69c0,5.11,1.51,9.16,4.52,12.14,3.01,2.98,7.11,4.47,12.29,4.47,2.42,0,4.67-.32,6.73-.96s3.95-1.6,5.65-2.87Zm-28.6-19.31c2.16.36,4.55.63,7.15.81,2.61.18,5.41.27,8.43.27,4.09,0,6.83-.38,8.21-1.13,1.38-.75,2.06-2.11,2.06-4.08,0-2.98-1.03-5.34-3.1-7.08-2.06-1.74-4.88-2.6-8.45-2.6-3.8,0-6.96,1.21-9.48,3.64-2.52,2.42-4.13,5.82-4.82,10.17Z"/>
      <path class="cls-2" d="m861.71,140.54c-.07,3.6-.16,7.48-.27,11.62-.12,4.14-.17,6.48-.17,7,0,4.26.2,7.72.59,10.37.39,2.65,1.02,4.87,1.87,6.63-1.38.72-2.64,1.25-3.78,1.6-1.15.34-2.28.52-3.39.52-1.51,0-2.54-.43-3.1-1.28-.56-.85-.84-2.64-.84-5.36,0-.59.17-3.63.52-9.12.35-5.49.52-10.67.52-15.55,0-4.62-.18-8.19-.54-10.71-.36-2.52-.95-4.78-1.77-6.78.72-.23,1.45-.41,2.19-.54.74-.13,1.45-.2,2.14-.2,1.74,0,3.11.48,4.13,1.45,1.02.97,1.59,2.33,1.72,4.1,2.46-1.77,5.06-3.14,7.81-4.1,2.75-.97,5.47-1.45,8.16-1.45,3.28,0,6.22.71,8.82,2.14,2.6,1.43,4.59,3.4,5.97,5.92.95,1.74,1.63,3.76,2.04,6.07s.61,5.82.61,10.54c0,.49-.03,1.65-.07,3.49-.05,1.84-.07,3.42-.07,4.77,0,3.37.22,6.27.66,8.7.44,2.42,1.1,4.32,1.99,5.7-1.54.75-2.87,1.31-4.01,1.67-1.13.36-2.15.54-3.07.54-1.54,0-2.61-.4-3.22-1.2-.61-.8-.91-2.32-.91-4.55,0-1.34.11-4.23.32-8.67.21-4.44.32-8.21.32-11.33,0-5.93-.9-10.23-2.7-12.9-1.8-2.67-4.7-4.01-8.7-4.01-2.03,0-4.23.42-6.58,1.25s-4.75,2.06-7.17,3.66Z"/>
      <path class="cls-2" d="m947.76,175.67c-1.28.82-2.44,1.44-3.49,1.87-1.05.43-1.97.64-2.75.64-1.41,0-2.43-.43-3.07-1.3-.64-.87-1.01-2.27-1.11-4.2-2.46,2.1-4.89,3.65-7.3,4.67-2.41,1.02-4.86,1.52-7.35,1.52-4.91,0-8.88-1.38-11.89-4.13-3.01-2.75-4.52-6.37-4.52-10.86,0-5.08,2.07-9.15,6.22-12.21,4.14-3.06,9.72-4.59,16.73-4.59,1.15,0,2.37.04,3.66.12,1.29.08,2.68.2,4.15.37.06-.29.11-.6.12-.91.02-.31.02-.68.02-1.11,0-3.41-.96-6-2.87-7.79-1.92-1.79-4.69-2.68-8.33-2.68-3.01,0-5.5.5-7.45,1.5-1.95,1-3.53,2.55-4.74,4.64-1.18-.29-2.07-.8-2.68-1.52-.61-.72-.91-1.65-.91-2.8,0-2.39,1.51-4.37,4.55-5.92,3.03-1.56,6.99-2.33,11.87-2.33,6,0,10.49,1.45,13.49,4.35,3,2.9,4.5,7.23,4.5,13,0,1.08-.05,2.97-.15,5.65-.1,2.69-.15,4.85-.15,6.49,0,4.52.27,8.16.81,10.91.54,2.75,1.42,4.96,2.63,6.63Zm-10.81-21.87c-1.51-.23-2.86-.4-4.05-.52-1.2-.11-2.22-.17-3.07-.17-5.08,0-8.91.84-11.5,2.53-2.59,1.69-3.88,4.2-3.88,7.54,0,2.69.9,4.8,2.7,6.34,1.8,1.54,4.29,2.31,7.47,2.31,2.39,0,4.63-.45,6.71-1.35,2.08-.9,3.99-2.25,5.73-4.05-.07-1.64-.11-2.97-.12-4.01s-.02-2.02-.02-2.97c0-.59.02-1.51.05-2.78.03-1.26.03-2.22,0-2.87Z"/>
      <path class="cls-2" d="m959.31,170.41c1.18.62,2.31,1.08,3.39,1.38s2.13.44,3.15.44c2.36,0,4.26-.57,5.7-1.7,1.44-1.13,2.16-2.61,2.16-4.45,0-1.44-.39-2.78-1.18-4.03-.79-1.24-2.26-2.75-4.42-4.52-.36-.26-.85-.65-1.47-1.18-5.54-4.59-8.3-8.65-8.3-12.19,0-1.44.28-2.88.84-4.32.56-1.44,1.38-2.82,2.46-4.13,2.06-2.46,4.48-4.33,7.25-5.63,2.77-1.29,5.76-1.94,8.97-1.94,1.57,0,2.77.3,3.59.91.82.61,1.23,1.48,1.23,2.63,0,.56-.15,1.22-.44,1.99-.29.77-.79,1.74-1.47,2.92-.88-.36-1.72-.63-2.51-.81-.79-.18-1.56-.27-2.31-.27-2.72,0-4.92.66-6.61,1.99-1.69,1.33-2.53,3.04-2.53,5.14,0,2.29,2.28,5.39,6.83,9.29,1.15.98,2.01,1.75,2.6,2.31,1.93,1.7,3.36,3.38,4.28,5.04.92,1.65,1.38,3.35,1.38,5.09,0,4.1-1.81,7.63-5.43,10.59-3.62,2.97-8.02,4.45-13.19,4.45-1.8,0-3.19-.36-4.15-1.08-.97-.72-1.45-1.74-1.45-3.05,0-.62.13-1.31.39-2.06.26-.75.69-1.69,1.28-2.8Z"/>
      <path class="cls-2" d="m1008.3,172.43c0,1.8-.69,3.33-2.06,4.57-1.38,1.25-3.1,1.87-5.16,1.87-1.87,0-3.39-.57-4.57-1.7s-1.77-2.61-1.77-4.45c0-1.97.65-3.56,1.97-4.79,1.31-1.23,3.03-1.84,5.16-1.84,2,0,3.57.57,4.72,1.72,1.15,1.15,1.72,2.69,1.72,4.62Zm.54-32.78c0,1.8-.7,3.33-2.09,4.57-1.39,1.25-3.12,1.87-5.19,1.87-1.87,0-3.39-.57-4.57-1.72-1.18-1.15-1.77-2.62-1.77-4.42,0-2,.65-3.6,1.97-4.82,1.31-1.21,3.03-1.82,5.16-1.82,2,0,3.58.57,4.74,1.7s1.75,2.68,1.75,4.64Z"/>
      <path class="cls-2" d="m115.68,223.37c4.04-.06,8.09-.16,12.14-.31,4.05-.15,6.13-.22,6.21-.22,11.53,0,20.71,2.74,27.53,8.23,6.83,5.48,10.24,12.8,10.24,21.94,0,4.89-1.01,9.52-3.03,13.86-2.02,4.35-4.93,8.15-8.73,11.39-3.51,3.01-7.61,5.27-12.32,6.79s-9.96,2.28-15.77,2.28-9.83-.47-11.7-1.42c-1.87-.94-2.81-2.76-2.81-5.44,0-.21.14-3.7.42-10.48.28-6.78.42-13.47.42-20.08,0-7.16-.21-12.83-.64-17.01-.43-4.17-1.08-7.35-1.97-9.53Zm11.06,7.16c-.21,6.25-.35,11.86-.44,16.83s-.13,9.29-.13,12.98c0,3.24.04,6.41.11,9.49.07,3.08.2,6.08.38,9,1.39.35,2.78.62,4.18.8s2.81.27,4.22.27c8.23,0,14.87-2.3,19.92-6.9s7.59-10.63,7.59-18.09-2.51-13.42-7.52-18.04c-5.01-4.63-11.53-6.94-19.55-6.94-1.62,0-3.16.05-4.6.15-1.44.1-2.83.26-4.16.46Z"/>
      <path class="cls-2" d="m192.68,284.98c-1.24.68-2.42,1.18-3.54,1.5-1.12.33-2.2.49-3.23.49-1.44,0-2.43-.39-2.94-1.17-.52-.78-.77-2.35-.77-4.71,0-1.36.13-4.39.4-9.11.27-4.72.4-8.77.4-12.16,0-3.69-.18-6.68-.53-8.98s-.93-4.26-1.72-5.88c1.09-.65,2.21-1.14,3.36-1.48s2.28-.51,3.41-.51c1.36,0,2.28.33,2.79.99.5.66.75,1.9.75,3.69,0,.47-.13,3.05-.4,7.74s-.4,9.14-.4,13.36c0,3.95.2,7.22.6,9.82.4,2.59,1.01,4.73,1.84,6.41Zm-.35-55.51c0,1.68-.59,3.08-1.77,4.2-1.18,1.12-2.67,1.68-4.47,1.68-1.56,0-2.8-.44-3.72-1.33-.91-.88-1.37-2.08-1.37-3.58,0-1.65.59-3.06,1.77-4.22,1.18-1.16,2.61-1.75,4.29-1.75,1.53,0,2.79.47,3.78,1.42.99.94,1.48,2.14,1.48,3.58Z"/>
      <path class="cls-2" d="m207.1,250.75c-.65,0-1.4.02-2.26.04-.86.03-1.4.04-1.64.04-.83,0-1.46-.22-1.9-.66s-.66-1.06-.66-1.86c0-.44.07-.9.22-1.37.15-.47.35-.93.62-1.37.29,0,.67.02,1.13.04.46.03.77.04.95.04h3.45v-.97c0-7.25,1.36-12.81,4.09-16.67,2.73-3.86,6.64-5.79,11.74-5.79,2.03,0,3.68.42,4.93,1.26,1.25.84,1.88,1.92,1.88,3.25,0,.91-.34,1.75-1.02,2.52-.68.77-1.64,1.43-2.87,1.99-.68-.8-1.4-1.4-2.17-1.81-.77-.41-1.56-.62-2.39-.62-2.36,0-4.08,1.19-5.15,3.56-1.08,2.37-1.61,6.17-1.61,11.39v1.46c1.03-.12,2.21-.21,3.54-.27,1.33-.06,2.71-.09,4.16-.09.94,0,1.66.23,2.14.69.49.46.73,1.16.73,2.1,0,.33-.07.72-.2,1.17-.13.46-.42,1.19-.86,2.19-.68-.27-1.56-.45-2.63-.55-1.08-.1-2.74-.16-4.98-.16-.53,0-.94,0-1.22.02-.28.02-.54.04-.77.07,0,6.4.1,12.99.31,19.77.21,6.78.31,10.36.31,10.75,0,2.39-.27,4-.8,4.82-.53.83-1.47,1.24-2.83,1.24-.94,0-1.96-.18-3.05-.53-1.09-.35-2.32-.9-3.67-1.64.91-1.74,1.58-4.33,2.01-7.78.43-3.45.64-8.05.64-13.8,0-2.09-.06-5.72-.18-10.88v-1.59Z"/>
      <path class="cls-2" d="m263.18,277.64c.65.8,1.13,1.54,1.44,2.23.31.69.46,1.36.46,2.01,0,1.59-1.19,2.9-3.56,3.91-2.37,1.02-5.48,1.53-9.31,1.53-7.05,0-12.57-1.92-16.56-5.77-4-3.85-5.99-9.16-5.99-15.94s2.01-12.43,6.04-16.78c4.02-4.35,9.19-6.52,15.5-6.52,4.87,0,8.86,1.39,11.99,4.16,3.12,2.77,4.69,6.31,4.69,10.61,0,3.39-1.3,5.81-3.89,7.25-2.59,1.44-7,2.17-13.22,2.17-2.33,0-4.65-.08-6.97-.24-2.31-.16-4.61-.4-6.88-.73v.62c0,4.6,1.36,8.24,4.07,10.92,2.71,2.68,6.4,4.02,11.06,4.02,2.18,0,4.2-.29,6.06-.86,1.86-.57,3.55-1.44,5.09-2.59Zm-25.74-17.38c1.95.33,4.09.57,6.43.73,2.34.16,4.87.24,7.59.24,3.69,0,6.15-.34,7.39-1.02,1.24-.68,1.86-1.9,1.86-3.67,0-2.68-.93-4.81-2.79-6.37-1.86-1.56-4.39-2.34-7.61-2.34-3.42,0-6.27,1.09-8.54,3.27-2.27,2.18-3.72,5.23-4.33,9.16Z"/>
      <path class="cls-2" d="m284.45,252.16c2.21-3.1,4.32-5.4,6.32-6.92,2-1.52,3.98-2.28,5.93-2.28,1.65,0,3.06.52,4.22,1.57s1.75,2.34,1.75,3.87c0,1-.33,1.98-.99,2.94-.66.96-1.66,1.91-2.99,2.85-.47-1.3-1.05-2.26-1.75-2.87s-1.53-.93-2.5-.93c-1.44,0-2.96.72-4.56,2.14-1.59,1.43-3.16,3.49-4.69,6.17-.15,1.33-.27,2.68-.35,4.05-.09,1.37-.13,2.7-.13,4,0,4.42.24,8.11.73,11.06.49,2.95,1.25,5.37,2.28,7.25-1.18.62-2.34,1.09-3.47,1.42-1.14.33-2.25.49-3.34.49-1.44,0-2.44-.36-2.99-1.08-.55-.72-.82-2.17-.82-4.36,0-.8.16-3.85.46-9.18.31-5.32.46-10.27.46-14.84,0-3.74-.15-6.62-.44-8.62-.29-2-.78-3.77-1.46-5.31.59-.21,1.17-.36,1.75-.46.57-.1,1.17-.16,1.79-.16,1.71,0,2.98.41,3.8,1.22.82.81,1.24,2.06,1.24,3.74,0,.38-.02.91-.07,1.57-.04.66-.11,1.55-.2,2.68Z"/>
      <path class="cls-2" d="m340.35,277.64c.65.8,1.13,1.54,1.44,2.23.31.69.46,1.36.46,2.01,0,1.59-1.19,2.9-3.56,3.91-2.37,1.02-5.48,1.53-9.31,1.53-7.05,0-12.57-1.92-16.56-5.77-4-3.85-5.99-9.16-5.99-15.94s2.01-12.43,6.04-16.78c4.02-4.35,9.19-6.52,15.5-6.52,4.87,0,8.86,1.39,11.99,4.16,3.12,2.77,4.69,6.31,4.69,10.61,0,3.39-1.3,5.81-3.89,7.25-2.59,1.44-7,2.17-13.22,2.17-2.33,0-4.65-.08-6.97-.24-2.31-.16-4.61-.4-6.88-.73v.62c0,4.6,1.36,8.24,4.07,10.92,2.71,2.68,6.4,4.02,11.06,4.02,2.18,0,4.2-.29,6.06-.86,1.86-.57,3.55-1.44,5.09-2.59Zm-25.74-17.38c1.95.33,4.09.57,6.43.73,2.34.16,4.87.24,7.59.24,3.69,0,6.15-.34,7.39-1.02,1.24-.68,1.86-1.9,1.86-3.67,0-2.68-.93-4.81-2.79-6.37-1.86-1.56-4.39-2.34-7.61-2.34-3.42,0-6.27,1.09-8.54,3.27-2.27,2.18-3.72,5.23-4.33,9.16Z"/>
      <path class="cls-2" d="m362.47,253c-.06,3.24-.14,6.73-.24,10.46-.1,3.73-.16,5.83-.16,6.3,0,3.83.18,6.94.53,9.33s.91,4.38,1.68,5.97c-1.24.65-2.37,1.13-3.41,1.44-1.03.31-2.05.46-3.05.46-1.36,0-2.29-.38-2.79-1.15-.5-.77-.75-2.37-.75-4.82,0-.53.16-3.27.46-8.2.31-4.94.46-9.6.46-14,0-4.16-.16-7.37-.49-9.64-.33-2.27-.86-4.3-1.59-6.1.65-.21,1.31-.37,1.97-.49.66-.12,1.31-.18,1.92-.18,1.56,0,2.8.44,3.72,1.3.91.87,1.43,2.1,1.55,3.69,2.21-1.59,4.56-2.82,7.03-3.69,2.48-.87,4.92-1.3,7.34-1.3,2.95,0,5.59.64,7.94,1.92,2.34,1.28,4.13,3.06,5.37,5.33.86,1.56,1.47,3.38,1.84,5.46.37,2.08.55,5.24.55,9.49,0,.44-.02,1.49-.07,3.14-.04,1.65-.07,3.08-.07,4.29,0,3.04.2,5.65.6,7.83.4,2.18.99,3.89,1.79,5.13-1.39.68-2.59,1.18-3.6,1.5-1.02.33-1.94.49-2.76.49-1.39,0-2.35-.36-2.9-1.08-.55-.72-.82-2.09-.82-4.09,0-1.21.1-3.81.29-7.81s.29-7.39.29-10.19c0-5.34-.81-9.21-2.43-11.61-1.62-2.4-4.23-3.6-7.83-3.6-1.83,0-3.8.38-5.93,1.13-2.12.75-4.28,1.85-6.46,3.3Z"/>
      <path class="cls-2" d="m408.02,251.5c-.5,0-1.19.02-2.08.07-.88.04-1.46.07-1.72.07-1.21,0-2.06-.17-2.54-.51-.49-.34-.73-.92-.73-1.75,0-.38.07-.83.2-1.35.13-.52.35-1.1.64-1.75.24,0,.63.02,1.19.04.56.03,1,.04,1.33.04.77,0,1.99-.04,3.67-.13.21,0,.37-.01.49-.04,0-.32.01-.81.04-1.46.03-.65.04-1.12.04-1.42,0-2.3-.15-4.33-.44-6.08-.29-1.75-.75-3.29-1.37-4.62,1.27-.62,2.4-1.09,3.41-1.42,1-.32,1.86-.49,2.57-.49,1.21,0,2.09.38,2.63,1.13.54.75.82,1.98.82,3.69,0,.74-.13,3.05-.4,6.94-.09,1.44-.16,2.59-.22,3.45,1.71-.24,3.25-.41,4.62-.53,1.37-.12,2.6-.18,3.69-.18.97,0,1.67.18,2.1.53.43.35.64.93.64,1.72,0,.44-.13.99-.4,1.66-.27.66-.65,1.41-1.15,2.23-.77-.18-1.58-.31-2.43-.4-.86-.09-1.89-.13-3.1-.13-.21,0-.83.02-1.86.07-1.03.04-1.92.08-2.65.11-.27,4.6-.46,8.39-.57,11.37-.12,2.98-.18,5.41-.18,7.3,0,4.1.36,6.97,1.08,8.6.72,1.64,1.94,2.45,3.65,2.45.47,0,.97-.09,1.48-.27.52-.18,1.04-.46,1.57-.84.27.59.46,1.11.57,1.55.12.44.18.84.18,1.19,0,1.44-.6,2.63-1.79,3.56-1.19.93-2.75,1.39-4.67,1.39-3.18,0-5.55-1.05-7.1-3.16-1.55-2.11-2.32-5.34-2.32-9.71,0-1.24.15-4.52.44-9.84.29-5.32.52-9.69.66-13.11Z"/>
      <path class="cls-2" d="m465.74,277.64c.65.8,1.13,1.54,1.44,2.23.31.69.46,1.36.46,2.01,0,1.59-1.19,2.9-3.56,3.91-2.37,1.02-5.48,1.53-9.31,1.53-7.05,0-12.57-1.92-16.56-5.77-4-3.85-5.99-9.16-5.99-15.94s2.01-12.43,6.04-16.78c4.02-4.35,9.19-6.52,15.5-6.52,4.87,0,8.86,1.39,11.99,4.16,3.12,2.77,4.69,6.31,4.69,10.61,0,3.39-1.3,5.81-3.89,7.25-2.59,1.44-7,2.17-13.22,2.17-2.33,0-4.65-.08-6.97-.24-2.31-.16-4.61-.4-6.88-.73v.62c0,4.6,1.36,8.24,4.07,10.92,2.71,2.68,6.4,4.02,11.06,4.02,2.18,0,4.2-.29,6.06-.86,1.86-.57,3.55-1.44,5.09-2.59Zm-25.74-17.38c1.95.33,4.09.57,6.43.73,2.34.16,4.87.24,7.59.24,3.69,0,6.15-.34,7.39-1.02,1.24-.68,1.86-1.9,1.86-3.67,0-2.68-.93-4.81-2.79-6.37-1.86-1.56-4.39-2.34-7.61-2.34-3.42,0-6.27,1.09-8.54,3.27-2.27,2.18-3.72,5.23-4.33,9.16Z"/>
      <path class="cls-2" d="m479.67,279.89c1.06.56,2.08.97,3.05,1.24s1.92.4,2.83.4c2.12,0,3.83-.51,5.13-1.53,1.3-1.02,1.95-2.35,1.95-4,0-1.3-.35-2.51-1.06-3.63-.71-1.12-2.03-2.48-3.98-4.07-.33-.24-.77-.59-1.33-1.06-4.98-4.13-7.47-7.78-7.47-10.97,0-1.3.25-2.59.75-3.89.5-1.3,1.24-2.54,2.21-3.72,1.86-2.21,4.03-3.9,6.52-5.06,2.49-1.16,5.18-1.75,8.07-1.75,1.42,0,2.49.27,3.23.82.74.55,1.11,1.33,1.11,2.37,0,.5-.13,1.1-.4,1.79s-.71,1.57-1.33,2.63c-.8-.32-1.55-.57-2.26-.73-.71-.16-1.4-.24-2.08-.24-2.45,0-4.43.6-5.95,1.79-1.52,1.19-2.28,2.74-2.28,4.62,0,2.06,2.05,4.85,6.15,8.36,1.03.88,1.81,1.58,2.34,2.08,1.74,1.53,3.02,3.04,3.85,4.53.82,1.49,1.24,3.02,1.24,4.58,0,3.69-1.63,6.86-4.89,9.53s-7.22,4-11.87,4c-1.62,0-2.87-.33-3.74-.97-.87-.65-1.31-1.56-1.31-2.74,0-.56.12-1.18.35-1.86.24-.68.62-1.52,1.15-2.52Z"/>
      <path class="cls-2" d="m548.31,284.98c-1.24.68-2.42,1.18-3.54,1.5-1.12.33-2.2.49-3.23.49-1.44,0-2.43-.39-2.94-1.17-.52-.78-.77-2.35-.77-4.71,0-1.36.13-4.39.4-9.11.27-4.72.4-8.77.4-12.16,0-3.69-.18-6.68-.53-8.98s-.93-4.26-1.72-5.88c1.09-.65,2.21-1.14,3.36-1.48s2.28-.51,3.41-.51c1.36,0,2.28.33,2.79.99.5.66.75,1.9.75,3.69,0,.47-.13,3.05-.4,7.74-.27,4.69-.4,9.14-.4,13.36,0,3.95.2,7.22.6,9.82.4,2.59,1.01,4.73,1.84,6.41Zm-.35-55.51c0,1.68-.59,3.08-1.77,4.2-1.18,1.12-2.67,1.68-4.47,1.68-1.56,0-2.8-.44-3.72-1.33-.91-.88-1.37-2.08-1.37-3.58,0-1.65.59-3.06,1.77-4.22,1.18-1.16,2.61-1.75,4.29-1.75,1.53,0,2.79.47,3.78,1.42.99.94,1.48,2.14,1.48,3.58Z"/>
      <path class="cls-2" d="m568.35,253c-.06,3.24-.14,6.73-.24,10.46-.1,3.73-.16,5.83-.16,6.3,0,3.83.18,6.94.53,9.33s.91,4.38,1.68,5.97c-1.24.65-2.37,1.13-3.41,1.44-1.03.31-2.05.46-3.05.46-1.36,0-2.29-.38-2.79-1.15-.5-.77-.75-2.37-.75-4.82,0-.53.16-3.27.46-8.2.31-4.94.46-9.6.46-14,0-4.16-.16-7.37-.49-9.64-.33-2.27-.86-4.3-1.59-6.1.65-.21,1.31-.37,1.97-.49.66-.12,1.31-.18,1.92-.18,1.56,0,2.8.44,3.72,1.3.91.87,1.43,2.1,1.55,3.69,2.21-1.59,4.56-2.82,7.03-3.69,2.48-.87,4.92-1.3,7.34-1.3,2.95,0,5.59.64,7.94,1.92,2.34,1.28,4.13,3.06,5.37,5.33.86,1.56,1.47,3.38,1.84,5.46.37,2.08.55,5.24.55,9.49,0,.44-.02,1.49-.07,3.14-.04,1.65-.07,3.08-.07,4.29,0,3.04.2,5.65.6,7.83.4,2.18.99,3.89,1.79,5.13-1.39.68-2.59,1.18-3.6,1.5-1.02.33-1.94.49-2.76.49-1.39,0-2.35-.36-2.9-1.08-.55-.72-.82-2.09-.82-4.09,0-1.21.1-3.81.29-7.81.19-4,.29-7.39.29-10.19,0-5.34-.81-9.21-2.43-11.61-1.62-2.4-4.23-3.6-7.83-3.6-1.83,0-3.8.38-5.93,1.13-2.12.75-4.28,1.85-6.46,3.3Z"/>
      <path class="cls-2" d="m613.9,251.5c-.5,0-1.19.02-2.08.07-.88.04-1.46.07-1.72.07-1.21,0-2.06-.17-2.54-.51-.49-.34-.73-.92-.73-1.75,0-.38.07-.83.2-1.35.13-.52.35-1.1.64-1.75.24,0,.63.02,1.19.04.56.03,1,.04,1.33.04.77,0,1.99-.04,3.67-.13.21,0,.37-.01.49-.04,0-.32.01-.81.04-1.46.03-.65.04-1.12.04-1.42,0-2.3-.15-4.33-.44-6.08-.29-1.75-.75-3.29-1.37-4.62,1.27-.62,2.4-1.09,3.41-1.42,1-.32,1.86-.49,2.57-.49,1.21,0,2.09.38,2.63,1.13.54.75.82,1.98.82,3.69,0,.74-.13,3.05-.4,6.94-.09,1.44-.16,2.59-.22,3.45,1.71-.24,3.25-.41,4.62-.53,1.37-.12,2.6-.18,3.69-.18.97,0,1.67.18,2.1.53.43.35.64.93.64,1.72,0,.44-.13.99-.4,1.66-.27.66-.65,1.41-1.15,2.23-.77-.18-1.58-.31-2.43-.4-.86-.09-1.89-.13-3.1-.13-.21,0-.83.02-1.86.07-1.03.04-1.92.08-2.65.11-.27,4.6-.46,8.39-.57,11.37-.12,2.98-.18,5.41-.18,7.3,0,4.1.36,6.97,1.08,8.6.72,1.64,1.94,2.45,3.65,2.45.47,0,.97-.09,1.48-.27.52-.18,1.04-.46,1.57-.84.27.59.46,1.11.57,1.55.12.44.18.84.18,1.19,0,1.44-.6,2.63-1.79,3.56-1.19.93-2.75,1.39-4.67,1.39-3.18,0-5.55-1.05-7.1-3.16-1.55-2.11-2.32-5.34-2.32-9.71,0-1.24.15-4.52.44-9.84.29-5.32.52-9.69.66-13.11Z"/>
      <path class="cls-2" d="m671.62,277.64c.65.8,1.13,1.54,1.44,2.23.31.69.46,1.36.46,2.01,0,1.59-1.19,2.9-3.56,3.91-2.37,1.02-5.48,1.53-9.31,1.53-7.05,0-12.57-1.92-16.56-5.77-4-3.85-5.99-9.16-5.99-15.94s2.01-12.43,6.04-16.78c4.02-4.35,9.19-6.52,15.5-6.52,4.87,0,8.86,1.39,11.99,4.16,3.12,2.77,4.69,6.31,4.69,10.61,0,3.39-1.3,5.81-3.89,7.25-2.59,1.44-7,2.17-13.22,2.17-2.33,0-4.65-.08-6.97-.24-2.31-.16-4.61-.4-6.88-.73v.62c0,4.6,1.36,8.24,4.07,10.92,2.71,2.68,6.4,4.02,11.06,4.02,2.18,0,4.2-.29,6.06-.86,1.86-.57,3.55-1.44,5.09-2.59Zm-25.74-17.38c1.95.33,4.09.57,6.43.73,2.34.16,4.87.24,7.59.24,3.69,0,6.15-.34,7.39-1.02,1.24-.68,1.86-1.9,1.86-3.67,0-2.68-.93-4.81-2.79-6.37-1.86-1.56-4.39-2.34-7.61-2.34-3.42,0-6.27,1.09-8.54,3.27-2.27,2.18-3.72,5.23-4.33,9.16Z"/>
      <path class="cls-2" d="m692.89,252.16c2.21-3.1,4.32-5.4,6.32-6.92,2-1.52,3.98-2.28,5.93-2.28,1.65,0,3.06.52,4.22,1.57s1.75,2.34,1.75,3.87c0,1-.33,1.98-.99,2.94-.66.96-1.66,1.91-2.99,2.85-.47-1.3-1.05-2.26-1.75-2.87s-1.53-.93-2.5-.93c-1.44,0-2.96.72-4.56,2.14-1.59,1.43-3.16,3.49-4.69,6.17-.15,1.33-.27,2.68-.35,4.05-.09,1.37-.13,2.7-.13,4,0,4.42.24,8.11.73,11.06.49,2.95,1.25,5.37,2.28,7.25-1.18.62-2.34,1.09-3.47,1.42-1.14.33-2.25.49-3.34.49-1.44,0-2.44-.36-2.99-1.08-.55-.72-.82-2.17-.82-4.36,0-.8.16-3.85.46-9.18.31-5.32.46-10.27.46-14.84,0-3.74-.15-6.62-.44-8.62-.29-2-.78-3.77-1.46-5.31.59-.21,1.17-.36,1.75-.46.57-.1,1.17-.16,1.79-.16,1.71,0,2.98.41,3.8,1.22.82.81,1.24,2.06,1.24,3.74,0,.38-.02.91-.07,1.57-.04.66-.11,1.55-.2,2.68Z"/>
      <path class="cls-2" d="m752.95,284.62c-1.15.74-2.2,1.3-3.14,1.68-.94.38-1.77.57-2.48.57-1.27,0-2.19-.39-2.76-1.17-.58-.78-.91-2.04-1-3.78-2.21,1.89-4.4,3.29-6.57,4.2-2.17.91-4.37,1.37-6.61,1.37-4.42,0-7.99-1.24-10.7-3.72-2.71-2.48-4.07-5.73-4.07-9.77,0-4.57,1.86-8.23,5.6-10.99,3.73-2.76,8.75-4.14,15.06-4.14,1.03,0,2.13.04,3.29.11,1.16.07,2.41.18,3.74.33.06-.27.1-.54.11-.82.01-.28.02-.61.02-1,0-3.07-.86-5.4-2.59-7.01-1.73-1.61-4.22-2.41-7.5-2.41-2.71,0-4.95.45-6.7,1.35-1.75.9-3.18,2.29-4.27,4.18-1.06-.27-1.87-.72-2.41-1.37-.55-.65-.82-1.49-.82-2.52,0-2.15,1.36-3.93,4.09-5.33,2.73-1.4,6.29-2.1,10.68-2.1,5.4,0,9.44,1.3,12.14,3.91,2.7,2.61,4.05,6.51,4.05,11.7,0,.97-.04,2.67-.13,5.09-.09,2.42-.13,4.36-.13,5.84,0,4.07.24,7.34.73,9.82.49,2.48,1.27,4.47,2.37,5.97Zm-9.73-19.68c-1.36-.21-2.57-.36-3.65-.46-1.08-.1-2-.15-2.76-.15-4.57,0-8.02.76-10.35,2.28-2.33,1.52-3.49,3.78-3.49,6.79,0,2.42.81,4.32,2.43,5.71,1.62,1.39,3.86,2.08,6.72,2.08,2.15,0,4.16-.41,6.04-1.22,1.87-.81,3.59-2.03,5.15-3.65-.06-1.47-.1-2.68-.11-3.6-.01-.93-.02-1.82-.02-2.68,0-.53.01-1.36.04-2.5.03-1.14.03-2,0-2.59Z"/>
      <path class="cls-2" d="m790.72,251.28c-1.15-.71-2.27-1.22-3.36-1.53-1.09-.31-2.3-.46-3.63-.46-4.48,0-8.21,1.61-11.19,4.82-2.98,3.21-4.47,7.28-4.47,12.21,0,4.45,1.32,7.98,3.96,10.59,2.64,2.61,6.21,3.91,10.73,3.91,1.95,0,3.72-.27,5.31-.8s3.08-1.36,4.47-2.48c.53.74.94,1.44,1.22,2.12.28.68.42,1.33.42,1.95,0,1.86-1.08,3.33-3.23,4.42s-5.07,1.64-8.76,1.64c-6.46,0-11.71-1.85-15.74-5.55-4.04-3.7-6.06-8.51-6.06-14.44,0-7.19,2.45-13.24,7.34-18.13,4.89-4.89,10.84-7.34,17.82-7.34,2.56,0,4.47.37,5.73,1.11,1.25.74,1.88,1.86,1.88,3.36,0,.77-.19,1.51-.58,2.23-.38.72-1,1.51-1.86,2.37Zm-11.06,33.7c-1.09,1.18-1.92,2.23-2.5,3.14-.57.91-.86,1.65-.86,2.21,0,.77.68,1.33,2.03,1.68.18.06.31.1.4.13,1.71.44,2.88,1.02,3.52,1.75.63.72.95,1.76.95,3.12,0,2.62-1.03,4.84-3.1,6.63-2.06,1.8-4.6,2.7-7.61,2.7-1.03,0-1.81-.2-2.32-.6-.52-.4-.77-1.01-.77-1.84,0-.21.04-.47.11-.8.07-.33.2-.81.37-1.46.41.12.79.21,1.13.27.34.06.66.09.95.09,1.53,0,2.79-.37,3.78-1.11.99-.74,1.48-1.64,1.48-2.7,0-.74-.19-1.28-.58-1.64s-1.28-.65-2.7-.88c-1.59-.29-2.61-.65-3.05-1.06-.44-.41-.66-1.03-.66-1.86s.41-1.89,1.22-3.1c.81-1.21,2.19-2.77,4.13-4.69h4.07Z"/>
      <path class="cls-2" d="m821.95,288.07c-6.84,0-12.41-2.11-16.72-6.32-4.3-4.22-6.46-9.63-6.46-16.23,0-7.02,2.3-12.72,6.9-17.09,4.6-4.38,10.57-6.57,17.91-6.57,6.63,0,12.1,2.08,16.39,6.24,4.29,4.16,6.44,9.42,6.44,15.79,0,2.57-.41,5.1-1.22,7.61-.81,2.51-1.91,4.64-3.3,6.41-2.62,3.39-5.59,5.93-8.91,7.63-3.32,1.7-6.99,2.54-11.03,2.54Zm.53-6.37c4.78,0,8.69-1.6,11.74-4.8,3.05-3.2,4.58-7.3,4.58-12.32s-1.5-8.88-4.49-11.96c-2.99-3.08-6.88-4.62-11.65-4.62s-8.79,1.6-11.79,4.8c-2.99,3.2-4.49,7.44-4.49,12.72,0,4.69,1.52,8.56,4.55,11.61,3.04,3.05,6.89,4.58,11.54,4.58Zm-5.22-47.99c-1.53,0-3.05.59-4.56,1.77-1.5,1.18-2.34,1.77-2.52,1.77-.41,0-.72-.15-.93-.44-.21-.29-.31-.75-.31-1.37,0-2.09.99-4.04,2.96-5.84,1.97-1.8,4.19-2.7,6.63-2.7,1.44,0,3.44.41,5.97,1.22,2.54.81,4.32,1.22,5.35,1.22,1.44,0,2.84-.52,4.18-1.57,1.34-1.05,2.09-1.57,2.23-1.57.38,0,.68.13.88.4s.31.65.31,1.15c0,2.3-.86,4.29-2.56,5.97-1.71,1.68-3.76,2.52-6.15,2.52-1.44,0-3.44-.42-5.99-1.26-2.55-.84-4.39-1.26-5.51-1.26Z"/>
      <path class="cls-2" d="m886.65,277.64c.65.8,1.13,1.54,1.44,2.23.31.69.46,1.36.46,2.01,0,1.59-1.19,2.9-3.56,3.91-2.37,1.02-5.48,1.53-9.31,1.53-7.05,0-12.57-1.92-16.56-5.77-4-3.85-5.99-9.16-5.99-15.94s2.01-12.43,6.04-16.78c4.02-4.35,9.19-6.52,15.5-6.52,4.87,0,8.86,1.39,11.99,4.16,3.13,2.77,4.69,6.31,4.69,10.61,0,3.39-1.3,5.81-3.89,7.25-2.59,1.44-7,2.17-13.22,2.17-2.33,0-4.65-.08-6.97-.24-2.32-.16-4.61-.4-6.88-.73v.62c0,4.6,1.36,8.24,4.07,10.92,2.71,2.68,6.4,4.02,11.06,4.02,2.18,0,4.2-.29,6.06-.86,1.86-.57,3.55-1.44,5.09-2.59Zm-25.74-17.38c1.95.33,4.09.57,6.43.73,2.34.16,4.87.24,7.59.24,3.68,0,6.15-.34,7.39-1.02,1.24-.68,1.86-1.9,1.86-3.67,0-2.68-.93-4.81-2.79-6.37-1.86-1.56-4.39-2.34-7.61-2.34-3.42,0-6.26,1.09-8.54,3.27-2.27,2.18-3.72,5.23-4.33,9.16Z"/>
      <path class="cls-2" d="m900.58,279.89c1.06.56,2.08.97,3.05,1.24s1.92.4,2.83.4c2.12,0,3.83-.51,5.13-1.53,1.3-1.02,1.95-2.35,1.95-4,0-1.3-.35-2.51-1.06-3.63-.71-1.12-2.03-2.48-3.98-4.07-.32-.24-.77-.59-1.33-1.06-4.98-4.13-7.48-7.78-7.48-10.97,0-1.3.25-2.59.75-3.89.5-1.3,1.24-2.54,2.21-3.72,1.86-2.21,4.03-3.9,6.52-5.06,2.49-1.16,5.18-1.75,8.07-1.75,1.42,0,2.49.27,3.23.82.74.55,1.1,1.33,1.1,2.37,0,.5-.13,1.1-.4,1.79-.27.69-.71,1.57-1.33,2.63-.79-.32-1.55-.57-2.25-.73-.71-.16-1.4-.24-2.08-.24-2.45,0-4.43.6-5.95,1.79-1.52,1.19-2.28,2.74-2.28,4.62,0,2.06,2.05,4.85,6.15,8.36,1.03.88,1.81,1.58,2.34,2.08,1.74,1.53,3.02,3.04,3.85,4.53.83,1.49,1.24,3.02,1.24,4.58,0,3.69-1.63,6.86-4.89,9.53s-7.22,4-11.88,4c-1.62,0-2.87-.33-3.74-.97-.87-.65-1.3-1.56-1.3-2.74,0-.56.12-1.18.35-1.86.23-.68.62-1.52,1.15-2.52Z"/>
      <path class="cls-2" d="m988.82,277.64c.65.8,1.13,1.54,1.44,2.23.31.69.46,1.36.46,2.01,0,1.59-1.19,2.9-3.56,3.91-2.37,1.02-5.48,1.53-9.31,1.53-7.05,0-12.57-1.92-16.56-5.77-4-3.85-5.99-9.16-5.99-15.94s2.01-12.43,6.04-16.78c4.02-4.35,9.19-6.52,15.5-6.52,4.87,0,8.86,1.39,11.99,4.16,3.13,2.77,4.69,6.31,4.69,10.61,0,3.39-1.3,5.81-3.89,7.25-2.59,1.44-7,2.17-13.22,2.17-2.33,0-4.65-.08-6.97-.24-2.32-.16-4.61-.4-6.88-.73v.62c0,4.6,1.36,8.24,4.07,10.92,2.71,2.68,6.4,4.02,11.06,4.02,2.18,0,4.2-.29,6.06-.86,1.86-.57,3.55-1.44,5.09-2.59Zm-25.74-17.38c1.95.33,4.09.57,6.43.73,2.34.16,4.87.24,7.59.24,3.68,0,6.15-.34,7.39-1.02,1.24-.68,1.86-1.9,1.86-3.67,0-2.68-.93-4.81-2.79-6.37-1.86-1.56-4.39-2.34-7.61-2.34-3.42,0-6.26,1.09-8.54,3.27-2.27,2.18-3.72,5.23-4.33,9.16Z"/>
      <path class="cls-2" d="m117.49,352.06c-.45,0-1.06.02-1.85.06s-1.3.06-1.53.06c-1.07,0-1.83-.15-2.26-.45s-.65-.82-.65-1.55c0-.34.06-.74.18-1.2s.31-.98.57-1.55c.21,0,.56.01,1.06.04.5.03.89.04,1.18.04.68,0,1.77-.04,3.26-.12.18,0,.33-.01.43-.04,0-.29.01-.72.04-1.3.03-.58.04-1,.04-1.26,0-2.04-.13-3.85-.39-5.41-.26-1.56-.67-2.93-1.22-4.11,1.13-.55,2.14-.97,3.03-1.26.89-.29,1.65-.43,2.28-.43,1.07,0,1.85.33,2.34,1,.48.67.73,1.76.73,3.28,0,.66-.12,2.71-.35,6.17-.08,1.28-.14,2.31-.2,3.07,1.52-.21,2.89-.37,4.11-.47s2.31-.16,3.28-.16c.86,0,1.49.16,1.87.47.38.31.57.83.57,1.53,0,.39-.12.88-.35,1.47s-.58,1.25-1.02,1.99c-.68-.16-1.4-.28-2.16-.35-.76-.08-1.68-.12-2.75-.12-.18,0-.73.02-1.65.06-.92.04-1.7.07-2.36.1-.24,4.09-.41,7.46-.51,10.1-.11,2.65-.16,4.81-.16,6.49,0,3.64.32,6.19.96,7.65.64,1.45,1.72,2.18,3.24,2.18.42,0,.86-.08,1.32-.24.46-.16.92-.41,1.4-.75.24.52.41.98.51,1.38.1.39.16.75.16,1.06,0,1.28-.53,2.34-1.59,3.16s-2.44,1.24-4.15,1.24c-2.83,0-4.93-.94-6.31-2.81-1.38-1.87-2.06-4.75-2.06-8.63,0-1.1.13-4.02.39-8.75.26-4.73.46-8.62.59-11.66Z"/>
      <path class="cls-2" d="m148.16,352.65c1.97-2.75,3.84-4.8,5.62-6.15,1.78-1.35,3.54-2.02,5.27-2.02,1.47,0,2.72.46,3.75,1.4,1.03.93,1.55,2.08,1.55,3.44,0,.89-.29,1.76-.88,2.61s-1.47,1.7-2.65,2.54c-.42-1.15-.94-2-1.55-2.56-.62-.55-1.36-.83-2.22-.83-1.28,0-2.63.64-4.05,1.91s-2.8,3.1-4.17,5.48c-.13,1.18-.24,2.38-.31,3.6s-.12,2.41-.12,3.56c0,3.93.22,7.21.65,9.83s1.11,4.77,2.02,6.45c-1.05.55-2.08.97-3.09,1.26-1.01.29-2,.43-2.97.43-1.28,0-2.17-.32-2.65-.96-.49-.64-.73-1.93-.73-3.87,0-.71.14-3.43.41-8.16s.41-9.13.41-13.19c0-3.33-.13-5.88-.39-7.67-.26-1.78-.7-3.35-1.3-4.72.52-.18,1.04-.32,1.55-.41s1.04-.14,1.59-.14c1.52,0,2.65.36,3.38,1.08.73.72,1.1,1.83,1.1,3.32,0,.34-.02.81-.06,1.4s-.1,1.38-.18,2.38Z"/>
      <path class="cls-2" d="m201.54,381.5c-1.02.66-1.95,1.15-2.79,1.49-.84.34-1.57.51-2.2.51-1.13,0-1.95-.35-2.46-1.04s-.81-1.82-.88-3.36c-1.97,1.68-3.91,2.92-5.84,3.73-1.93.81-3.89,1.22-5.88,1.22-3.93,0-7.1-1.1-9.51-3.3-2.41-2.2-3.62-5.1-3.62-8.69,0-4.06,1.66-7.32,4.97-9.77,3.31-2.45,7.78-3.68,13.39-3.68.92,0,1.89.03,2.93.1,1.03.07,2.14.16,3.32.29.05-.24.08-.48.1-.73.01-.25.02-.54.02-.88,0-2.73-.77-4.8-2.3-6.23s-3.75-2.14-6.66-2.14c-2.41,0-4.4.4-5.96,1.2-1.56.8-2.82,2.04-3.79,3.72-.94-.24-1.66-.64-2.14-1.22-.49-.58-.73-1.32-.73-2.24,0-1.91,1.21-3.49,3.64-4.74,2.42-1.25,5.59-1.87,9.49-1.87,4.8,0,8.39,1.16,10.79,3.48s3.6,5.79,3.6,10.4c0,.86-.04,2.37-.12,4.52s-.12,3.88-.12,5.19c0,3.62.22,6.53.65,8.73s1.13,3.97,2.1,5.31Zm-8.65-17.49c-1.21-.18-2.29-.32-3.24-.41-.96-.09-1.78-.14-2.46-.14-4.06,0-7.13.68-9.2,2.02-2.07,1.35-3.11,3.36-3.11,6.03,0,2.15.72,3.84,2.16,5.07,1.44,1.23,3.43,1.85,5.98,1.85,1.91,0,3.7-.36,5.37-1.08,1.66-.72,3.19-1.8,4.58-3.24-.05-1.31-.09-2.38-.1-3.2-.01-.83-.02-1.62-.02-2.38,0-.47.01-1.21.04-2.22.03-1.01.03-1.78,0-2.3Z"/>
      <path class="cls-2" d="m218.06,353.39c-.05,2.88-.12,5.98-.22,9.3-.09,3.31-.14,5.18-.14,5.6,0,3.41.16,6.17.47,8.3s.81,3.89,1.49,5.31c-1.1.58-2.11,1-3.03,1.28-.92.28-1.82.41-2.71.41-1.21,0-2.03-.34-2.48-1.02-.45-.68-.67-2.11-.67-4.29,0-.47.14-2.9.41-7.29s.41-8.54.41-12.44c0-3.7-.14-6.55-.43-8.57-.29-2.02-.76-3.83-1.42-5.43.58-.18,1.16-.33,1.75-.43s1.16-.16,1.71-.16c1.39,0,2.49.39,3.3,1.16.81.77,1.27,1.87,1.38,3.28,1.97-1.42,4.05-2.51,6.25-3.28s4.38-1.16,6.53-1.16c2.62,0,4.97.57,7.06,1.71s3.68,2.72,4.78,4.74c.76,1.39,1.3,3.01,1.63,4.86.33,1.85.49,4.66.49,8.43,0,.39-.02,1.32-.06,2.79s-.06,2.74-.06,3.81c0,2.7.18,5.02.53,6.96s.88,3.46,1.59,4.56c-1.23.6-2.3,1.05-3.2,1.34s-1.72.43-2.46.43c-1.23,0-2.09-.32-2.58-.96-.49-.64-.73-1.85-.73-3.64,0-1.07.08-3.39.26-6.94.17-3.55.26-6.57.26-9.06,0-4.74-.72-8.18-2.16-10.32-1.44-2.14-3.76-3.2-6.96-3.2-1.63,0-3.38.33-5.27,1s-3.8,1.64-5.74,2.93Z"/>
      <path class="cls-2" d="m256.03,377.3c.94.5,1.85.86,2.71,1.1s1.7.35,2.52.35c1.89,0,3.41-.45,4.56-1.36,1.15-.9,1.73-2.09,1.73-3.56,0-1.15-.31-2.23-.94-3.22s-1.81-2.2-3.54-3.62c-.29-.21-.68-.52-1.18-.94-4.43-3.67-6.64-6.92-6.64-9.75,0-1.15.22-2.31.67-3.46.45-1.15,1.1-2.25,1.97-3.3,1.65-1.97,3.58-3.47,5.8-4.5,2.21-1.03,4.61-1.55,7.17-1.55,1.26,0,2.21.24,2.87.73.65.48.98,1.19.98,2.1,0,.45-.12.98-.35,1.59s-.63,1.4-1.18,2.34c-.71-.29-1.38-.5-2-.65s-1.25-.22-1.85-.22c-2.18,0-3.94.53-5.29,1.59-1.35,1.06-2.02,2.43-2.02,4.11,0,1.84,1.82,4.31,5.46,7.43.92.79,1.61,1.4,2.08,1.85,1.55,1.36,2.69,2.71,3.42,4.03.73,1.32,1.1,2.68,1.1,4.07,0,3.28-1.45,6.1-4.34,8.47-2.9,2.37-6.42,3.56-10.56,3.56-1.44,0-2.55-.29-3.32-.86-.77-.58-1.16-1.39-1.16-2.44,0-.5.1-1.05.31-1.65.21-.6.55-1.35,1.02-2.24Z"/>
      <path class="cls-2" d="m285.91,351.39c-.58,0-1.25.01-2,.04-.76.03-1.25.04-1.45.04-.73,0-1.3-.2-1.69-.59s-.59-.94-.59-1.65c0-.39.07-.8.2-1.22.13-.42.31-.83.55-1.22.26,0,.6.01,1,.04.41.03.69.04.85.04h3.07v-.86c0-6.45,1.21-11.39,3.64-14.82,2.42-3.43,5.9-5.15,10.44-5.15,1.81,0,3.27.37,4.38,1.12,1.11.75,1.67,1.71,1.67,2.89,0,.81-.3,1.56-.9,2.24-.6.68-1.45,1.27-2.56,1.77-.6-.71-1.25-1.25-1.93-1.61-.68-.37-1.39-.55-2.12-.55-2.1,0-3.62,1.05-4.58,3.16-.96,2.11-1.43,5.48-1.43,10.12v1.3c.92-.11,1.97-.18,3.15-.24s2.41-.08,3.7-.08c.84,0,1.47.2,1.91.61s.65,1.03.65,1.87c0,.29-.06.64-.18,1.04s-.37,1.05-.77,1.95c-.6-.24-1.38-.4-2.34-.49-.96-.09-2.43-.14-4.42-.14-.47,0-.83,0-1.08.02-.25.01-.48.03-.69.06,0,5.69.09,11.55.28,17.57.18,6.03.28,9.21.28,9.55,0,2.12-.24,3.55-.71,4.29s-1.31,1.1-2.52,1.1c-.84,0-1.74-.16-2.71-.47-.97-.31-2.06-.8-3.26-1.45.81-1.55,1.41-3.85,1.79-6.92.38-3.07.57-7.16.57-12.27,0-1.86-.05-5.08-.16-9.67v-1.42Z"/>
      <path class="cls-2" d="m326.56,384.57c-6.08,0-11.03-1.87-14.86-5.62-3.83-3.75-5.74-8.56-5.74-14.43,0-6.24,2.04-11.3,6.13-15.19,4.09-3.89,9.4-5.84,15.92-5.84,5.9,0,10.75,1.85,14.57,5.54,3.81,3.7,5.72,8.37,5.72,14.03,0,2.28-.36,4.53-1.08,6.76-.72,2.23-1.7,4.13-2.93,5.7-2.33,3.01-4.97,5.27-7.92,6.78-2.95,1.51-6.22,2.26-9.81,2.26Zm.47-5.66c4.25,0,7.73-1.42,10.44-4.27s4.07-6.49,4.07-10.95-1.33-7.89-3.99-10.63c-2.66-2.74-6.11-4.11-10.36-4.11s-7.82,1.42-10.48,4.27c-2.66,2.84-3.99,6.61-3.99,11.3,0,4.17,1.35,7.61,4.05,10.32,2.7,2.71,6.12,4.07,10.26,4.07Z"/>
      <path class="cls-2" d="m363.44,352.65c1.97-2.75,3.84-4.8,5.62-6.15,1.78-1.35,3.54-2.02,5.27-2.02,1.47,0,2.72.46,3.75,1.4,1.03.93,1.55,2.08,1.55,3.44,0,.89-.29,1.76-.88,2.61s-1.47,1.7-2.65,2.54c-.42-1.15-.94-2-1.55-2.56-.62-.55-1.36-.83-2.22-.83-1.28,0-2.63.64-4.05,1.91s-2.8,3.1-4.17,5.48c-.13,1.18-.24,2.38-.31,3.6s-.12,2.41-.12,3.56c0,3.93.22,7.21.65,9.83s1.11,4.77,2.02,6.45c-1.05.55-2.08.97-3.09,1.26-1.01.29-2,.43-2.97.43-1.28,0-2.17-.32-2.65-.96-.49-.64-.73-1.93-.73-3.87,0-.71.14-3.43.41-8.16s.41-9.13.41-13.19c0-3.33-.13-5.88-.39-7.67-.26-1.78-.7-3.35-1.3-4.72.52-.18,1.04-.32,1.55-.41s1.04-.14,1.59-.14c1.52,0,2.65.36,3.38,1.08.73.72,1.1,1.83,1.1,3.32,0,.34-.02.81-.06,1.4s-.1,1.38-.18,2.38Z"/>
      <path class="cls-2" d="m384.94,344.63c.6-.21,1.18-.36,1.73-.45s1.13-.14,1.73-.14c1.42,0,2.52.37,3.32,1.12.8.75,1.25,1.83,1.36,3.24,2.07-1.42,4.09-2.46,6.07-3.15,1.98-.68,3.95-1.02,5.92-1.02s3.72.37,5.41,1.12,3.27,1.87,4.74,3.36c2.07-1.49,4.28-2.66,6.62-3.5,2.35-.84,4.59-1.26,6.74-1.26,4.69,0,8.29,1.36,10.79,4.09,2.5,2.73,3.75,6.63,3.75,11.72,0,.73-.04,2.19-.12,4.36s-.12,4-.12,5.46c0,3.38.16,5.98.47,7.8s.83,3.3,1.53,4.42c-1.31.63-2.41,1.08-3.28,1.36-.88.28-1.66.41-2.34.41-1.23,0-2.08-.31-2.54-.92-.46-.62-.69-1.82-.69-3.6,0-1.62.1-4.23.29-7.82s.29-6.34.29-8.26c0-4.72-.71-8.13-2.14-10.22-1.43-2.1-3.73-3.15-6.9-3.15-1.73,0-3.4.26-5.01.77s-3.35,1.36-5.21,2.54c.26,1.6.45,3.27.57,5.01s.18,4.17.18,7.29v4.13c0,3.62.13,6.31.39,8.08.26,1.77.72,3.26,1.38,4.46-1.15.6-2.18,1.03-3.07,1.3-.89.26-1.76.39-2.59.39-1.18,0-2-.33-2.46-.98-.46-.66-.69-1.86-.69-3.62,0-.94.07-3.07.22-6.39.14-3.31.22-6.15.22-8.51,0-5.56-.62-9.33-1.87-11.32-1.25-1.99-3.39-2.99-6.43-2.99-1.6,0-3.22.31-4.87.92-1.65.62-3.35,1.54-5.11,2.77-.05,2.17-.12,4.96-.22,8.35-.09,3.39-.14,5.5-.14,6.31,0,3.49.16,6.3.47,8.43s.81,3.91,1.49,5.33c-1.1.58-2.11,1-3.03,1.28-.92.28-1.82.41-2.71.41-1.21,0-2.03-.34-2.48-1.02-.45-.68-.67-2.11-.67-4.29,0-.63.15-3.23.45-7.8.3-4.57.45-8.84.45-12.8,0-3.12-.16-5.73-.47-7.82s-.8-3.84-1.45-5.23Z"/>
      <path class="cls-2" d="m485.35,381.5c-1.02.66-1.95,1.15-2.79,1.49-.84.34-1.57.51-2.2.51-1.13,0-1.95-.35-2.46-1.04s-.81-1.82-.88-3.36c-1.97,1.68-3.91,2.92-5.84,3.73-1.93.81-3.89,1.22-5.88,1.22-3.93,0-7.1-1.1-9.51-3.3-2.41-2.2-3.62-5.1-3.62-8.69,0-4.06,1.66-7.32,4.97-9.77,3.31-2.45,7.78-3.68,13.39-3.68.92,0,1.89.03,2.93.1,1.03.07,2.14.16,3.32.29.05-.24.08-.48.1-.73.01-.25.02-.54.02-.88,0-2.73-.77-4.8-2.3-6.23s-3.75-2.14-6.66-2.14c-2.41,0-4.4.4-5.96,1.2-1.56.8-2.82,2.04-3.79,3.72-.94-.24-1.66-.64-2.14-1.22-.49-.58-.73-1.32-.73-2.24,0-1.91,1.21-3.49,3.64-4.74,2.42-1.25,5.59-1.87,9.49-1.87,4.8,0,8.39,1.16,10.79,3.48s3.6,5.79,3.6,10.4c0,.86-.04,2.37-.12,4.52s-.12,3.88-.12,5.19c0,3.62.22,6.53.65,8.73s1.13,3.97,2.1,5.31Zm-8.65-17.49c-1.21-.18-2.29-.32-3.24-.41-.96-.09-1.78-.14-2.46-.14-4.06,0-7.13.68-9.2,2.02-2.07,1.35-3.11,3.36-3.11,6.03,0,2.15.72,3.84,2.16,5.07,1.44,1.23,3.43,1.85,5.98,1.85,1.91,0,3.7-.36,5.37-1.08,1.66-.72,3.19-1.8,4.58-3.24-.05-1.31-.09-2.38-.1-3.2-.01-.83-.02-1.62-.02-2.38,0-.47.01-1.21.04-2.22.03-1.01.03-1.78,0-2.3Z"/>
      <path class="cls-2" d="m518.92,351.86c-1.02-.63-2.02-1.08-2.99-1.36-.97-.28-2.04-.41-3.22-.41-3.98,0-7.3,1.43-9.95,4.29-2.65,2.86-3.97,6.47-3.97,10.85,0,3.96,1.17,7.1,3.52,9.42,2.35,2.32,5.52,3.48,9.53,3.48,1.73,0,3.3-.24,4.72-.71s2.74-1.21,3.97-2.2c.47.66.83,1.28,1.08,1.89.25.6.37,1.18.37,1.73,0,1.65-.96,2.96-2.87,3.93-1.91.97-4.51,1.45-7.78,1.45-5.74,0-10.41-1.64-14-4.93-3.59-3.29-5.39-7.57-5.39-12.84,0-6.4,2.17-11.77,6.53-16.12,4.35-4.35,9.63-6.53,15.84-6.53,2.28,0,3.98.33,5.09.98,1.11.66,1.67,1.65,1.67,2.99,0,.68-.17,1.34-.51,1.99-.34.64-.89,1.34-1.65,2.1Zm-9.83,29.96c-.97,1.05-1.71,1.98-2.22,2.79-.51.81-.77,1.47-.77,1.97,0,.68.6,1.18,1.81,1.49.16.05.28.09.35.12,1.52.39,2.56.91,3.13,1.55.56.64.85,1.57.85,2.77,0,2.33-.92,4.3-2.75,5.9-1.84,1.6-4.09,2.4-6.76,2.4-.92,0-1.61-.18-2.06-.53-.46-.35-.69-.9-.69-1.63,0-.18.03-.42.1-.71.07-.29.18-.72.33-1.3.37.1.7.18,1,.24.3.05.58.08.85.08,1.36,0,2.48-.33,3.36-.98.88-.66,1.32-1.45,1.32-2.4,0-.66-.17-1.14-.51-1.45-.34-.31-1.14-.58-2.4-.79-1.42-.26-2.32-.58-2.71-.94-.39-.37-.59-.92-.59-1.65s.36-1.68,1.08-2.75c.72-1.08,1.95-2.46,3.68-4.17h3.62Z"/>
      <path class="cls-2" d="m546.67,384.57c-6.08,0-11.03-1.87-14.86-5.62-3.83-3.75-5.74-8.56-5.74-14.43,0-6.24,2.04-11.3,6.13-15.19s9.4-5.84,15.92-5.84c5.9,0,10.75,1.85,14.57,5.54s5.72,8.37,5.72,14.03c0,2.28-.36,4.53-1.08,6.76-.72,2.23-1.7,4.13-2.93,5.7-2.33,3.01-4.97,5.27-7.92,6.78-2.95,1.51-6.22,2.26-9.81,2.26Zm.47-5.66c4.25,0,7.73-1.42,10.44-4.27s4.07-6.49,4.07-10.95-1.33-7.89-3.99-10.63c-2.66-2.74-6.11-4.11-10.36-4.11s-7.82,1.42-10.48,4.27c-2.66,2.84-3.99,6.61-3.99,11.3,0,4.17,1.35,7.61,4.05,10.32,2.7,2.71,6.12,4.07,10.26,4.07Zm-4.64-42.65c-1.36,0-2.71.52-4.05,1.57s-2.08,1.57-2.24,1.57c-.37,0-.64-.13-.83-.39-.18-.26-.28-.67-.28-1.22,0-1.86.88-3.59,2.63-5.19,1.76-1.6,3.72-2.4,5.9-2.4,1.28,0,3.05.36,5.31,1.08,2.25.72,3.84,1.08,4.76,1.08,1.28,0,2.52-.46,3.72-1.4,1.19-.93,1.85-1.4,1.99-1.4.34,0,.6.12.79.35.18.24.28.58.28,1.02,0,2.04-.76,3.81-2.28,5.31-1.52,1.49-3.34,2.24-5.46,2.24-1.28,0-3.06-.37-5.33-1.12-2.27-.75-3.9-1.12-4.89-1.12Z"/>
      <path class="cls-2" d="m604.19,375.29c.58.71,1,1.37,1.28,1.99s.41,1.21.41,1.79c0,1.42-1.06,2.58-3.16,3.48-2.11.9-4.87,1.36-8.28,1.36-6.26,0-11.17-1.71-14.72-5.13-3.55-3.42-5.33-8.14-5.33-14.17s1.79-11.05,5.37-14.92,8.17-5.8,13.78-5.8c4.32,0,7.88,1.23,10.65,3.7,2.78,2.46,4.17,5.61,4.17,9.44,0,3.01-1.15,5.16-3.46,6.45-2.31,1.28-6.22,1.93-11.75,1.93-2.07,0-4.13-.07-6.19-.22-2.06-.14-4.1-.36-6.11-.65v.55c0,4.09,1.21,7.32,3.62,9.71,2.41,2.39,5.69,3.58,9.83,3.58,1.94,0,3.73-.26,5.39-.77s3.16-1.28,4.52-2.3Zm-22.88-15.45c1.73.29,3.64.5,5.72.65s4.33.22,6.74.22c3.28,0,5.46-.3,6.57-.9s1.65-1.69,1.65-3.26c0-2.39-.83-4.27-2.48-5.66s-3.91-2.08-6.76-2.08c-3.04,0-5.57.97-7.59,2.91-2.02,1.94-3.3,4.65-3.85,8.14Z"/>
      <path class="cls-2" d="m616.57,377.3c.94.5,1.85.86,2.71,1.1s1.7.35,2.52.35c1.89,0,3.41-.45,4.56-1.36,1.15-.9,1.73-2.09,1.73-3.56,0-1.15-.31-2.23-.94-3.22s-1.81-2.2-3.54-3.62c-.29-.21-.68-.52-1.18-.94-4.43-3.67-6.64-6.92-6.64-9.75,0-1.15.22-2.31.67-3.46.45-1.15,1.1-2.25,1.97-3.3,1.65-1.97,3.58-3.47,5.8-4.5,2.21-1.03,4.61-1.55,7.17-1.55,1.26,0,2.21.24,2.87.73.65.48.98,1.19.98,2.1,0,.45-.12.98-.35,1.59s-.63,1.4-1.18,2.34c-.71-.29-1.38-.5-2-.65s-1.25-.22-1.85-.22c-2.18,0-3.94.53-5.29,1.59-1.35,1.06-2.02,2.43-2.02,4.11,0,1.84,1.82,4.31,5.46,7.43.92.79,1.61,1.4,2.08,1.85,1.55,1.36,2.69,2.71,3.42,4.03.73,1.32,1.1,2.68,1.1,4.07,0,3.28-1.45,6.1-4.34,8.47-2.9,2.37-6.42,3.56-10.56,3.56-1.44,0-2.55-.29-3.32-.86-.77-.58-1.16-1.39-1.16-2.44,0-.5.1-1.05.31-1.65.21-.6.55-1.35,1.02-2.24Z"/>
      <path class="cls-2" d="m675.11,353.39c-.05,2.88-.12,5.98-.22,9.3-.09,3.31-.14,5.18-.14,5.6,0,3.41.16,6.17.47,8.3s.81,3.89,1.49,5.31c-1.1.58-2.11,1-3.03,1.28-.92.28-1.82.41-2.71.41-1.21,0-2.03-.34-2.48-1.02-.45-.68-.67-2.11-.67-4.29,0-.47.14-2.9.41-7.29s.41-8.54.41-12.44c0-3.7-.14-6.55-.43-8.57-.29-2.02-.76-3.83-1.42-5.43.58-.18,1.16-.33,1.75-.43s1.16-.16,1.71-.16c1.39,0,2.49.39,3.3,1.16.81.77,1.27,1.87,1.38,3.28,1.97-1.42,4.05-2.51,6.25-3.28s4.38-1.16,6.53-1.16c2.62,0,4.97.57,7.06,1.71s3.68,2.72,4.78,4.74c.76,1.39,1.3,3.01,1.63,4.86.33,1.85.49,4.66.49,8.43,0,.39-.02,1.32-.06,2.79s-.06,2.74-.06,3.81c0,2.7.18,5.02.53,6.96s.88,3.46,1.59,4.56c-1.23.6-2.3,1.05-3.2,1.34s-1.72.43-2.46.43c-1.23,0-2.09-.32-2.58-.96-.49-.64-.73-1.85-.73-3.64,0-1.07.08-3.39.26-6.94.17-3.55.26-6.57.26-9.06,0-4.74-.72-8.18-2.16-10.32-1.44-2.14-3.76-3.2-6.96-3.2-1.63,0-3.38.33-5.27,1s-3.8,1.64-5.74,2.93Z"/>
      <path class="cls-2" d="m731.05,384.57c-6.08,0-11.03-1.87-14.86-5.62-3.83-3.75-5.74-8.56-5.74-14.43,0-6.24,2.04-11.3,6.13-15.19,4.09-3.89,9.4-5.84,15.92-5.84,5.9,0,10.75,1.85,14.57,5.54,3.81,3.7,5.72,8.37,5.72,14.03,0,2.28-.36,4.53-1.08,6.76-.72,2.23-1.7,4.13-2.93,5.7-2.33,3.01-4.97,5.27-7.92,6.78-2.95,1.51-6.22,2.26-9.81,2.26Zm.47-5.66c4.25,0,7.73-1.42,10.44-4.27,2.71-2.84,4.07-6.49,4.07-10.95s-1.33-7.89-3.99-10.63c-2.66-2.74-6.11-4.11-10.36-4.11s-7.82,1.42-10.48,4.27c-2.66,2.84-3.99,6.61-3.99,11.3,0,4.17,1.35,7.61,4.05,10.32,2.7,2.71,6.12,4.07,10.26,4.07Z"/>
      <path class="cls-2" d="m812.24,375.29c.58.71,1,1.37,1.28,1.99s.41,1.21.41,1.79c0,1.42-1.06,2.58-3.16,3.48-2.11.9-4.87,1.36-8.28,1.36-6.26,0-11.17-1.71-14.72-5.13-3.55-3.42-5.33-8.14-5.33-14.17s1.79-11.05,5.37-14.92c3.58-3.87,8.17-5.8,13.78-5.8,4.32,0,7.88,1.23,10.65,3.7,2.78,2.46,4.17,5.61,4.17,9.44,0,3.01-1.15,5.16-3.46,6.45-2.31,1.28-6.23,1.93-11.75,1.93-2.07,0-4.13-.07-6.19-.22-2.06-.14-4.1-.36-6.11-.65v.55c0,4.09,1.2,7.32,3.62,9.71,2.41,2.39,5.69,3.58,9.83,3.58,1.94,0,3.73-.26,5.39-.77s3.16-1.28,4.52-2.3Zm-22.88-15.45c1.73.29,3.64.5,5.72.65s4.33.22,6.74.22c3.28,0,5.46-.3,6.57-.9s1.65-1.69,1.65-3.26c0-2.39-.83-4.27-2.48-5.66s-3.91-2.08-6.76-2.08c-3.04,0-5.57.97-7.59,2.91-2.02,1.94-3.3,4.65-3.85,8.14Z"/>
      <path class="cls-2" d="m824.62,377.3c.94.5,1.85.86,2.71,1.1s1.7.35,2.52.35c1.89,0,3.41-.45,4.56-1.36,1.15-.9,1.73-2.09,1.73-3.56,0-1.15-.31-2.23-.94-3.22s-1.81-2.2-3.54-3.62c-.29-.21-.68-.52-1.18-.94-4.43-3.67-6.64-6.92-6.64-9.75,0-1.15.22-2.31.67-3.46.45-1.15,1.1-2.25,1.97-3.3,1.65-1.97,3.58-3.47,5.8-4.5,2.21-1.03,4.61-1.55,7.17-1.55,1.26,0,2.21.24,2.87.73.65.48.98,1.19.98,2.1,0,.45-.12.98-.35,1.59s-.63,1.4-1.18,2.34c-.71-.29-1.38-.5-2-.65s-1.25-.22-1.85-.22c-2.18,0-3.94.53-5.29,1.59-1.35,1.06-2.02,2.43-2.02,4.11,0,1.84,1.82,4.31,5.46,7.43.92.79,1.61,1.4,2.08,1.85,1.55,1.36,2.69,2.71,3.42,4.03.73,1.32,1.1,2.68,1.1,4.07,0,3.28-1.45,6.1-4.34,8.47-2.9,2.37-6.42,3.56-10.56,3.56-1.44,0-2.55-.29-3.32-.86-.77-.58-1.16-1.39-1.16-2.44,0-.5.1-1.05.31-1.65.21-.6.55-1.35,1.02-2.24Z"/>
      <path class="cls-2" d="m858.98,380.4c-.03.55-.05,1.15-.06,1.81-.01.66-.02,1.6-.02,2.83,0,3.54.16,6.44.49,8.71.33,2.27.85,4.11,1.55,5.52-1.15.6-2.18,1.03-3.07,1.3-.89.26-1.76.39-2.59.39-1.15,0-1.97-.33-2.44-.98-.47-.66-.71-1.85-.71-3.58,0-1.84.18-6.36.53-13.56.35-7.21.53-13.51.53-18.91s-.16-9.8-.47-12.4-.83-4.75-1.53-6.43c.58-.18,1.14-.32,1.69-.41s1.14-.14,1.77-.14c1.34,0,2.38.38,3.15,1.14.76.76,1.17,1.82,1.22,3.18,1.91-1.39,3.98-2.46,6.19-3.2,2.21-.75,4.38-1.12,6.51-1.12,5.32,0,9.76,1.77,13.33,5.31,3.56,3.54,5.35,7.94,5.35,13.21,0,5.66-2.01,10.5-6.03,14.51-4.02,4.01-8.85,6.01-14.49,6.01-2.15,0-4.1-.26-5.84-.77-1.74-.51-3.43-1.32-5.05-2.42Zm.2-5.58c1.68,1.1,3.39,1.94,5.15,2.52,1.76.58,3.52.86,5.31.86,4.09,0,7.46-1.33,10.1-3.99,2.65-2.66,3.97-6.03,3.97-10.12s-1.21-7.65-3.64-10.22c-2.42-2.57-5.64-3.85-9.65-3.85-1.7,0-3.5.33-5.39,1s-3.76,1.64-5.62,2.93c-.05,2.46-.1,5.43-.14,8.9-.04,3.47-.07,7.46-.1,11.97Z"/>
      <path class="cls-2" d="m929.86,381.5c-1.02.66-1.95,1.15-2.79,1.49-.84.34-1.57.51-2.2.51-1.13,0-1.95-.35-2.46-1.04s-.81-1.82-.88-3.36c-1.97,1.68-3.91,2.92-5.84,3.73-1.93.81-3.89,1.22-5.88,1.22-3.93,0-7.1-1.1-9.51-3.3-2.41-2.2-3.62-5.1-3.62-8.69,0-4.06,1.66-7.32,4.97-9.77,3.31-2.45,7.78-3.68,13.39-3.68.92,0,1.89.03,2.93.1,1.03.07,2.14.16,3.32.29.05-.24.08-.48.1-.73.01-.25.02-.54.02-.88,0-2.73-.77-4.8-2.3-6.23s-3.75-2.14-6.66-2.14c-2.41,0-4.4.4-5.96,1.2-1.56.8-2.82,2.04-3.79,3.72-.94-.24-1.66-.64-2.14-1.22-.49-.58-.73-1.32-.73-2.24,0-1.91,1.21-3.49,3.64-4.74,2.42-1.25,5.59-1.87,9.49-1.87,4.8,0,8.39,1.16,10.79,3.48s3.6,5.79,3.6,10.4c0,.86-.04,2.37-.12,4.52s-.12,3.88-.12,5.19c0,3.62.22,6.53.65,8.73.43,2.2,1.13,3.97,2.1,5.31Zm-8.65-17.49c-1.21-.18-2.29-.32-3.24-.41-.96-.09-1.78-.14-2.46-.14-4.06,0-7.13.68-9.2,2.02-2.07,1.35-3.11,3.36-3.11,6.03,0,2.15.72,3.84,2.16,5.07,1.44,1.23,3.43,1.85,5.98,1.85,1.91,0,3.7-.36,5.37-1.08,1.66-.72,3.19-1.8,4.58-3.24-.05-1.31-.09-2.38-.1-3.2-.01-.83-.02-1.62-.02-2.38,0-.47.01-1.21.04-2.22.03-1.01.03-1.78,0-2.3Z"/>
      <path class="cls-2" d="m963.43,351.86c-1.02-.63-2.02-1.08-2.99-1.36-.97-.28-2.04-.41-3.22-.41-3.98,0-7.3,1.43-9.95,4.29-2.65,2.86-3.97,6.47-3.97,10.85,0,3.96,1.17,7.1,3.52,9.42,2.34,2.32,5.52,3.48,9.53,3.48,1.73,0,3.3-.24,4.72-.71s2.74-1.21,3.97-2.2c.47.66.83,1.28,1.08,1.89.25.6.37,1.18.37,1.73,0,1.65-.96,2.96-2.87,3.93-1.91.97-4.51,1.45-7.78,1.45-5.74,0-10.41-1.64-14-4.93-3.59-3.29-5.39-7.57-5.39-12.84,0-6.4,2.17-11.77,6.53-16.12,4.35-4.35,9.63-6.53,15.84-6.53,2.28,0,3.98.33,5.09.98,1.11.66,1.67,1.65,1.67,2.99,0,.68-.17,1.34-.51,1.99-.34.64-.89,1.34-1.65,2.1Zm-9.83,29.96c-.97,1.05-1.71,1.98-2.22,2.79-.51.81-.77,1.47-.77,1.97,0,.68.6,1.18,1.81,1.49.16.05.28.09.35.12,1.52.39,2.56.91,3.13,1.55.56.64.85,1.57.85,2.77,0,2.33-.92,4.3-2.75,5.9-1.84,1.6-4.09,2.4-6.76,2.4-.92,0-1.61-.18-2.06-.53-.46-.35-.69-.9-.69-1.63,0-.18.03-.42.1-.71.06-.29.18-.72.33-1.3.37.1.7.18,1,.24.3.05.58.08.85.08,1.36,0,2.48-.33,3.36-.98.88-.66,1.32-1.45,1.32-2.4,0-.66-.17-1.14-.51-1.45-.34-.31-1.14-.58-2.4-.79-1.42-.26-2.32-.58-2.71-.94-.39-.37-.59-.92-.59-1.65s.36-1.68,1.08-2.75c.72-1.08,1.95-2.46,3.68-4.17h3.62Z"/>
      <path class="cls-2" d="m991.19,384.57c-6.08,0-11.03-1.87-14.86-5.62-3.83-3.75-5.74-8.56-5.74-14.43,0-6.24,2.04-11.3,6.13-15.19,4.09-3.89,9.4-5.84,15.92-5.84,5.9,0,10.75,1.85,14.57,5.54,3.81,3.7,5.72,8.37,5.72,14.03,0,2.28-.36,4.53-1.08,6.76-.72,2.23-1.7,4.13-2.93,5.7-2.33,3.01-4.97,5.27-7.92,6.78-2.95,1.51-6.22,2.26-9.81,2.26Zm.47-5.66c4.25,0,7.73-1.42,10.44-4.27,2.71-2.84,4.07-6.49,4.07-10.95s-1.33-7.89-3.99-10.63c-2.66-2.74-6.11-4.11-10.36-4.11s-7.82,1.42-10.48,4.27c-2.66,2.84-3.99,6.61-3.99,11.3,0,4.17,1.35,7.61,4.05,10.32,2.7,2.71,6.12,4.07,10.26,4.07Z"/>
      <path class="cls-2" d="m121.42,465.3c-2.54-1.28-4.45-2.88-5.72-4.78-1.27-1.9-1.91-4.1-1.91-6.58,0-4.01,1.45-7.32,4.34-9.93,2.9-2.61,6.62-3.91,11.18-3.91,1.31,0,2.65.2,4.01.59,1.36.39,2.76.97,4.21,1.73,2.94-.79,5.11-1.5,6.53-2.14s2.32-1.29,2.71-1.95c.52.55.91,1.13,1.16,1.73.25.6.37,1.23.37,1.89,0,1.34-.5,2.37-1.51,3.09-1.01.72-2.73,1.25-5.17,1.59.94,1.18,1.64,2.36,2.08,3.54.45,1.18.67,2.41.67,3.7,0,3.64-1.42,6.69-4.25,9.14s-6.38,3.68-10.65,3.68c-.52,0-1.08-.02-1.67-.06s-1.19-.1-1.79-.18c-.5.5-.88.99-1.14,1.47-.26.48-.39.96-.39,1.43,0,1.81,2.52,3.26,7.55,4.36,1.18.26,2.1.46,2.75.59,4.93,1.15,8.26,2.48,9.99,3.99,1.73,1.51,2.59,3.65,2.59,6.43,0,3.98-1.79,7.27-5.37,9.87-3.58,2.59-8.18,3.89-13.82,3.89-5.24,0-9.38-1.08-12.42-3.24-3.04-2.16-4.56-5.08-4.56-8.75,0-2.57.75-4.83,2.26-6.78,1.51-1.95,3.73-3.56,6.66-4.82-.63-.58-1.11-1.17-1.43-1.77-.33-.6-.49-1.25-.49-1.93,0-.86.27-1.78.81-2.75.54-.97,1.34-2.02,2.42-3.15Zm2.59,12.42h.08c-2.18.86-3.81,1.93-4.89,3.2-1.09,1.27-1.63,2.72-1.63,4.34,0,2.41,1.06,4.36,3.18,5.84,2.12,1.48,4.95,2.22,8.49,2.22s6.21-.66,8.33-1.99c2.12-1.32,3.18-3.02,3.18-5.09,0-3.12-5.33-5.91-16-8.37-.34-.08-.59-.13-.75-.16Zm5.15-15.96c2.67,0,4.88-.78,6.62-2.34,1.74-1.56,2.61-3.52,2.61-5.88s-.83-4.45-2.5-5.96c-1.66-1.51-3.86-2.26-6.58-2.26s-5.07.74-6.78,2.22c-1.72,1.48-2.58,3.43-2.58,5.84s.86,4.44,2.58,6.01c1.72,1.57,3.92,2.36,6.62,2.36Z"/>
      <path class="cls-2" d="m182.56,471.91c.58.71,1,1.37,1.28,1.99s.41,1.21.41,1.79c0,1.42-1.06,2.58-3.16,3.48-2.11.9-4.87,1.36-8.28,1.36-6.26,0-11.17-1.71-14.72-5.13-3.55-3.42-5.33-8.14-5.33-14.17s1.79-11.05,5.37-14.92c3.58-3.87,8.17-5.8,13.78-5.8,4.32,0,7.88,1.23,10.65,3.7,2.78,2.46,4.17,5.61,4.17,9.44,0,3.01-1.15,5.16-3.46,6.45-2.31,1.28-6.22,1.93-11.75,1.93-2.07,0-4.13-.07-6.19-.22-2.06-.14-4.1-.36-6.11-.65v.55c0,4.09,1.21,7.32,3.62,9.71,2.41,2.39,5.69,3.58,9.83,3.58,1.94,0,3.73-.26,5.39-.77,1.65-.51,3.16-1.28,4.52-2.3Zm-22.88-15.45c1.73.29,3.64.5,5.72.65s4.33.22,6.74.22c3.28,0,5.46-.3,6.57-.9s1.65-1.69,1.65-3.26c0-2.39-.83-4.27-2.48-5.66s-3.91-2.08-6.76-2.08c-3.04,0-5.57.97-7.59,2.91-2.02,1.94-3.3,4.65-3.85,8.14Z"/>
      <path class="cls-2" d="m212.91,481.19c-6.08,0-11.03-1.87-14.86-5.62-3.83-3.75-5.74-8.56-5.74-14.43,0-6.24,2.04-11.3,6.13-15.19,4.09-3.89,9.4-5.84,15.92-5.84,5.9,0,10.75,1.85,14.57,5.54,3.81,3.7,5.72,8.37,5.72,14.03,0,2.28-.36,4.53-1.08,6.76-.72,2.23-1.7,4.13-2.93,5.7-2.33,3.01-4.97,5.27-7.92,6.78-2.95,1.51-6.22,2.26-9.81,2.26Zm.47-5.66c4.25,0,7.73-1.42,10.44-4.27s4.07-6.49,4.07-10.95-1.33-7.89-3.99-10.63c-2.66-2.74-6.11-4.11-10.36-4.11s-7.82,1.42-10.48,4.27c-2.66,2.84-3.99,6.61-3.99,11.3,0,4.17,1.35,7.61,4.05,10.32,2.7,2.71,6.12,4.07,10.26,4.07Z"/>
      <path class="cls-2" d="m249.7,465.3c-2.54-1.28-4.45-2.88-5.72-4.78-1.27-1.9-1.91-4.1-1.91-6.58,0-4.01,1.45-7.32,4.34-9.93,2.9-2.61,6.62-3.91,11.18-3.91,1.31,0,2.65.2,4.01.59,1.36.39,2.76.97,4.21,1.73,2.94-.79,5.11-1.5,6.53-2.14s2.32-1.29,2.71-1.95c.52.55.91,1.13,1.16,1.73.25.6.37,1.23.37,1.89,0,1.34-.5,2.37-1.51,3.09-1.01.72-2.73,1.25-5.17,1.59.94,1.18,1.64,2.36,2.08,3.54.45,1.18.67,2.41.67,3.7,0,3.64-1.42,6.69-4.25,9.14-2.83,2.45-6.38,3.68-10.65,3.68-.52,0-1.08-.02-1.67-.06s-1.19-.1-1.79-.18c-.5.5-.88.99-1.14,1.47-.26.48-.39.96-.39,1.43,0,1.81,2.52,3.26,7.55,4.36,1.18.26,2.1.46,2.75.59,4.93,1.15,8.26,2.48,9.99,3.99,1.73,1.51,2.59,3.65,2.59,6.43,0,3.98-1.79,7.27-5.37,9.87-3.58,2.59-8.18,3.89-13.82,3.89-5.24,0-9.38-1.08-12.42-3.24-3.04-2.16-4.56-5.08-4.56-8.75,0-2.57.75-4.83,2.26-6.78,1.51-1.95,3.73-3.56,6.66-4.82-.63-.58-1.11-1.17-1.43-1.77-.33-.6-.49-1.25-.49-1.93,0-.86.27-1.78.81-2.75.54-.97,1.34-2.02,2.42-3.15Zm2.59,12.42h.08c-2.18.86-3.81,1.93-4.89,3.2-1.09,1.27-1.63,2.72-1.63,4.34,0,2.41,1.06,4.36,3.18,5.84,2.12,1.48,4.95,2.22,8.49,2.22s6.21-.66,8.33-1.99c2.12-1.32,3.18-3.02,3.18-5.09,0-3.12-5.33-5.91-16-8.37-.34-.08-.59-.13-.75-.16Zm5.15-15.96c2.67,0,4.88-.78,6.62-2.34,1.74-1.56,2.61-3.52,2.61-5.88s-.83-4.45-2.5-5.96c-1.66-1.51-3.86-2.26-6.58-2.26s-5.07.74-6.78,2.22c-1.72,1.48-2.58,3.43-2.58,5.84s.86,4.44,2.58,6.01c1.72,1.57,3.92,2.36,6.62,2.36Z"/>
      <path class="cls-2" d="m290.2,449.26c1.97-2.75,3.84-4.8,5.62-6.15,1.78-1.35,3.54-2.02,5.27-2.02,1.47,0,2.72.46,3.75,1.4,1.03.93,1.55,2.08,1.55,3.44,0,.89-.29,1.76-.88,2.61s-1.47,1.7-2.65,2.54c-.42-1.15-.94-2-1.55-2.56-.62-.55-1.36-.83-2.22-.83-1.28,0-2.63.64-4.05,1.91s-2.8,3.1-4.17,5.48c-.13,1.18-.24,2.38-.31,3.6s-.12,2.41-.12,3.56c0,3.93.22,7.21.65,9.83s1.11,4.77,2.02,6.45c-1.05.55-2.08.97-3.09,1.26-1.01.29-2,.43-2.97.43-1.28,0-2.17-.32-2.65-.96-.49-.64-.73-1.93-.73-3.87,0-.71.14-3.43.41-8.16.28-4.73.41-9.13.41-13.19,0-3.33-.13-5.88-.39-7.67-.26-1.78-.7-3.35-1.3-4.72.52-.18,1.04-.32,1.55-.41s1.04-.14,1.59-.14c1.52,0,2.65.36,3.38,1.08.73.72,1.1,1.83,1.1,3.32,0,.34-.02.81-.06,1.4s-.1,1.38-.18,2.38Z"/>
      <path class="cls-2" d="m343.58,478.12c-1.02.66-1.95,1.15-2.79,1.49-.84.34-1.57.51-2.2.51-1.13,0-1.95-.35-2.46-1.04s-.81-1.82-.88-3.36c-1.97,1.68-3.91,2.92-5.84,3.73-1.93.81-3.89,1.22-5.88,1.22-3.93,0-7.1-1.1-9.51-3.3-2.41-2.2-3.62-5.1-3.62-8.69,0-4.06,1.66-7.32,4.97-9.77,3.31-2.45,7.78-3.68,13.39-3.68.92,0,1.89.03,2.93.1,1.03.07,2.14.16,3.32.29.05-.24.08-.48.1-.73.01-.25.02-.54.02-.88,0-2.73-.77-4.8-2.3-6.23-1.53-1.43-3.75-2.14-6.66-2.14-2.41,0-4.4.4-5.96,1.2-1.56.8-2.82,2.04-3.79,3.72-.94-.24-1.66-.64-2.14-1.22-.49-.58-.73-1.32-.73-2.24,0-1.91,1.21-3.49,3.64-4.74,2.42-1.25,5.59-1.87,9.49-1.87,4.8,0,8.39,1.16,10.79,3.48,2.4,2.32,3.6,5.79,3.6,10.4,0,.86-.04,2.37-.12,4.52s-.12,3.88-.12,5.19c0,3.62.22,6.53.65,8.73s1.13,3.97,2.1,5.31Zm-8.65-17.49c-1.21-.18-2.29-.32-3.24-.41-.96-.09-1.78-.14-2.46-.14-4.06,0-7.13.68-9.2,2.02-2.07,1.35-3.11,3.36-3.11,6.03,0,2.15.72,3.84,2.16,5.07,1.44,1.23,3.43,1.85,5.98,1.85,1.91,0,3.7-.36,5.37-1.08,1.66-.72,3.19-1.8,4.58-3.24-.05-1.31-.09-2.38-.1-3.2-.01-.83-.02-1.62-.02-2.38,0-.47.01-1.21.04-2.22.03-1.01.03-1.78,0-2.3Zm2.36-33.73c0,.97-.38,1.91-1.14,2.83-.76.92-1.89,1.8-3.38,2.63-2.1,1.23-4.06,2.2-5.88,2.91-1.82.71-3.16,1.06-4.03,1.06-.6,0-1.05-.11-1.34-.31-.29-.21-.43-.54-.43-.98,0-.52.56-1.25,1.69-2.16,1.13-.92,1.97-1.68,2.52-2.28.55-.58,1.3-1.4,2.24-2.48,2.75-3.07,4.82-4.6,6.21-4.6,1.07,0,1.93.31,2.58.92.64.62.96,1.43.96,2.46Z"/>
      <path class="cls-2" d="m355.1,448.01c-.58,0-1.25.01-2,.04-.76.03-1.25.04-1.45.04-.73,0-1.3-.2-1.69-.59s-.59-.94-.59-1.65c0-.39.07-.8.2-1.22.13-.42.31-.83.55-1.22.26,0,.6.01,1,.04.41.03.69.04.85.04h3.07v-.86c0-6.45,1.21-11.39,3.64-14.82,2.42-3.43,5.9-5.15,10.44-5.15,1.81,0,3.27.37,4.38,1.12,1.11.75,1.67,1.71,1.67,2.89,0,.81-.3,1.56-.9,2.24-.6.68-1.45,1.27-2.56,1.77-.6-.71-1.25-1.25-1.93-1.61-.68-.37-1.39-.55-2.12-.55-2.1,0-3.62,1.05-4.58,3.16-.96,2.11-1.43,5.48-1.43,10.12v1.3c.92-.11,1.97-.18,3.15-.24s2.41-.08,3.7-.08c.84,0,1.47.2,1.91.61s.65,1.03.65,1.87c0,.29-.06.64-.18,1.04s-.37,1.05-.77,1.95c-.6-.24-1.38-.4-2.34-.49-.96-.09-2.43-.14-4.42-.14-.47,0-.83,0-1.08.02-.25.01-.48.03-.69.06,0,5.69.09,11.55.28,17.57.18,6.03.28,9.21.28,9.55,0,2.12-.24,3.55-.71,4.29s-1.31,1.1-2.52,1.1c-.84,0-1.74-.16-2.71-.47-.97-.31-2.06-.8-3.26-1.45.81-1.55,1.41-3.85,1.79-6.92.38-3.07.57-7.16.57-12.27,0-1.86-.05-5.08-.16-9.67v-1.42Z"/>
      <path class="cls-2" d="m387.54,478.43c-1.1.6-2.15,1.05-3.15,1.34-1,.29-1.95.43-2.87.43-1.28,0-2.16-.35-2.61-1.04-.46-.7-.69-2.09-.69-4.19,0-1.21.12-3.9.35-8.1.24-4.19.35-7.8.35-10.81,0-3.28-.16-5.94-.47-7.98s-.83-3.79-1.53-5.23c.97-.58,1.97-1.02,2.99-1.32s2.03-.45,3.03-.45c1.21,0,2.03.29,2.48.88.45.59.67,1.68.67,3.28,0,.42-.12,2.71-.35,6.88-.24,4.17-.35,8.13-.35,11.87,0,3.51.18,6.42.53,8.73s.9,4.21,1.63,5.7Zm-.31-49.34c0,1.49-.52,2.74-1.57,3.73-1.05,1-2.37,1.49-3.97,1.49-1.39,0-2.49-.39-3.3-1.18-.81-.79-1.22-1.85-1.22-3.18,0-1.47.52-2.72,1.57-3.75,1.05-1.03,2.32-1.55,3.81-1.55,1.36,0,2.48.42,3.36,1.26.88.84,1.32,1.9,1.32,3.18Z"/>
      <path class="cls-2" d="m422.41,448.48c-1.02-.63-2.02-1.08-2.99-1.36-.97-.28-2.04-.41-3.22-.41-3.98,0-7.3,1.43-9.95,4.29-2.65,2.86-3.97,6.47-3.97,10.85,0,3.96,1.17,7.1,3.52,9.42,2.35,2.32,5.52,3.48,9.53,3.48,1.73,0,3.3-.24,4.72-.71s2.74-1.21,3.97-2.2c.47.66.83,1.28,1.08,1.89.25.6.37,1.18.37,1.73,0,1.65-.96,2.96-2.87,3.93-1.91.97-4.51,1.45-7.78,1.45-5.74,0-10.41-1.64-14-4.93-3.59-3.29-5.39-7.57-5.39-12.84,0-6.4,2.17-11.77,6.53-16.12,4.35-4.35,9.63-6.53,15.84-6.53,2.28,0,3.98.33,5.09.98,1.11.66,1.67,1.65,1.67,2.99,0,.68-.17,1.34-.51,1.99-.34.64-.89,1.34-1.65,2.1Z"/>
      <path class="cls-2" d="m450.16,481.19c-6.08,0-11.03-1.87-14.86-5.62-3.83-3.75-5.74-8.56-5.74-14.43,0-6.24,2.04-11.3,6.13-15.19,4.09-3.89,9.4-5.84,15.92-5.84,5.9,0,10.75,1.85,14.57,5.54,3.81,3.7,5.72,8.37,5.72,14.03,0,2.28-.36,4.53-1.08,6.76-.72,2.23-1.7,4.13-2.93,5.7-2.33,3.01-4.97,5.27-7.92,6.78s-6.22,2.26-9.81,2.26Zm.47-5.66c4.25,0,7.73-1.42,10.44-4.27s4.07-6.49,4.07-10.95-1.33-7.89-3.99-10.63c-2.66-2.74-6.11-4.11-10.36-4.11s-7.82,1.42-10.48,4.27c-2.66,2.84-3.99,6.61-3.99,11.3,0,4.17,1.35,7.61,4.05,10.32,2.7,2.71,6.12,4.07,10.26,4.07Z"/>
    </g>
    <path class="cls-3" d="m616.77,18.86c8.18,19.26,20.2,36.81,34.37,52.74,8.29,8.06,36.79-38.75,42.13-45.79,63.37,61.97,28.26,58.09,74.74-4.35,13.94,17.3,27.02,35.15,39.2,53.56,1.62,2.45,5.54,4.38,8.04,1.6,15.21-16.96,28.9-34.95,40.8-54.02,14.23,16.82,29.08,33.39,45.86,48.04,3.32,2.9,6.4-.25,7.75-3.13,8.63-18.47,21.5-35.06,31.51-52.87,3.48-33.9-32.34,31.96-36.98,37.23-68.86-69.2-30.38-69.97-91.7,2.61-11.37-16.92-23.46-33.4-36.34-49.39-4.39-5.45-8.42-2.37-10.27,2.57-12.33,11.94-20.72,26.53-28.86,41.44-62.22-67.82-31.26-54.77-82.43,1.29-10.75-12.9-19.21-26.96-26.33-41.89-5.9-12.38-14.98,2.18-11.5,10.37Z"/>
    <path class="cls-3" d="m151.62,21.48c8.18,19.26,20.2,36.81,34.37,52.74,8.29,8.06,36.79-38.75,42.13-45.79,63.37,61.97,28.26,58.09,74.74-4.35,13.94,17.3,27.02,35.15,39.2,53.56,1.62,2.45,5.54,4.38,8.04,1.6,15.21-16.96,28.9-34.95,40.8-54.02,14.23,16.82,29.08,33.39,45.86,48.04,3.32,2.9,6.4-.25,7.75-3.13,8.63-18.47,21.5-35.06,31.51-52.87,3.48-33.9-32.34,31.96-36.98,37.23-68.86-69.2-30.38-69.97-91.7,2.61-11.37-16.92-23.46-33.4-36.34-49.39-4.39-5.45-8.42-2.37-10.27,2.57-12.33,11.94-20.72,26.53-28.86,41.44-62.22-67.82-31.26-54.77-82.43,1.29-10.75-12.9-19.21-26.96-26.33-41.89-5.9-12.38-14.98,2.18-11.5,10.37Z"/>
    <path class="cls-3" d="m500.94,443c6.94,16.34,17.13,31.22,29.16,44.74,7.03,6.84,31.21-32.87,35.74-38.84,53.75,52.56,23.97,49.27,63.4-3.69,11.83,14.67,22.92,29.81,33.25,45.43,1.37,2.08,4.7,3.72,6.82,1.36,12.91-14.39,24.51-29.65,34.61-45.82,12.07,14.26,24.66,28.32,38.89,40.75,2.81,2.46,5.43-.21,6.57-2.66,7.32-15.67,18.23-29.74,26.73-44.85,2.95-28.76-27.43,27.11-31.37,31.58-58.4-58.7-25.77-59.35-77.78,2.22-9.65-14.35-19.9-28.33-30.82-41.89-3.73-4.62-7.14-2.01-8.71,2.18-10.46,10.13-17.58,22.5-24.48,35.15-52.78-57.52-26.52-46.45-69.92,1.09-9.11-10.94-16.29-22.86-22.33-35.53-5-10.5-12.71,1.85-9.76,8.79Z"/>
    <path class="cls-3" d="m17.93,428.56c18.3-7.25,34.98-17.91,50.12-30.48,7.66-7.35-36.83-32.62-43.51-37.36,58.89-56.19,55.2-25.06-4.14-66.27,16.44-12.36,33.4-23.96,50.89-34.75,2.33-1.44,4.17-4.91,1.52-7.13-16.12-13.49-33.21-25.62-51.33-36.18,15.98-12.62,31.73-25.78,45.65-40.66,2.75-2.94-.23-5.67-2.98-6.87-17.56-7.65-33.32-19.06-50.25-27.94-32.22-3.09,30.37,28.68,35.38,32.79-65.77,61.05-66.49,26.93,2.48,81.3-16.08,10.08-31.74,20.8-46.93,32.22-5.18,3.89-2.25,7.46,2.44,9.1,11.35,10.93,25.21,18.38,39.38,25.59-64.45,55.17-52.05,27.72,1.22,73.09-12.26,9.53-25.62,17.03-39.81,23.34-11.77,5.23,2.07,13.28,9.85,10.2Z"/>
    <path class="cls-3" d="m1093.12,112.57c-15.38,6.53-29.39,16.13-42.11,27.44-6.44,6.62,30.94,29.37,36.56,33.64-49.47,50.59-46.38,22.57,3.48,59.67-13.81,11.13-28.06,21.57-42.76,31.29-1.96,1.29-3.5,4.42-1.28,6.42,13.54,12.15,27.9,23.07,43.13,32.58-13.43,11.36-26.66,23.21-38.35,36.61-2.31,2.65.2,5.11,2.5,6.19,14.75,6.89,27.99,17.16,42.21,25.16,27.07,2.78-25.51-25.82-29.72-29.52,55.25-54.97,55.86-24.25-2.09-73.21,13.51-9.08,26.67-18.73,39.43-29.01,4.35-3.51,1.89-6.72-2.05-8.2-9.53-9.84-21.18-16.55-33.08-23.04,54.14-49.68,43.72-24.96-1.03-65.81,10.3-8.58,21.52-15.34,33.45-21.02,9.89-4.71-1.74-11.96-8.28-9.18Z"/>
    <g class="cls-1">
      <path class="cls-3" d="m92.93,433.15c-.08-.96-.16-1.93-.2-2.9-.03.49-.11.98-.22,1.49-.05.64.19.96.43,1.41Z"/>
      <path class="cls-3" d="m92.58,427.56c0-.18-.01-.35-.02-.52-.04-.15-.08-.3-.11-.44.04.32.09.64.13.95Z"/>
      <path class="cls-3" d="m92.06,422.5c0,.9.06,1.76.16,2.58.03-.74,0-1.59-.16-2.58Z"/>
      <path class="cls-3" d="m92.03,426.56c.12-.32.26-.48.4.03,0,0,0,.01,0,.02-.07-.5-.15-1-.22-1.52-.02.55-.09,1.04-.19,1.47Z"/>
      <path class="cls-3" d="m92.03,426.56c-.12.31-.22.8-.29.97.11-.28.21-.61.29-.97Z"/>
      <path class="cls-3" d="m88.57,425.47c-.14-.51.83-.44.56-1.46-.39-2.39-.89-4.43-.96-6.68-.24-1.02.78-2.66.55-3.67-.33-2.4-1.69-8.5-1.59-4.9.23,5.43.56,8.99.95,13.88.56,3.97,1.26,7.77,2.02,11.8.16,1.13.22,2.2.27,3.28-.01-1.41-.02-2.86-.04-4.46.06-2.1-1.36-4.53-1.77-7.8Z"/>
      <path class="cls-3" d="m96.07,454.32c-.25-.45-.71-1.38-.71-1.38.1-2.36-.69-4.59-1.39-6.88-.09.37-.18.75-.27,1.13.33,1.33.64,1.42.58.2.01,2.82.51,5.43,1.37,7.98.2-.23.5-.28.42-1.04Z"/>
      <path class="cls-3" d="m96.16,456.86c-.17-.5-.34-1-.51-1.49-.02.02-.04.05-.06.08.19.5.38.99.57,1.48v-.06Z"/>
      <path class="cls-3" d="m90.86,411.73c-.15-6.78-.17-13.18-.16-19.42-.19-.48-.41-.81-.31-1.46.16-.49.26-.98.32-1.47,0-.91.01-1.82.02-2.73-.03-.32-.06-.64-.09-.96,0,0,0-.02,0-.03-.12-.51-.26-.36-.4-.04-.1.35-.21.68-.34.96.08-.18.2-.65.34-.96.12-.43.21-.91.25-1.47-.07-.83-.12-1.7-.07-2.6.13,1,.14,1.86.07,2.6.05.53.1,1.03.15,1.54.03.15.06.29.09.44.02-2.08.04-4.15.06-6.22-.03-.48-.07-.93-.1-1.3-.15-1.5-.3-2.99.16-3.92,0-.37.01-.74.02-1.11-.03.07-.06.14-.08.22.03-.17.06-.31.09-.42.02-1.56-.37-6.76-.52-7.81,0,0-.31-1.96-.04-2.81-.19-1.48-.04-3.41.4-4.96.43,1.92.06,3.54-.4,4.96.09.71.26,1.32.5,1.74-.15.35-.47,1.06-.47,1.06.15,1.05.39,2.09.58,3.11.04-3.07.08-6.18.13-9.35.35-20.41,0-39.22.18-60.39.13-11.47.4-22.49.82-33.3.84-21.56-.7-41.2,1.44-63,.74-8.37.08-23.87-.12-31.92-1.73-10.77-5.78-5.12-6.01-4.61-3.43,6.68-1.41,11.84-3.3,25.39,1.05-9.22,2.35,6.76.05,15.49-3.5,12.63-.34,30.53-1.08,46.06-.19,3.88.03,8,.02,12.64-.94,24.06.9,46.38.95,71.67.1,6.7,1.06,12.58,1.62,18.21.22,4.12-.2,8.53-.15,11.88.08,5.27.47,9.8.95,14.14-.24-4.85-.54-8.39-.76-13.8-.11-3.61,1.26,2.49,1.56,4.88.23,1.02-.82,2.64-.59,3.66.03,2.22.49,4.26.79,6.65.23,1.02-.73.92-.62,1.42.26,3.25,1.52,5.75,1.29,7.83-.14,1.58-.26,3.01-.38,4.4-.04.88-.07,1.75-.02,2.68.09.58.17,1.17.26,1.77q.29-.48,0,0c.62,4.28,1.18,9.22,1.7,13.81.03-.02.06-.04.08-.06-.16-2.69-.11-5.32.44-8.11-.2,1.21-.46,1.06-.54-.31.16-.35.31-.71.47-1.06.3,2.39.61,4.78-.04,7.06,0,0,.24,1.02.35,1.53-.12.76-.42.73-.67.9.04.52.08,1.05.12,1.59.44-1.13.99-4.67.99-4.67Z"/>
      <path class="cls-3" d="m90.52,384.1c.03.37.06.81.09,1.29.02-1.74.04-3.48.06-5.22-.45.93-.31,2.43-.16,3.93Z"/>
    </g>
    <g class="cls-1">
      <path class="cls-3" d="m1028.55,386.9c-.08-.96-.16-1.93-.2-2.9-.03.49-.11.98-.22,1.49-.05.64.19.96.43,1.41Z"/>
      <path class="cls-3" d="m1028.2,381.31c0-.18-.01-.35-.02-.52-.04-.15-.08-.3-.11-.44.04.32.09.64.13.95Z"/>
      <path class="cls-3" d="m1027.68,376.25c0,.9.06,1.76.16,2.58.03-.74,0-1.59-.16-2.58Z"/>
      <path class="cls-3" d="m1027.66,380.31c.12-.32.26-.48.4.03,0,0,0,.01,0,.02-.07-.5-.15-1-.22-1.52-.02.55-.09,1.04-.19,1.47Z"/>
      <path class="cls-3" d="m1027.66,380.31c-.12.31-.22.8-.29.97.11-.28.21-.61.29-.97Z"/>
      <path class="cls-3" d="m1024.19,379.22c-.14-.51.83-.44.56-1.46-.39-2.39-.89-4.43-.96-6.68-.24-1.02.78-2.66.55-3.67-.33-2.4-1.69-8.5-1.59-4.9.23,5.43.56,8.99.95,13.88.56,3.97,1.26,7.77,2.02,11.8.16,1.13.22,2.2.27,3.28-.01-1.41-.02-2.86-.04-4.46.06-2.1-1.36-4.53-1.77-7.8Z"/>
      <path class="cls-3" d="m1031.69,408.07c-.25-.45-.71-1.38-.71-1.38.1-2.36-.69-4.59-1.39-6.88-.09.37-.18.75-.27,1.13.33,1.33.64,1.42.58.2.01,2.82.51,5.43,1.37,7.98.2-.23.5-.28.42-1.04Z"/>
      <path class="cls-3" d="m1031.78,410.61c-.17-.5-.34-1-.51-1.49-.02.02-.04.05-.06.08.19.5.38.99.57,1.48v-.06Z"/>
      <path class="cls-3" d="m1026.48,365.48c-.15-6.78-.17-13.18-.16-19.42-.19-.48-.41-.81-.31-1.46.16-.49.26-.98.32-1.47,0-.91.01-1.82.02-2.73-.03-.32-.06-.64-.09-.96,0,0,0-.02,0-.03-.12-.51-.26-.36-.4-.04-.1.35-.21.68-.34.96.08-.18.2-.65.34-.96.12-.43.21-.91.25-1.47-.07-.83-.12-1.7-.07-2.6.13,1,.14,1.86.07,2.6.05.53.1,1.03.15,1.54.03.15.06.29.09.44.02-2.08.04-4.15.06-6.22-.03-.48-.07-.93-.1-1.3-.15-1.5-.3-2.99.16-3.92,0-.37.01-.74.02-1.11-.03.07-.06.14-.08.22.03-.17.06-.31.09-.42.02-1.56-.37-6.76-.52-7.81,0,0-.31-1.96-.04-2.81-.19-1.48-.04-3.41.4-4.96.43,1.92.06,3.54-.4,4.96.09.71.26,1.32.5,1.74-.15.35-.47,1.06-.47,1.06.15,1.05.39,2.09.58,3.11.04-3.07.08-6.18.13-9.35.35-20.41,0-39.22.18-60.39.13-11.47.4-22.49.82-33.3.84-21.56-.7-41.2,1.44-63,.74-8.37.08-23.87-.12-31.92-1.73-10.77-5.78-5.12-6.01-4.61-3.43,6.68-1.41,11.84-3.3,25.39,1.05-9.22,2.35,6.76.05,15.49-3.5,12.63-.34,30.53-1.08,46.06-.19,3.88.03,8,.02,12.64-.94,24.06.9,46.38.95,71.67.1,6.7,1.06,12.58,1.62,18.21.22,4.12-.2,8.53-.15,11.88.08,5.27.47,9.8.95,14.14-.24-4.85-.54-8.39-.76-13.8-.11-3.61,1.26,2.49,1.56,4.88.23,1.02-.82,2.64-.59,3.66.03,2.22.49,4.26.79,6.65.23,1.02-.73.92-.62,1.42.26,3.25,1.52,5.75,1.29,7.83-.14,1.58-.26,3.01-.38,4.4-.04.88-.07,1.75-.02,2.68.09.58.17,1.17.26,1.77q.29-.48,0,0c.62,4.28,1.18,9.22,1.7,13.81.03-.02.06-.04.08-.06-.16-2.69-.11-5.32.44-8.11-.2,1.21-.46,1.06-.54-.31.16-.35.31-.71.47-1.06.3,2.39.61,4.78-.04,7.06,0,0,.24,1.02.35,1.53-.12.76-.42.73-.67.9.04.52.08,1.05.12,1.59.44-1.13.99-4.67.99-4.67Z"/>
      <path class="cls-3" d="m1026.14,337.86c.03.37.06.81.09,1.29.02-1.74.04-3.48.06-5.22-.45.93-.31,2.43-.16,3.93Z"/>
    </g>
    <g class="cls-1">
      <path class="cls-3" d="m509.9,415.87c.96-.08,1.93-.16,2.9-.2-.49-.03-.98-.11-1.49-.22-.64-.05-.96.19-1.41.43Z"/>
      <path class="cls-3" d="m515.49,415.52c.18,0,.35-.01.52-.02.15-.04.3-.08.44-.11-.32.04-.64.09-.95.13Z"/>
      <path class="cls-3" d="m520.55,415c-.9,0-1.76.06-2.58.16.74.03,1.59,0,2.58-.16Z"/>
      <path class="cls-3" d="m516.49,414.98c.32.12.48.26-.03.4,0,0-.01,0-.02,0,.5-.07,1-.15,1.52-.22-.55-.02-1.04-.09-1.47-.19Z"/>
      <path class="cls-3" d="m516.49,414.98c-.31-.12-.8-.22-.97-.29.28.11.61.21.97.29Z"/>
      <path class="cls-3" d="m517.58,411.52c.51-.14.44.83,1.46.56,2.39-.39,4.43-.89,6.68-.96,1.02-.24,2.66.78,3.67.55,2.4-.33,8.5-1.69,4.9-1.59-5.43.23-8.99.56-13.88.95-3.97.56-7.77,1.26-11.8,2.02-1.13.16-2.2.22-3.28.27,1.41-.01,2.86-.02,4.46-.04,2.1.06,4.53-1.36,7.8-1.77Z"/>
      <path class="cls-3" d="m488.73,419.01c.45-.25,1.38-.71,1.38-.71,2.36.1,4.59-.69,6.88-1.39-.37-.09-.75-.18-1.13-.27-1.33.33-1.42.64-.2.58-2.82.01-5.43.51-7.98,1.37.23.2.28.5,1.04.42Z"/>
      <path class="cls-3" d="m486.19,419.1c.5-.17,1-.34,1.49-.51-.02-.02-.05-.04-.08-.06-.5.19-.99.38-1.48.57h.06Z"/>
      <path class="cls-3" d="m531.32,413.81c6.78-.15,13.18-.17,19.42-.16.48-.19.81-.41,1.46-.31.49.16.98.26,1.47.32.91,0,1.82.01,2.73.02.32-.03.64-.06.96-.09,0,0,.02,0,.03,0,.51-.12.36-.26.04-.4-.35-.1-.68-.21-.96-.34.18.08.65.2.96.34.43.12.91.21,1.47.25.83-.07,1.7-.12,2.6-.07-1,.13-1.86.14-2.6.07-.53.05-1.03.1-1.54.15-.15.03-.29.06-.44.09,2.08.02,4.15.04,6.22.06.48-.03.93-.07,1.3-.1,1.5-.15,2.99-.3,3.92.16.37,0,.74.01,1.11.02-.07-.03-.14-.06-.22-.08.17.03.31.06.42.09,1.56.02,6.76-.37,7.81-.52,0,0,1.96-.31,2.81-.04,1.48-.19,3.41-.04,4.96.4-1.92.43-3.54.06-4.96-.4-.71.09-1.32.26-1.74.5-.35-.15-1.06-.47-1.06-.47-1.05.15-2.09.39-3.11.59,3.07.04,6.18.08,9.35.13,20.41.35,39.22,0,60.39.18,11.47.13,22.49.4,33.3.82,21.56.84,41.2-.7,63,1.44,8.37.74,23.87.08,31.92-.12,10.77-1.73,5.12-5.78,4.61-6.01-6.68-3.43-11.84-1.41-25.39-3.3,9.22,1.05-6.76,2.35-15.49.05-12.63-3.5-30.53-.34-46.06-1.08-3.88-.19-8,.03-12.64.02-24.06-.94-46.38.9-71.67.95-6.7.1-12.58,1.06-18.21,1.62-4.12.22-8.53-.2-11.88-.15-5.27.08-9.8.47-14.14.95,4.85-.24,8.39-.54,13.8-.76,3.61-.11-2.49,1.26-4.88,1.56-1.02.23-2.64-.82-3.66-.59-2.22.03-4.26.49-6.65.79-1.02.23-.92-.73-1.42-.62-3.25.26-5.75,1.52-7.83,1.29-1.58-.14-3.01-.26-4.4-.38-.88-.04-1.75-.07-2.68-.02-.58.09-1.17.17-1.77.26q.48.29,0,0c-4.28.62-9.22,1.18-13.81,1.7.02.03.04.06.06.08,2.69-.16,5.32-.11,8.11.44-1.21-.2-1.06-.46.31-.54.35.16.71.31,1.06.47-2.39.3-4.78.61-7.06-.04,0,0-1.02.24-1.53.35-.76-.12-.73-.42-.9-.67-.52.04-1.05.08-1.59.12,1.13.44,4.67.99,4.67.99Z"/>
      <path class="cls-3" d="m558.95,413.46c-.37.03-.81.06-1.29.09,1.74.02,3.48.04,5.22.06-.93-.45-2.43-.31-3.93-.16Z"/>
    </g>
    <g class="cls-1">
      <path class="cls-3" d="m185.47,91.98c2.59-.07,5.2-.13,7.81-.2-1.31-.03-2.61-.1-3.95-.23-1.71-.05-2.59.19-3.86.43Z"/>
      <path class="cls-3" d="m200.51,91.64c.47,0,.95-.01,1.38-.02.42-.04.82-.08,1.18-.11-.85.04-1.72.09-2.57.13Z"/>
      <path class="cls-3" d="m214.1,91.13c-2.4-.01-4.71.06-6.93.16,1.96.04,4.24,0,6.93-.16Z"/>
      <path class="cls-3" d="m203.26,91.1c.84.12,1.25.26-.13.4-.02,0-.03,0-.06,0,1.35-.07,2.7-.15,4.1-.22-1.47-.02-2.78-.09-3.92-.19Z"/>
      <path class="cls-3" d="m203.26,91.1c-.81-.12-2.1-.22-2.54-.29.74.11,1.59.21,2.54.29Z"/>
      <path class="cls-3" d="m206.62,87.63c1.37-.13,1.07.83,3.78.57,6.37-.39,11.82-.89,17.79-.95,2.72-.25,7.01.78,9.72.55,6.39-.33,22.69-1.69,13.08-1.59-14.46.22-23.89.55-36.87.93-10.55.55-20.68,1.25-31.46,2-3.02.15-5.85.21-8.7.26,3.72,0,7.52-.02,11.74-.02,5.56.06,12.22-1.35,20.9-1.75Z"/>
      <path class="cls-3" d="m128.03,95.15c1.33-.26,4.02-.73,4.02-.73,6.1.11,12.41-.71,18.75-1.41-.94-.09-1.89-.18-2.85-.28-3.63.32-4.03.64-.79.59-7.43,0-14.44.51-21.57,1.39.47.21.41.52,2.44.44Z"/>
      <path class="cls-3" d="m121.42,95.25c1.4-.18,2.8-.36,4.18-.53-.03-.02-.1-.04-.16-.07-1.4.2-2.8.4-4.17.59.05,0,.1,0,.15,0Z"/>
      <path class="cls-3" d="m242.96,89.94c18.11-.14,35.15-.17,51.8-.16,1.28-.19,2.17-.41,3.89-.31,1.3.16,2.61.26,3.91.32,2.43,0,4.86.01,7.27.02.84-.03,1.7-.06,2.56-.09.01,0,.05,0,.07,0,1.36-.12.96-.26.11-.4-.94-.1-1.81-.21-2.55-.34.47.08,1.72.2,2.55.34,1.15.12,2.42.21,3.92.25,2.21-.07,4.53-.12,6.92-.07-2.66.13-4.95.14-6.92.07-1.4.05-2.75.1-4.1.15-.39.03-.78.06-1.18.09,5.55.02,11.07.04,16.59.06,1.27-.03,2.48-.07,3.47-.1,4-.15,7.99-.3,10.46.16.98,0,1.97.01,2.97.02-.18-.03-.39-.06-.57-.08.44.03.81.06,1.11.09,4.17.02,18.05-.37,20.85-.52,0,0,5.22-.31,7.49-.04,3.96-.19,9.09-.04,13.22.4-5.13.43-9.44.06-13.22-.4-1.9.09-3.53.26-4.67.5-.93-.15-2.82-.47-2.82-.47-2.8.15-5.6.39-8.31.58,8.19.04,16.47.08,24.93.13,54.43.35,104.62,0,161.08.18,30.59.13,59.98.4,88.8.82,57.48.84,109.91-.7,167.99,1.44,22.29.74,63.66.08,85.14-.12,28.78-1.73,13.84-5.78,12.48-6.01-17.71-3.43-31.55-1.41-67.62-3.3,24.57,1.05-18.11,2.35-41.31.05-33.57-3.5-81.42-.34-122.82-1.08-10.35-.19-21.35.03-33.72.02-64.16-.94-123.75.9-191.2.94-17.88.1-33.57,1.06-48.63,1.62-10.99.22-22.74-.2-31.68-.15-14.05.08-26.15.47-37.73.95,12.95-.24,22.41-.54,36.84-.76,9.63-.11-6.69,1.26-13.06,1.56-2.73.23-7.02-.82-9.75-.59-5.93.03-11.38.49-17.75.79-2.73.23-2.42-.73-3.78-.62-8.68.26-15.37,1.52-20.92,1.29-4.21-.14-8.01-.26-11.72-.38-2.34-.04-4.67-.07-7.15-.02-1.54.09-3.13.17-4.72.26q1.26.29,0,0c-11.43.62-24.61,1.18-36.87,1.69.05.03.11.06.17.08,7.17-.16,14.16-.11,21.61.44-3.22-.2-2.82-.46.84-.54.94.16,1.89.31,2.81.47-6.39.3-12.76.61-18.82-.05,0,0-2.73.24-4.09.35-2.02-.12-1.93-.42-2.36-.67-1.4.04-2.81.08-4.23.11,2.99.44,12.4.99,12.4.99Z"/>
      <path class="cls-3" d="m316.65,89.6c-.98.03-2.17.06-3.45.09,4.64.02,9.27.04,13.93.06-2.47-.45-6.46-.31-10.48-.16Z"/>
    </g>
  </g>
</svg>