<svg id="Camada_1" data-name="Camada 1" xmlns="http://www.w3.org/2000/svg" viewBox="0 0 745.81 179.01"><path d="M70,90.35C93.7,60.26,159.09,0,248.24,0c62.44,0,109.74,35.5,110,35.65h0C323,18.51,183.62-9.35,74,92.09l-4-1.74Z" style="fill:#fbb711"/><path d="M350.9,101a46.69,46.69,0,0,1,7.05.54V82.16a101.1,101.1,0,0,0-13.7-.87c-34.06,0-59.78,20.4-59.78,47.67a44.16,44.16,0,0,0,.35,5.45c-5-8.4-16.08-12.67-31.85-15.92-20.09-4.09-22.87-5.86-22.47-10.29.39-4.21,7.13-8.09,17.2-8.09a56.51,56.51,0,0,1,22.73,5.11V84.93a82.08,82.08,0,0,0-24.2-3.78c-25.35,0-42.35,12.15-43.7,28.83,0,.11,0,.21,0,.32-6.12-16.44-20.42-28.77-45.06-28.77-29.63,0-49.88,21.67-49.88,47.94,0,.67,0,1.33.05,2-5.57-12.11-20.11-17.68-39.73-22-23.17-5-26.47-7.25-26.47-12.54,0-5.07,5.92-9.39,15.15-9.2A37.92,37.92,0,0,1,70,90.35,247.54,247.54,0,0,1,88.39,70a92,92,0,0,0-31.72-5.36C29.11,64.61,9.86,78.4,9.86,99.14c0,15.9,8.32,23.13,22.87,28.09.78.24,3.06,1,4.38,1.38,5,1.45,10.64,2.74,16.81,4.06,22.74,4.88,24.64,9,24.64,13.49,0,5.31-6.33,8.49-16.92,8.49-12.1,0-23.3-3.57-35-11.15-6,8.13-12.22,17.06-15.52,22.53a105,105,0,0,0,49.79,13h.35c29.36,0,47.88-12.73,48.84-33.46,6.21,18.91,23.63,31.2,47.17,31.2A83,83,0,0,0,179,173.94V153.79c-10,2.88-14.24,3.18-20.08,2.88-11.7-.6-21.25-7.2-24-18.75H205.7c.18-2.37.37-3.89.37-6.42v-.35a64.73,64.73,0,0,0-.42-7.39c5.38,7.42,17.18,10.44,33.36,13.72,19.71,4,20.81,7,20.81,11.64,0,4.07-5.25,8.76-16.9,8.38-12-.4-26-4-36.78-10.08v23.27c11.28,5.05,25.59,8.2,36.7,8.2,26.67,0,45-15.62,45-32.5,0-.37,0-.74,0-1.1,4.72,11.05,14,19.44,24.53,24.57s21.74,6.71,31,6.78A87.44,87.44,0,0,0,358,175.56V155.88a44.23,44.23,0,0,1-7.05.56c-19.73,0-35.74-12.42-35.74-27.72S331.17,101,350.9,101Zm-216,20.88c2.36-11.65,10.45-19.24,22.89-19.24,12.62,0,20.51,7.76,22.29,19.24Z" style="fill:#00498f"/><path d="M38,128.91A384.7,384.7,0,0,0,11.09,166,95.56,95.56,0,0,1,0,158.7c8.58-9.39,21.7-23.23,32.45-31.56,0,0,4.91,1.52,5.56,1.77Z" style="fill:#fbb711"/><path d="M593.73,170.53h-.6c-8.17,0-14.09-5.23-14.09-12.44v-.16c0-6.89,5.93-12.29,13.51-12.29.4,0,.8,0,1.18,0v-8.27c-.35,0-.72,0-1.08,0-14.85,0-26,8.9-26,20.71v.15c0,11.53,11.36,20.56,25.86,20.56l1.27,0Z" style="fill:#00498f"/><path d="M443.63,153.18c-8.75-1.87-10-2.77-10-5.54v-.12c0-2.05,2.25-3.67,6.52-3.67a22.4,22.4,0,0,1,7,1.33v-8.83a45.51,45.51,0,0,0-6.86-.69c-10.36,0-17.74,5.06-17.74,12.71v.11c0,8.37,6.58,10.72,16.8,12.88,8.46,1.81,9.26,3,9.26,5.36v.12c0,2.47-2.75,4-7.32,4-5.78,0-9.62-2-14.17-5.11l-6.6,6.57A33.58,33.58,0,0,0,441.1,179c10.93,0,18.61-4.7,18.61-13.07v-.12c0-7.35-5.79-10.42-16.08-12.64" style="fill:#00498f"/><path d="M469.18,156.91c.87-4.45,3.87-7.36,8.46-7.36s7.58,3,8.24,7.36Zm8.46-15.22c-11.38,0-19.32,8.13-19.32,18v.13c0,10.57,8.67,17.85,20.41,17.85l1.76-.05v-7.88c-.27,0-1.32.07-1.62.07-4.95,0-8.45-2.32-9.55-6.76h26.95c.07-.91.14-1.49.14-2.46v-.12c0-9.8-5.73-18.76-18.77-18.76" style="fill:#00498f"/><path d="M531.56,158.72c0-9.34-5.72-16.63-17.8-16.63s-17.82,7.29-17.82,16.63V177h11.2v-19c.2-3.46,1.56-7.54,6.62-7.54s6.51,4.08,6.7,7.54v19h11.1Z" style="fill:#00498f"/><path d="M549.77,141.88c-.5,0-2.18,0-2.65,0v8.36c2.15,0,5.11.39,6.42,1.08a5.43,5.43,0,0,1,3,5.05c-2.64-.31-5.63-.51-8.22-.58-10.58-.27-15.8,3.22-16.86,8.82l-.06.32a.41.41,0,0,1,0,.11,11.26,11.26,0,0,0-.13,1.69v.13c0,6.84,6,10.57,13.4,10.57,5.4,0,9.12-1.74,11.81-4.38v4h10.72V156.77c0-9.35-5.33-14.89-17.41-14.89m6.8,22.84c-1,5.05-6.18,5.81-7.36,5.87-8.43.45-8.73-5.32-5.89-7.07,3.81-2.36,13.28-1,13.28-1a14.31,14.31,0,0,1,0,2.24" style="fill:#00498f"/><path d="M479.87,100.74a18.45,18.45,0,0,1-7,1c-4.08-.21-7.42-2.51-8.38-6.52H489.2c.06-.82.13-1.35.13-2.23v-.12c0-8.92-5-17.24-17-17.24C462,75.63,455,83.16,455,92.29c0,9.64,7,16.43,17.33,16.43a28.88,28.88,0,0,0,7.59-1ZM472.48,83a7.43,7.43,0,0,1,7.79,6.69H464.49c.83-4.05,3.65-6.69,8-6.69" style="fill:#034a8a"/><path d="M610.18,91c0-8.68-5.28-15.44-16.44-15.44S577.28,82.35,577.28,91v17h10.34V90.4c.18-3.21,1.44-7,6.12-7s6,3.79,6.19,7V108h10.25Z" style="fill:#034a8a"/><path d="M587.52,91c0-8.68-5.28-15.44-16.45-15.44S554.62,82.35,554.62,91v17H565V90.4c.19-3.21,1.44-7,6.11-7s6,3.79,6.2,7V108h10.25Z" style="fill:#034a8a"/><polygon points="432.99 73.29 432.99 81.71 451.7 81.71 451.7 90.38 432.99 90.38 432.99 107.97 422.65 107.97 422.65 64.62 456.2 64.62 456.2 73.29 432.99 73.29" style="fill:#034a8a"/><rect x="698.01" y="76.3" width="10.29" height="31.7" style="fill:#034a8a"/><rect x="698.01" y="64.58" width="10.29" height="7.03" style="fill:#034a8a"/><path d="M515.64,101.58a13.3,13.3,0,0,1-2.3.2c-6.42,0-11.65-4.32-11.65-9.64s5.23-9.65,11.65-9.65a14.37,14.37,0,0,1,2.3.19V75.94a31.14,31.14,0,0,0-4.46-.29c-11.11,0-19.49,7.09-19.49,16.57,0,6.7,4.11,11.65,9.07,14.23a22.37,22.37,0,0,0,10.1,2.35,26.29,26.29,0,0,0,4.78-.37Z" style="fill:#034a8a"/><path d="M534.17,75.49c-9.64,0-17.44,7.42-17.44,16.57s7.8,16.59,17.44,16.59,17.45-7.43,17.45-16.59-7.81-16.57-17.45-16.57m0,25.83c-6.13,0-7.45-4.14-7.45-9.25s1.32-9.23,7.45-9.23,7.46,4.13,7.46,9.23-1.29,9.25-7.46,9.25" style="fill:#034a8a"/><path d="M693.46,101.58a13.3,13.3,0,0,1-2.3.2c-6.43,0-11.65-4.32-11.65-9.64s5.22-9.65,11.65-9.65a14.37,14.37,0,0,1,2.3.19V75.94a31.14,31.14,0,0,0-4.46-.29c-11.11,0-19.49,7.09-19.49,16.57,0,6.7,4.11,11.65,9.07,14.23a22.37,22.37,0,0,0,10.1,2.35,26.21,26.21,0,0,0,4.78-.37Z" style="fill:#034a8a"/><path d="M728.35,75.49c-9.63,0-17.44,7.42-17.44,16.57s7.81,16.59,17.44,16.59,17.46-7.43,17.46-16.59S738,75.49,728.35,75.49m0,25.83c-6.14,0-7.46-4.14-7.46-9.25s1.32-9.23,7.46-9.23,7.45,4.13,7.45,9.23-1.28,9.25-7.45,9.25" style="fill:#034a8a"/><path d="M669.89,75.35s-1.53-.13-2.74-.13c-10.7,0-17.27,5.87-17.27,13.7V108h10.44V89.51c0-4,1.35-5.07,3.59-6a16.77,16.77,0,0,1,6-1.12Z" style="fill:#034a8a"/><path d="M637.55,100.74a18.5,18.5,0,0,1-7,1c-4.08-.21-7.41-2.51-8.37-6.52h24.7c.07-.83.14-1.36.14-2.23v-.13c0-8.91-5-17.24-17-17.24-10.35,0-17.41,7.53-17.41,16.66,0,9.65,7,16.44,17.33,16.44a29,29,0,0,0,7.59-1ZM630.16,83a7.41,7.41,0,0,1,7.78,6.69H622.17c.83-4,3.65-6.69,8-6.69" style="fill:#034a8a"/><polygon points="625.49 71.73 632.77 60.85 641.21 64.35 632.96 71.73 625.49 71.73" style="fill:#034a8a"/></svg>