<?xml version="1.0" encoding="UTF-8"?>
<svg id="Camada_2" data-name="Camada 2" xmlns="http://www.w3.org/2000/svg" viewBox="0 0 115.63 361.67">
  <defs>
    <style>
      .cls-1 {
        fill: #e2881e;
      }

      .cls-1, .cls-2, .cls-3 {
        stroke-width: 0px;
      }

      .cls-2 {
        fill: #915e22;
      }

      .cls-3 {
        fill: #d9c6a5;
      }
    </style>
  </defs>
  <g id="Camada_1-2" data-name="Camada 1">
    <g>
      <g>
        <path class="cls-2" d="m71.94,214.74c-5.79,8.49-14.16,17.18-22.27,5.68-6.93-8.36-15.4-17.89-21.79-26.64-9.17-12.57-18.09-25.32-26.75-38.25-2.67-2.94-.24-6.44,3.45-6.93,23.12-7.68,49.42,69.53,58.88,48.25,7.14-10.83,37.05-60.04,51.37-46.75,2.11,2.92-.42,5.85-2.08,8.47-12.43,19.66-26.3,38.06-40.81,56.16Z"/>
        <path class="cls-1" d="m71.94,282.6c-5.79,8.49-14.16,17.18-22.27,5.68-6.93-8.36-15.4-17.89-21.79-26.64-9.17-12.57-18.09-25.32-26.75-38.25-2.67-2.94-.24-6.44,3.45-6.93,23.12-7.68,49.42,69.53,58.88,48.25,7.14-10.83,37.05-60.04,51.37-46.75,2.11,2.92-.42,5.85-2.08,8.47-12.43,19.66-26.3,38.06-40.81,56.16Z"/>
        <path class="cls-2" d="m71.94,350.46c-5.79,8.49-14.16,17.18-22.27,5.68-6.93-8.36-15.4-17.89-21.79-26.64-9.17-12.57-18.09-25.32-26.75-38.25-2.67-2.94-.24-6.44,3.45-6.93,23.12-7.68,49.42,69.53,58.88,48.25,7.14-10.83,37.05-60.04,51.37-46.75,2.11,2.92-.42,5.85-2.08,8.47-12.43,19.66-26.3,38.06-40.81,56.16Z"/>
      </g>
      <g>
        <path class="cls-3" d="m71.5,105.93c-14.97,3.83-38.58-4.48-32.81,21.01,3.46,12.76,10.82,6.51,15.45,5.02,5.78-1.86,11.55-3.73,17.35-4.91,7.61.38,7.55-21.87,0-21.13Z"/>
        <path class="cls-3" d="m38.87,56.17c-8.69,14.23,1.3,29.11,17.33,25.28,6.46.47,12.87-1.01,19.32-1.41,3.98-.25,6.18-12.92,1.14-15.12-9.64-3.04-29.82-18.77-37.79-8.75Z"/>
        <path class="cls-3" d="m41.02,9.82c-5.21.7-5.67,22.39,2.92,18.99,13.46-6.84,33.08,9.37,34.39-14.67-1.86-25.06-24.17-10.43-37.31-4.32Z"/>
      </g>
    </g>
  </g>
</svg>