<?xml version="1.0" encoding="UTF-8"?>
<svg id="Camada_2" data-name="Camada 2" xmlns="http://www.w3.org/2000/svg" viewBox="0 0 106.57 263.38">
  <defs>
    <style>
      .cls-1 {
        fill: #fff;
        stroke-width: 0px;
      }
    </style>
  </defs>
  <g id="Camada_1-2" data-name="Camada 1">
    <path class="cls-1" d="m80.18,226.21c8.85-13.29,17.35-26.82,25.49-40.55.65-1.09,1.28-2.51.54-3.54-6.97-2.71-15.61-1.47-23.14-1.99,7.54-12.07,15.09-24.15,22.63-36.22,2.46-3.05-.75-5.39-4.14-5.2-32.12-.71-64.25-.71-96.37,0-2.15.05-4.99.73-5.06,2.88,2.7,6.74,7.78,12.65,11.33,19.07,4.06,6.5,8.11,12.99,12.17,19.49-7.49.65-16.34-.98-23.13,2.18-1.16,1.51-.11,3.65.93,5.23,16.6,25.1,33.21,50.2,49.81,75.3,3.56,5.51,24.97-32.51,28.93-36.63Zm-50.38-45.95c-8.04-12.35-15.88-24.84-23.48-37.47,7.17.57,14.39.42,21.57.44,24.15.05,48.36.49,72.49-.44-7.6,12.63-15.44,25.12-23.48,37.47-15.7-.05-31.4-.07-47.1,0Zm22.42,75.66c-16.38-22.64-30.77-47.18-45.67-70.94,25.27-.38,18.9-1.04,33.15,18.29,3.71,4.76,7.82,9.36,10.15,15.01.9,2.18,2.02,5.16,4.28,2.33,9.49-10.89,16.53-23.99,25.61-34.95,6.63-1.2,13.68-.22,20.44-.6-14.11,23.31-28.85,46.23-44.18,68.75-1.29,1.9-1.73,3.69-3.79,2.11Z"/>
    <g>
      <path class="cls-1" d="m17.66,61.35c2.17-.03,4.41-.06,6.73,0,1.97-2.18,11.22-15.11,18.73-25.61,3.24-4.53,6.41-8.96,9.08-12.66.27-.38.72-.58,1.18-.55.46.03.88.3,1.09.72,1.98,3.79,10.8,15.21,16.63,22.76,1.17,1.51,2.25,2.91,3.17,4.11.29.38.88,1.28,1.7,2.53,1.63,2.48,5.9,8.99,7.24,9.87,4.54.31,8.37.48,12.54.36-9.16-14.45-30.86-45.78-41.78-59.39-7.17,9.25-14.55,19.38-21.69,29.19-6.99,9.61-14.21,19.52-21.25,28.64,2,.09,4.27.06,6.63.03Z"/>
      <path class="cls-1" d="m52.6,47.54c-10.93,13.63-32.65,45-41.8,59.43,4.17.24,9.56.48,12.76-.81,2.49-1.87,25.77-33.55,28.54-38.86.23-.44.68-.71,1.17-.72.49,0,.95.26,1.19.69,7.6,13.6,23,35.27,25.62,38.13,2.34-.05,4.9-.02,7.38,0,2.95.03,5.79.07,8.08-.03-7.04-9.11-14.26-19.02-21.25-28.63-7.14-9.81-14.51-19.94-21.69-29.19Z"/>
      <path class="cls-1" d="m54.08,95.95c-7.95.63-15.36,10.41-11.14,17.43,3.7,8.95,15.47,9.39,20.29.93,4.05-7,.3-19.11-9.15-18.36Z"/>
      <path class="cls-1" d="m76.45,75.15c-7.5-10.3-15.25-20.95-22.77-30.59-.25-.32-.63-.51-1.04-.52-.41,0-.79.18-1.05.49-11.73,14.3-36.55,50.49-44.27,62.93-.25.4-.27.91-.05,1.33.22.42.64.69,1.12.72.51.03,1.05.06,1.61.09,4.79.28,10.75.63,14.67-1.01,2.62-1.09,23.09-29.68,28.57-38.06,4.99,8.62,11.95,18.83,14.86,23.04,10.07,14.55,10.78,14.53,11.53,14.51,2.42-.07,5.15-.04,7.79,0,4.2.05,8.17.09,10.86-.24.48-.06.89-.37,1.08-.82.07-.17.1-.34.1-.51,0-.29-.1-.58-.28-.82-7.5-9.61-15.24-20.24-22.72-30.53Zm11,30.24c-2.48-.03-5.04-.06-7.38,0-2.61-2.86-18.02-24.53-25.62-38.13-.24-.43-.7-.69-1.19-.69-.49,0-.94.28-1.17.72-2.78,5.31-26.06,36.99-28.54,38.86-3.2,1.3-8.59,1.05-12.76.81,9.15-14.43,30.87-45.8,41.8-59.43,7.17,9.25,14.55,19.38,21.69,29.19,6.99,9.61,14.2,19.52,21.25,28.63-2.29.1-5.13.07-8.08.03Z"/>
      <path class="cls-1" d="m8.29,63.79c2.67.33,5.95.28,9.41.24,2.31-.03,4.69-.06,7.14,0,1.15.03,1.3.04,20.46-26.74,2.76-3.86,5.48-7.66,7.88-10.99,3.13,4.91,10.35,14.26,15.81,21.33,1.17,1.51,2.24,2.9,3.16,4.1.24.31.86,1.26,1.59,2.37,5.63,8.58,7.59,10.96,9.12,11.06,5.54.38,10.03.56,15.33.29.47-.02.9-.3,1.12-.72.1-.2.15-.41.15-.62,0-.25-.07-.49-.2-.71C91.54,50.98,66.72,14.78,54.99.49,54.73.18,54.34,0,53.94,0c-.41,0-.79.19-1.04.52-7.52,9.64-15.28,20.29-22.77,30.59-7.49,10.28-15.23,20.92-22.73,30.53-.3.38-.37.89-.18,1.34.19.45.6.76,1.07.82Zm24-31.11c7.14-9.81,14.51-19.94,21.69-29.19,10.92,13.61,32.61,44.94,41.78,59.39-4.17.12-8-.05-12.54-.36-1.34-.89-5.61-7.39-7.24-9.87-.82-1.24-1.41-2.14-1.7-2.53-.92-1.2-2-2.6-3.17-4.11-5.83-7.55-14.65-18.97-16.63-22.76-.22-.41-.63-.68-1.09-.72-.46-.03-.91.18-1.18.55-2.67,3.7-5.84,8.13-9.08,12.66-7.51,10.49-16.76,23.43-18.73,25.61-2.32-.05-4.56-.02-6.73,0-2.36.03-4.63.06-6.63-.03,7.05-9.12,14.26-19.03,21.25-28.64Z"/>
    </g>
  </g>
</svg>