<?xml version="1.0" encoding="UTF-8"?>
<svg id="Camada_2" data-name="Camada 2" xmlns="http://www.w3.org/2000/svg" xmlns:xlink="http://www.w3.org/1999/xlink" viewBox="0 0 300 181.57">
  <defs>
    <style>
      .cls-1 {
        fill: #fbf6f2;
      }

      .cls-1, .cls-2, .cls-3, .cls-4, .cls-5, .cls-6, .cls-7, .cls-8, .cls-9, .cls-10, .cls-11, .cls-12, .cls-13, .cls-14, .cls-15, .cls-16, .cls-17 {
        stroke-width: 0px;
      }

      .cls-2 {
        fill: #3b251c;
      }

      .cls-3 {
        opacity: .5;
      }

      .cls-3, .cls-8 {
        fill: #fff;
      }

      .cls-4 {
        fill: #cc715c;
      }

      .cls-5 {
        fill: none;
      }

      .cls-18 {
        clip-path: url(#clippath-1);
      }

      .cls-6 {
        fill: #ff926c;
      }

      .cls-7 {
        fill: #007981;
      }

      .cls-9 {
        fill: #ff8b00;
      }

      .cls-10 {
        fill: #004f53;
      }

      .cls-11 {
        fill: #9bab6c;
      }

      .cls-19 {
        clip-path: url(#clippath);
      }

      .cls-12 {
        fill: #924426;
      }

      .cls-13 {
        fill: #523223;
      }

      .cls-14 {
        fill: #ff9200;
      }

      .cls-15 {
        fill: #ffb09e;
      }

      .cls-16 {
        fill: #313c73;
      }

      .cls-17 {
        fill: #322924;
      }
    </style>
    <clipPath id="clippath">
      <rect class="cls-5" y="0" width="300" height="181.57" rx="56.28" ry="56.28"/>
    </clipPath>
    <clipPath id="clippath-1">
      <path class="cls-5" d="m300.62,102.61c-5.88-27.56-29.47-48.08-61.04-57.22.35-5.84-.68-11.34-3.25-16.29-12.93-24.89-59.94-26.08-104.98-2.67-20.72,10.77-37.41,24.86-48.14,39.37-37.38.86-68.16,17.75-76.57,45.56-11.63,38.45,23.23,85.61,79.35,99.97,45.54,11.65,88.49,9.31,119.84,1.81,82.29-19.69,104.61-64.47,94.79-110.53Z"/>
    </clipPath>
  </defs>
  <g id="Layer_1" data-name="Layer 1">
    <g class="cls-19">
      <g>
        <path class="cls-14" d="m297.03,94.98c-5.88-27.56-29.47-48.08-61.04-57.22.35-5.84-.68-11.34-3.25-16.29-12.93-24.89-59.94-26.08-104.98-2.67-20.72,10.77-37.41,24.86-48.14,39.37-37.38.86-68.16,17.75-76.57,45.56-11.63,38.45,23.23,85.61,79.35,99.97,45.54,11.65,88.49,9.31,119.84,1.81,82.29-19.69,104.61-64.47,94.79-110.53Z"/>
        <ellipse class="cls-10" cx="293.48" cy="190.15" rx="27.02" ry="16.4" transform="translate(-55.76 172.21) rotate(-30)"/>
        <ellipse class="cls-10" cx="311.37" cy="-16.88" rx="29.74" ry="54.98" transform="translate(156.4 253.71) rotate(-57.1)"/>
        <ellipse class="cls-10" cx="15.45" cy="229.15" rx="44.06" ry="69.87" transform="translate(-166.65 89.2) rotate(-48.6)"/>
        <path class="cls-10" d="m299.94,100.57c-5.88-27.56-29.47-48.08-61.04-57.22.35-5.84-.68-11.34-3.25-16.29-12.93-24.89-59.94-26.08-104.98-2.67-20.72,10.77-37.41,24.86-48.14,39.37-37.38.86-68.16,17.75-76.57,45.56-11.63,38.45,23.23,85.61,79.35,99.97,45.54,11.65,88.49,9.31,119.84,1.81,82.29-19.69,104.61-64.47,94.79-110.53Z"/>
        <g>
          <path class="cls-6" d="m214.04,85.08c-.09,0-.18-.04-.25-.11-.12-.14-.11-.34.03-.46l19.92-17.62c.09-.08.2-.1.31-.07.11.03.19.12.22.23l1.83,7.07,30.15-24.89c.14-.11.34-.1.46.04.11.14.1.35-.04.46l-30.55,25.21c-.09.07-.2.09-.31.06-.11-.03-.19-.12-.22-.23l-1.82-7.05-19.52,17.27c-.06.05-.14.08-.22.08Z"/>
          <path class="cls-6" d="m71.65,113.17c-.07,0-.15-.02-.21-.07l-14.4-11.9c-.14-.11-.16-.32-.04-.46.11-.14.32-.16.46-.04l14.4,11.9c.14.11.16.32.04.46-.06.08-.16.12-.25.12Z"/>
          <path class="cls-6" d="m196.19,51.13c-.09,0-.19-.04-.25-.12-.11-.14-.09-.35.05-.46l19.1-15.6c.14-.11.34-.09.46.05.11.14.09.35-.05.46l-19.1,15.6c-.06.05-.13.07-.21.07Z"/>
          <path class="cls-6" d="m8.15,181.7c-.13,0-.26-.08-.31-.21-.06-.17.02-.36.19-.42l47.47-17.41c.17-.06.36.02.42.19.06.17-.02.36-.19.42l-47.47,17.41s-.08.02-.11.02Z"/>
          <path class="cls-6" d="m59.94,127.62c-.06,0-.11-.01-.17-.05l-20.81-12.46-.27,6.17c0,.11-.06.21-.16.27-.09.06-.21.06-.31.02l-22.58-10.36c-.16-.08-.24-.27-.16-.43.08-.16.27-.24.43-.16l22.14,10.16.27-6.23c0-.12.07-.22.17-.27.1-.05.22-.05.32,0l21.28,12.74c.15.09.21.29.11.45-.06.1-.17.16-.28.16Z"/>
          <path class="cls-6" d="m124.58,46.85c-.1,0-.2-.04-.26-.13l-18.32-24.15c-.11-.14-.08-.35.06-.46.14-.11.35-.08.46.06l18.32,24.15c.11.14.08.35-.06.46-.06.04-.13.07-.2.07Z"/>
          <path class="cls-6" d="m144.24,28.15c-.17,0-.31-.13-.33-.3l-.54-7.04c-.01-.18.12-.34.3-.35.18-.01.34.12.35.3l.54,7.04c.01.18-.12.34-.3.35,0,0-.02,0-.03,0Z"/>
          <path class="cls-6" d="m25.91,152.42c-.18,0-.32-.14-.33-.31,0-.18.13-.33.31-.34l11.95-.44c.19,0,.33.13.34.31,0,.18-.13.33-.31.34l-11.95.44h-.01Z"/>
          <path class="cls-6" d="m253.47,192.06c-.07,0-.14-.02-.2-.07l-13.21-10.49c-.14-.11-.17-.32-.05-.46.11-.14.32-.17.46-.05l13.21,10.49c.14.11.17.32.05.46-.06.08-.16.12-.26.12Z"/>
          <path class="cls-6" d="m293.15,181.47s-.04,0-.06,0l-44.49-8.47c-.18-.03-.29-.21-.26-.38.03-.18.2-.29.38-.26l44.49,8.47c.18.03.29.21.26.38-.03.16-.17.27-.32.27Z"/>
          <path class="cls-6" d="m238.72,225.28c-.13,0-.25-.07-.3-.2l-13.7-31.93-3.98,4.16c-.08.08-.2.12-.31.09-.11-.03-.2-.11-.24-.22l-5.21-17.45c-.05-.17.05-.36.22-.41.17-.05.35.05.41.22l5.05,16.91,3.93-4.11c.08-.08.19-.11.29-.1.11.02.2.09.24.19l13.89,32.39c.07.17,0,.36-.17.43-.04.02-.09.03-.13.03Z"/>
          <path class="cls-6" d="m240.59,93.76c-.15,0-.28-.1-.32-.25-.04-.18.06-.35.24-.4l21.54-5.27c.18-.04.35.06.4.24.04.18-.06.35-.24.4l-21.54,5.27s-.05,0-.08,0Z"/>
        </g>
      </g>
      <g class="cls-18">
        <g>
          <path class="cls-8" d="m103.25,171.66c-7.76,6.28-25.7,9.65-29.49,1.8l8.53-.98c-2.83-1.43-11.08-5.75-2.2-14.75l43.93-45.53c6.11-4.35,16.13,3.7,22.17,8.15l5.77,4.95-48.7,46.36Z"/>
          <path class="cls-8" d="m182.93,111.07l-1.15,33.86-1.08,19.34c-.56,10.03-4.96,6.81-.19,15.64,5.38,9.97,18.75,13.23,23.89,3.23.95-1.84,1.39-3.9,1.48-5.97l2.11-46.99s0-.05-.01-.07l-.14-2.07c-.1-1.56-.43-3.07-.92-4.49-1.44-4.13-5.99-9.29-10.02-11.01-2.89-1.24-9.23-2.16-9.23-2.16l-4.74.69Z"/>
          <path class="cls-11" d="m191.55,152.61c-.47,12.73-.93,25.5-1.4,38.31-.01.41.26.75.69,1.05,1.63,1.17,1.03,3.75-.93,4.17-7.79,1.64-21.12,3.19-32.7,3.19s-24.91-1.73-32.56-3.45c-1.86-.42-2.34-2.77-.86-3.97.32-.25.51-.54.5-.9-.2-5.26-.39-10.5-.57-15.73-.13-3.59-.27-7.18-.4-10.78-.23-6.52-.47-13.02-.71-19.5,2.95-3.71,3.93-16.28,2.11-30.9-.13-1.11-.29-2.19-.45-3.27,4.45-.81,8.92-1.44,13.42-1.9h0c3.4,5.23,18.92,28.91,20.03,28.99,1.1.1,15.47-23.84,18.56-29.03,5.31.52,10.58,1.29,15.83,2.29-1.32,4.02-2.45,8.8-3.2,14-1.92,13.32-.73,24.77,2.61,27.43Z"/>
          <path class="cls-8" d="m176.3,108.89c-3.09,5.19-17.46,29.12-18.56,29.03-1.12-.08-16.63-23.76-20.03-28.99,1.43-.16,2.87-.29,4.3-.4,4.31-.35,8.63-.56,12.95-.61h4.49c1.44.01,2.87.05,4.3.1,1.38.05,2.76.11,4.14.19,2.11.12,4.21.28,6.32.47.7.07,1.39.14,2.09.21Z"/>
          <path class="cls-8" d="m137.7,108.92c1.44-.15,2.87-.28,4.31-.4-1.44.11-2.87.25-4.3.4h0Z"/>
          <path class="cls-8" d="m176.31,108.88s0,0,0,0c-.7-.07-1.39-.14-2.09-.21.7.06,1.4.13,2.1.21Z"/>
          <path class="cls-17" d="m134.53,170.15c-2.42,2.31-5.94,4.85-10.13,5.43-.24.04-.47.06-.68.07-.09-2.48-.19-4.96-.28-7.44,2.89,1.69,6.56,2.4,10.3,2.02.27-.03.54-.06.79-.09Z"/>
          <path class="cls-17" d="m181.2,173.67c-8.38,1.89-16.55-3.03-18.94-5.14,4.44,2.22,10.58,2.39,16.11-.14,1.74-.8,2.6-1.76,2.9-2.89,3.2,2.75,6.35,6.73-.07,8.18Z"/>
          <path class="cls-13" d="m185.88,115.61c-4.75,2.32-12.11-2.94-16.43-11.77-.88-1.79-1.56-3.59-2.05-5.34h-16.02c-.47,1.8-1.15,3.64-2.04,5.48-4.32,8.83-12,13.94-17.13,11.42-5.14-2.52-5.81-11.72-1.49-20.54.02-.04.03-.07.05-.11,4.07-8.22,6.38-17.2,6.38-26.37v-2.46c1.53-15.88,11.74-21.08,19.33-22.27,12.86-2.01,21.93,8.79,22.85,20.32.06.64.08,1.29.08,1.95v2.41c0,9.13,2.45,18.04,6.73,26.1.17.32.34.65.5.99,4.32,8.83,3.98,17.87-.77,20.2Z"/>
          <path class="cls-11" d="m181.27,165.49c-.3,1.13-1.16,2.09-2.9,2.89-5.53,2.53-11.67,2.36-16.11.14,0,0,0,0,0,0-4.03-2.02-6.66-5.74-6.19-10.65.91-10.23,7.57-20.55,12.28-20.83,4.8-.45,7.7,7.58,9.22,15.29,1.06,5.69,4.51,10.07,3.7,13.17Z"/>
          <path class="cls-11" d="m134.53,170.15c-.25.04-.52.06-.79.09-3.74.37-7.41-.33-10.3-2.02-4.2-2.45-6.72-6.95-5.36-13.15,2.19-10.39,11.5-19.18,17.35-18.09,5.98.96,8.72,10.17,9.79,18.66.95,8.27-2.08,13.4-10.68,14.51Z"/>
          <path class="cls-2" d="m187.46,170.87c-3.75,0-12.51-1.95-17.74-10.39-.07-.11-.04-.27.08-.34.11-.07.27-.04.34.08,5.21,8.4,13.54,9.85,15.97,10.09,1.76.18,2.75-.02,2.88-.16.02-.13.13-.2.27-.19.13.02.22.17.2.3-.05.35-.55.46-.72.49-.31.07-.74.1-1.27.1Z"/>
          <path class="cls-2" d="m207.17,148.95c-.12,0-.23-.09-.24-.22-.65-6.51-5.53-13.84-5.58-13.91-.08-.11-.05-.27.07-.34.11-.08.26-.05.34.07.05.07,4.99,7.5,5.66,14.13.01.13-.08.25-.22.27,0,0-.02,0-.02,0Z"/>
          <path class="cls-17" d="m184.48,117.45l-19.56-1.1s3.88-5.31,4.22-5.34,15.34,6.43,15.34,6.43Z"/>
          <path class="cls-8" d="m184.48,117.45c.41.14-15.28-16.11-15.28-16.11l-2.85,13.39s4.23-1.99,18.13,2.72Z"/>
          <path class="cls-17" d="m132.18,117.45l19.56-1.1s-3.88-5.31-4.22-5.34-15.34,6.43-15.34,6.43Z"/>
          <path class="cls-8" d="m132.18,117.45c-.41.14,15.28-16.11,15.28-16.11l2.85,13.39s-4.23-1.99-18.13,2.72Z"/>
          <path class="cls-8" d="m204.51,169.15c2.35,8.92-.23,15.71-2.96,17.64-3.82,2.72-12.25,5.55-21.04-6.88-12.59-19.5-16.79-35.36-25.25-54.75-.09-.22-.18-.43-.28-.66.14-.86,1.45-2.31,3.49-3.97,1.68-1.36,3.83-2.84,6.24-4.25,2.93-1.72,5.65-2.97,7.65-3.59.86-.17,1.74-.31,2.66-.42h.02c.06-.02.12-.02.19-.03.02.03.05.08.07.11.12.2.25.41.36.61,10.56,17.6,27.81,46.63,28.84,56.17Z"/>
          <path class="cls-2" d="m163.51,134.43c-.78,0-1.5-.1-2.18-.31-2.38-.73-3.22-2.48-3.26-2.55-.06-.12,0-.27.12-.33s.27,0,.33.12c0,.02.8,1.64,2.97,2.3,2.62.79,6.05-.06,10.2-2.55,10.41-6.25,7.87-11.01,7.84-11.05-.07-.12-.03-.27.09-.33.12-.07.27-.03.33.09.12.21,2.81,5.23-8.01,11.72-3.23,1.93-6.05,2.91-8.42,2.91Z"/>
          <path class="cls-17" d="m175.66,112.98c-.02.44-.43,1.08-1.07,1.82-.01.01-.02.02-.02.03-.56.61-1.31,1.3-2.21,2.03-1.69,1.4-3.95,2.96-6.43,4.42-2.01,1.18-3.91,2.13-5.55,2.81-.29.11-.58.25-.86.35-.18.07-.36.13-.53.19-1.82.64-3.17.86-3.73.54-.16-.08-.25-.19-.28-.35-.02-.09-.02-.19-.01-.3.11-.72,1.02-1.82,2.48-3.11.12-.11.25-.21.37-.33.2-.18.41-.36.65-.54,1.67-1.36,3.82-2.85,6.23-4.25,1.95-1.14,3.81-2.09,5.41-2.75.82-.36,1.57-.64,2.24-.84.15-.04.29-.1.43-.13.37-.11.72-.19,1.03-.24.48-.09.9-.11,1.2-.06h.02c.1.01.18.04.26.08.2.08.31.21.36.39.02.07.02.15.01.22Z"/>
          <path class="cls-15" d="m169.84,81.87v27.9c0,3.58-1.57,6.97-4.28,9.29l-7.05,6-6.78-7.02c-2.92-3.02-4.55-7.06-4.55-11.26v-24.91h22.67Z"/>
          <path class="cls-17" d="m169.84,80.88v10.73c-2.65,2.79-6.5,8.01-10.8,8.01h-.67c-4.55,0-8.61-4.89-11.21-8.04v-10.71h22.67Z"/>
          <path class="cls-15" d="m144.16,74.59v9.98c0,7.41,6.36,13.41,14.21,13.41h.67c8.01,0,14.51-6.13,14.51-13.69v-7.61l-.27-10.05c-9.19-3.69-15.37-13.54-15.37-13.54,0,0-4.61,8.46-14.64,13.54l.89,7.96Z"/>
          <path class="cls-15" d="m141.11,79.15c1.06,2.74,3.66,4.29,5.83,3.46,2.16-.83,3.06-3.73,2.01-6.47-1.06-2.74-3.66-4.29-5.83-3.46-2.16.83-3.06,3.73-2.01,6.47Z"/>
          <path class="cls-15" d="m175.86,78.96c-1.06,2.74-3.66,4.29-5.83,3.46-2.16-.83-3.06-3.73-2.01-6.47,1.06-2.74,3.66-4.29,5.83-3.46,2.16.83,3.06,3.73,2.01,6.47Z"/>
          <path class="cls-4" d="m158.53,82.44c-.42,0-.84-.07-1.25-.21l-1.3-.45c-.13-.04-.2-.18-.15-.31.04-.13.18-.2.31-.15l1.3.45c.64.22,1.33.24,1.99.06,1.2-.34,1.4-.41,1.43-.42.12-.06.27,0,.32.12.06.12,0,.27-.12.32-.04.02-.16.07-1.5.44-.34.09-.68.14-1.03.14Z"/>
          <path class="cls-17" d="m161.36,68.52c.68-.84,1.49-1.38,2.41-1.8.91-.41,1.88-.65,2.86-.72.97-.1,2.03,0,2.97.39.47.2.91.46,1.29.79.19.16.36.35.52.55.08.1.15.21.21.33.03.07.06.1.09.26,0,.03-.01.14-.07.18-.03.03-.09.05-.13.05-.06,0-.03,0-.06,0-.05-.02-.07-.04-.09-.05-.04-.03-.05-.06-.08-.08-.06-.06-.05-.15,0-.21.04-.04.1-.05.15-.03h.04s.05.04.06.04c.01,0,.01,0,0-.01-.01,0,.01,0-.03,0-.04,0-.09.02-.11.04-.05.03-.07.13-.06.14,0,.05-.04-.02-.08-.04-.07-.06-.16-.13-.25-.18-.18-.12-.37-.22-.56-.31-.39-.18-.79-.31-1.19-.4-.82-.18-1.63-.17-2.49-.06-.85.11-1.68.32-2.47.62-.78.3-1.57.72-2.19,1.19l-.06.04c-.22.17-.53.13-.7-.09-.14-.19-.14-.45,0-.62Z"/>
          <g>
            <path class="cls-15" d="m153.19,89.88c1.01,1.65,2.06,3.25,3.29,4.77,1.2,1.52,4.88,5.86,8.03,8.39.72,1.13-.11,3.83-1.24,4.55-1.08.69-2.49.42-3.25-.57l-.02-.02-3.58-4.72c-1.22-1.62-2.46-3.3-3.56-5.11-1.09-1.82-2.13-3.71-2.89-5.71-.79-1.98-1.37-4.03-1.75-6.09-.12-.65,1.1-1.41,2.8.57.73.84,1.19,2.29,2.18,3.95Z"/>
            <path class="cls-15" d="m154.36,105.17c-1.73-2.48-3.33-5.05-4.94-7.61l-.59-.97-.29-.49c-.12-.22-.24-.45-.35-.67-.39-.86-.59-1.69-.73-2.51-.26-1.64-.29-3.19-.15-4.8.05-.54.53-.95,1.07-.9.48.04.84.41.9.87v.05c.17,1.4.42,2.86.83,4.16.21.65.45,1.26.75,1.75l.21.3.37.43.73.86c1.91,2.32,3.83,4.64,5.63,7.04.7.94.51,2.27-.43,2.97-.94.7-2.27.51-2.97-.43-.01-.02-.03-.04-.04-.06Z"/>
            <path class="cls-15" d="m147.65,90.07c.44,1.39.75,2.79,1.01,4.19.07.35.12.7.18,1.05l.09.53c.03.12.06.22.09.33.12.42.34.79.59,1.12.13.16.27.31.42.44.26.24.52.48.77.73.51.49,1.02.98,1.51,1.49.99,1.01,1.95,2.04,2.83,3.16.73.93.57,2.27-.35,3-.81.64-1.93.6-2.69-.04-1.09-.91-2.1-1.9-3.08-2.91-.5-.5-.97-1.03-1.45-1.55-.24-.26-.48-.52-.71-.79-.33-.37-.63-.78-.89-1.22-.51-.86-.79-1.85-.89-2.82-.03-.24-.03-.5-.02-.73l.03-.53c.02-.35.04-.71.07-1.06.11-1.42.28-2.84.57-4.27.11-.53.62-.87,1.15-.76.36.07.63.34.74.66Z"/>
            <path class="cls-15" d="m147.19,96.91c.21,1.05.33,2.11.48,3.07.04.28.08.37.13.53.05.15.13.28.2.41.13.26.33.49.52.69l.42.39c.19.18.38.36.57.55.37.38.75.75,1.1,1.14.71.78,1.4,1.58,2,2.46.67.98.42,2.31-.56,2.98-.81.55-1.86.48-2.58-.12-.82-.68-1.55-1.44-2.26-2.23-.36-.39-.7-.79-1.04-1.2-.17-.2-.34-.41-.5-.62l-.26-.34c-.12-.15-.24-.31-.34-.47-.44-.65-.72-1.39-.88-2.14-.08-.38-.1-.76-.1-1.14,0-.37.04-.8.11-1.05.24-1.15.6-2.19,1.13-3.23.25-.49.85-.68,1.34-.43.28.14.46.4.52.68v.05Z"/>
            <path class="cls-15" d="m168.64,94.87c-.08,1.63.01,3.26.13,4.88.14,2-.05,4.03-.8,5.89-.81,1.99-2.93,4.57-4.93,2.1-2.93-3.61-1.7-8.7-.23-12.66.36-.97.75-1.93,1.17-2.87.67-1.52,1.37-3.01,2.3-4.43,1.01-1.53,2.12-1.75,2.75-1.36.36.23-.18,4.08-.39,8.43Z"/>
            <path class="cls-4" d="m157.44,102.24c-.05,0-.11-.02-.16-.06-7.41-6.06-9.51-17.14-9.53-17.25-.01-.08.01-.16.07-.22.09-.09.93-.83,2.82.81.65.56,1.16,1.52,1.75,2.62.59,1.09,1.25,2.33,2.21,3.53l6.54,7.77c.09.1.07.26-.03.35-.1.09-.26.07-.35-.03l-6.54-7.78c-.99-1.24-1.67-2.5-2.26-3.61-.57-1.06-1.06-1.98-1.64-2.48-1.18-1.03-1.82-.97-2.05-.89.29,1.4,2.55,11.25,9.32,16.79.1.09.12.24.03.35-.05.06-.12.09-.19.09Z"/>
            <path class="cls-4" d="m154.79,104.4c-.05,0-.1-.02-.15-.05-.1-.07-2.39-1.82-5.7-6.27-.84-1.04-1.34-2.48-1.56-4.44l-.97-6.31c-.02-.13.07-.26.21-.28.13-.02.26.07.28.21l.97,6.32c.21,1.88.67,3.23,1.42,4.15,0,0,.04.05.04.05,3.27,4.38,5.58,6.16,5.6,6.17.11.08.13.24.05.34-.05.06-.12.1-.2.1Z"/>
            <path class="cls-4" d="m151.17,105.99c-.07,0-.13-.03-.18-.08-.22-.23-5.29-5.6-5.83-8.29-.05-.25-.04-.5-.02-.71.09-1.3.42-6.1.48-6.99.04-.6.39-.69.54-.69.5-.01,1.14.63,1.21,1.1.02.13-.07.26-.21.28-.13.02-.26-.07-.28-.21-.04-.25-.5-.72-.7-.69-.04,0-.07.12-.08.23-.05.89-.39,5.7-.48,7-.01.19-.02.39.02.58.51,2.55,5.66,8,5.71,8.05.09.1.09.25,0,.35-.05.05-.11.07-.17.07Z"/>
            <path class="cls-4" d="m148.83,88.42c-.08,0-.16-.04-.21-.12-.66-1.1-1.63-.98-1.67-.98-.14.02-.26-.07-.28-.21-.02-.13.07-.26.21-.28.05,0,1.33-.18,2.16,1.21.07.12.03.27-.08.34-.04.02-.08.04-.13.04Z"/>
            <path class="cls-15" d="m163.53,117.1l-4.18,4.54-11.13-14.24,9.11-3.9,11.36-.73h0c.28,5.28-1.59,10.45-5.17,14.34Z"/>
          </g>
          <path class="cls-15" d="m172.37,116.86c-1.69,1.4-3.95,2.96-6.43,4.42-2.01,1.18-3.91,2.13-5.55,2.81-.29.11-.58.25-.86.35-.18.07-.36.13-.53.19l-1.55-3.22-4.2-8.72,11.68-6.75,5.19,7.61,2.25,3.31Z"/>
          <path class="cls-4" d="m158.99,124.87c-.09,0-.18-.05-.22-.14l-4.49-9.31-7.3-8.48c-.09-.1-.08-.26.03-.35.1-.09.26-.08.35.03l7.33,8.51s.03.03.04.05l4.5,9.34c.06.12,0,.27-.11.33-.03.02-.07.02-.11.02Z"/>
          <path class="cls-4" d="m167.51,110.84h0c-.14,0-.24-.11-.24-.25,0-.05.03-4.68.26-9.27.29-5.76,1.08-13.27,1.23-14.68-.02,0-.04,0-.05,0-2.76,0-6.33,9.84-7.51,13.76-.04.13-.18.2-.31.16-.13-.04-.2-.18-.16-.31.46-1.54,4.63-14.98,8.36-14.06.12.03.2.14.19.27,0,.08-.94,8.54-1.25,14.89-.23,4.57-.26,9.2-.26,9.25,0,.13-.11.24-.25.24Z"/>
          <path class="cls-4" d="m172.37,117.1c-.08,0-.16-.04-.21-.12l-4.6-7.46c-.07-.12-.04-.27.08-.34.11-.07.27-.03.34.08l4.6,7.46c.07.11.04.27-.08.34-.04.02-.08.04-.13.04Z"/>
          <path class="cls-2" d="m203.8,166.45c-.11,0-.2-.07-.24-.18-2.54-8.63-11.27-24.41-16.25-33.05-.18-.3-.29-.5-.33-.57-.07-.12-.02-.27.1-.33.12-.07.27-.02.33.1.04.07.15.26.32.56,4.99,8.66,13.75,24.48,16.3,33.16.04.13-.04.27-.17.3-.02,0-.05.01-.07.01Z"/>
          <path class="cls-2" d="m178.31,176.64c-.1,0-.19-.06-.23-.15-2.79-6.89-3.53-20.17-2.93-21.09.07-.11.22-.15.34-.07.11.07.14.22.07.34-.45.77.17,13.7,2.98,20.64.05.13,0,.27-.14.32-.03.01-.06.02-.09.02Z"/>
          <path class="cls-2" d="m194.75,189.08c-.19,0-.37,0-.57-.03-.13-.01-.23-.13-.22-.27.01-.13.12-.23.27-.22,1.33.13,2.49-.24,3.33-1.08,1.23-1.22,1.76-3.38,1.5-6.07-.01-.13.09-.25.22-.27.14-.01.25.09.27.22.27,2.84-.31,5.14-1.64,6.47-.83.83-1.91,1.25-3.16,1.25Z"/>
          <path class="cls-2" d="m163.94,146.86c-.1,0-.19-.06-.23-.15l-8.68-21.44c-.05-.13,0-.27.14-.32.13-.05.27.01.32.14l8.68,21.44c.05.13,0,.27-.14.32-.03.01-.06.02-.09.02Z"/>
          <path class="cls-2" d="m194.73,146.33c-.09,0-.17-.05-.22-.13-3.55-6.75-10.8-9.35-13.18-10.2-.65-.23-.82-.3-.91-.4-.09-.1-.08-.26.02-.35.09-.09.24-.08.33,0,.08.05.39.16.72.28,2.43.87,9.81,3.51,13.45,10.44.06.12.02.27-.1.33-.04.02-.08.03-.11.03Z"/>
          <path class="cls-13" d="m173.35,69.78s-.33,4.38-2.16,13.28c-2.01,9.77-1.11,17.23-1.11,17.23l7.41-10.58s-4.05-5.35-4.16-9.98c-.11-4.63.99-9.19.99-9.19l-.97-.77Z"/>
          <path class="cls-12" d="m143.27,71.3c-.19.15,1.23,4.23,1.95,6.34.06.16.11.31.15.45.64,1.9-1.53-9.68-.3-12.17s-4.9-1.15-4.9-1.15l3.1,6.53Z"/>
          <path class="cls-17" d="m155.32,63.4c-.34-.1-.82-.21-1.26-.23-.45-.03-.9-.04-1.36,0-.91.06-1.83.24-2.73.49-.45.13-.91.28-1.33.43-.42.17-.84.35-1.24.58-.79.44-1.55,1.02-2.15,1.76l-.02.02c-.05.06-.15.07-.21.02-.05-.04-.06-.1-.05-.15.26-1.05.96-1.91,1.78-2.59.83-.68,1.84-1.11,2.81-1.41.98-.32,2.03-.51,3.09-.52.53,0,1.07.03,1.59.15.54.13,1.03.25,1.57.59.23.15.31.45.16.69-.12.2-.36.28-.57.21l-.09-.03Z"/>
          <ellipse class="cls-13" cx="147.23" cy="58.12" rx="15.79" ry="6.38" transform="translate(-5.56 99.49) rotate(-36.69)"/>
          <path class="cls-17" d="m138.65,69.13c-4.31,0-4.54-1.83-4.55-1.91-.01-.14.09-.25.22-.27.14-.01.25.08.27.22,0,.04.31,1.71,5,1.44,8.06-.45,17.12-10.99,17.22-11.1.09-.1.24-.12.35-.03.1.09.12.24.03.35-.38.44-9.29,10.81-17.56,11.27-.35.02-.67.03-.97.03Z"/>
          <path class="cls-17" d="m177.13,67.15c-3.99,0-7.74-2.2-11.28-4.52-2.88-1.89-8.71-9.45-9.1-13.02-.01-.13.08-.26.22-.27.14-.02.26.08.27.22.36,3.39,6.13,10.86,8.88,12.66,4.13,2.7,8.55,5.26,13.25,4.19.13-.03.26.05.29.18.03.13-.05.26-.18.29-.79.18-1.57.26-2.35.26Z"/>
          <path class="cls-17" d="m179.71,74.03s0,0,0,0c-2.92-.11-6.45-5.91-6.6-6.16-.07-.12-.03-.27.08-.34.12-.07.27-.03.34.08.04.06,3.54,5.82,6.2,5.92.14,0,.24.12.24.25,0,.13-.11.24-.25.24Z"/>
          <path class="cls-17" d="m135.74,64.13c-.88,0-1.39-.11-1.44-.13-.13-.03-.21-.16-.18-.29.03-.13.16-.22.29-.18.03,0,2.95.64,7.08-1.29,3.74-1.75,5.47-5.18,7.15-8.49,1.82-3.59,3.54-6.99,7.63-7.66.14-.02.26.07.28.2.02.13-.07.26-.2.28-3.85.63-5.51,3.92-7.27,7.4-1.71,3.39-3.49,6.89-7.38,8.71-2.56,1.2-4.66,1.45-5.96,1.45Z"/>
          <path class="cls-17" d="m181.09,113.37c-.09,0-.18-.05-.22-.14-.06-.12-.01-.27.11-.33,1.25-.63,2.06-1.73,2.42-3.28,1.02-4.44-1.96-12.53-7.09-19.22-5.07-6.62-2.96-15.85-2.93-15.93.05-.12.2-.18.32-.13.12.05.18.19.13.32-.04.14-1.98,9.11,2.87,15.45,4.33,5.65,8.42,14.21,7.17,19.63-.39,1.7-1.29,2.91-2.68,3.61-.04.02-.07.03-.11.03Z"/>
          <path class="cls-15" d="m122.99,97.35c.94,3.29,1.49,6.61,1.99,9.93.28,1.88.59,3.77.61,5.69.04,3.22-4.39,4.67-5.25,1.22-.48-1.93-.81-3.99-.83-5.98-.03-3.37.79-6.75,1.21-10.14.19-1.3,1.8-2.6,2.27-.71Z"/>
          <path class="cls-17" d="m144.07,74.03c-.1,0-.19-.06-.23-.15-.39-.97-.94-1.58-1.63-1.81-.97-.33-1.91.21-1.92.21-.12.07-.27.03-.34-.09-.07-.12-.03-.27.09-.34.05-.03,1.14-.66,2.33-.25.83.28,1.47.98,1.92,2.09.05.13,0,.27-.13.32-.03.01-.06.02-.09.02Z"/>
          <path class="cls-17" d="m134.12,115.53c-.05,0-.11-.02-.15-.05-1.26-1.01-1.96-2.49-2.07-4.4-.27-4.69,3.13-11.1,6.57-14.59,4.72-4.77,4.72-12.7,4.58-13.26-.05-.1-.03-.22.06-.3.1-.09.26-.08.35.02.32.36.21,8.98-4.64,13.88-3.37,3.41-6.7,9.66-6.43,14.22.1,1.77.74,3.13,1.89,4.05.11.08.12.24.04.34-.05.06-.12.09-.19.09Z"/>
          <path class="cls-17" d="m127.87,105.22c-.13,0-.24-.1-.24-.23-.19-3.7,1.21-7.07,4.16-10.02,3.23-3.22,7.51-4.96,8.37-4.96.01,0,.02,0,.03,0,.14,0,.24.12.23.26,0,.14-.14.24-.26.23,0,0,0,0-.01,0-.57,0-4.72,1.54-8.01,4.82-2.85,2.84-4.2,6.09-4.02,9.65,0,.14-.1.25-.23.26,0,0,0,0-.01,0Z"/>
          <path class="cls-2" d="m177.97,188.47s-.07,0-.1-.02c-13.45-6.15-22.67-17.7-28.19-35.32-.04-.13.03-.27.16-.31.13-.04.27.03.31.16,5.48,17.48,14.61,28.94,27.92,35.03.12.06.18.2.12.33-.04.09-.13.14-.22.14Z"/>
          <path class="cls-2" d="m168.75,193.09s-.04,0-.06,0c-12.69-3.46-20.54-15.46-20.62-15.58-.07-.11-.04-.27.07-.34.11-.07.27-.04.34.07.08.12,7.83,11.97,20.34,15.38.13.04.21.17.17.3-.03.11-.13.18-.24.18Z"/>
          <g>
            <circle class="cls-3" cx="145.47" cy="73.73" r="12.28" transform="translate(66.11 216.21) rotate(-87.76)"/>
            <rect class="cls-8" x="131.84" y="82.2" width="1.8" height="17.98" transform="translate(79.22 -60.7) rotate(36.1)"/>
            <rect class="cls-16" x="125.4" y="85.79" width="3.44" height="26.21" rx="1.72" ry="1.72" transform="translate(82.69 -55.92) rotate(36.1)"/>
            <path class="cls-16" d="m137.48,84.69c-6.04-4.4-7.37-12.9-2.97-18.94,4.41-6.04,12.9-7.37,18.94-2.97,6.04,4.4,7.37,12.9,2.97,18.94-4.4,6.04-12.9,7.37-18.94,2.97Zm14.86-20.38c-5.2-3.79-12.51-2.65-16.31,2.55-3.79,5.2-2.65,12.51,2.55,16.31,5.2,3.79,12.51,2.65,16.3-2.55,3.79-5.2,2.65-12.51-2.55-16.31Z"/>
          </g>
          <path class="cls-15" d="m127.09,109.54l-.1.11-1.65,11.54c-.15,3.76-2.97,6.44-6.67,5.02l-7.97-3.08,3.91-17.11c.16-.72.68-1.31,1.37-1.57l3.4-1.3c2.21-.84,4.7-.42,6.51,1.12l.86.73c1.37,1.16,1.52,3.21.34,4.56Z"/>
          <path class="cls-8" d="m73.94,157.31c13.37-16.69,17.43-22.06,30.84-37.37.02-.03.03-.05.06-.07.18-.21.37-.42.56-.64.93-.84.9-.57,2.45-.49,6.27,3.2,11.18,8.39,15.37,14.89.05.92,1.16,1.63,1.16,1.63,0,0,0,0,0,0-.22.31-.44.63-.66.94-8.76,12.62-19.89,30.76-27.73,36.98-8.41,6.67-21.24,6.73-24.59-1.79,0-.02-3.38-6.7,2.54-14.08Z"/>
          <path class="cls-17" d="m122.36,136.38s-.02,0-.05,0c-1.42-.06-3.46-.93-5.69-2.46-1.21-.83-2.47-1.83-3.73-3.01-1.49-1.38-2.81-2.83-3.9-4.25-.72-.93-1.32-1.84-1.81-2.7-1.14-2-1.63-3.74-1.26-4.81.02-.02.02-.04.03-.05.02-.1.07-.18.12-.27.05-.07.1-.13.14-.21.51-.58,1.44-.7,2.62-.43.61.15,1.3.4,2.04.76.23.1.46.22.7.35,1.75.94,3.74,2.38,5.74,4.22,1.49,1.38,2.79,2.81,3.86,4.21,1.37,1.78,2.37,3.5,2.86,4.93l.07.21c.25.79.35,1.49.26,2.06h0c-.06.26-.13.47-.25.68,0,.01-.01.03-.04.04-.33.52-.93.75-1.72.73Z"/>
          <path class="cls-2" d="m116.43,144c-2.22,0-5.95-.91-10.65-5.51-7.58-7.43-6.75-12.21-6.71-12.41.03-.13.16-.22.29-.19.13.02.22.15.19.29,0,.05-.8,4.76,6.57,11.97,7.34,7.19,12.3,5.05,12.35,5.03.12-.05.27,0,.33.12.06.12,0,.27-.12.32-.08.04-.87.39-2.25.39Z"/>
          <path class="cls-15" d="m116.63,133.93c-1.21-.83-2.47-1.83-3.73-3.01-1.49-1.38-2.81-2.83-3.9-4.25-.72-.93-1.32-1.84-1.81-2.7l3.69-5.01,2.26-3.09,10.88,7.99-2.85,3.88-4.54,6.19Z"/>
          <path class="cls-2" d="m92.35,171.62c-1.92,0-4.05-.49-6.32-1.83-.12-.07-.16-.22-.09-.34.07-.12.22-.16.34-.09,8.21,4.84,14.65-1.85,14.72-1.92.09-.1.25-.1.35-.01.1.09.1.25.01.35-.05.05-3.69,3.83-9,3.83Z"/>
          <path class="cls-2" d="m78.63,151.05s-.1-.02-.14-.05c-.11-.08-.13-.23-.05-.34,4.02-5.53,12.14-10.82,12.83-10.82h0c.14,0,.24.11.24.25,0,.13-.11.23-.23.24-.67.15-8.49,5.19-12.44,10.62-.05.07-.12.1-.2.1Z"/>
          <path class="cls-15" d="m128.18,114.76l-3.73-2.03.43-.79-9.32.7-.32-4.23,11.04-.83c1.2-.09,2.5-.12,3.28.8.86,1.02.45,3.01-.13,4.07l-1.26,2.31Z"/>
          <path class="cls-2" d="m99.28,170.88c-.06,0-.11-.02-.16-.06-.1-.09-.12-.24-.03-.34,6.6-7.94,24.62-34.69,24.8-34.96.08-.11.23-.14.34-.07.11.08.14.23.07.34-.18.27-18.22,27.04-24.83,35-.05.06-.12.09-.19.09Z"/>
          <path class="cls-15" d="m127.41,118.94l-2.47-2.6c-8.2,1.04-8.51,1.03-8.77,1.02l.07-2.12-.05-2.12c.19-.01,1.46-.13,9.96-1.21,1.42-.18,3.27.2,3.4,1.86.11,1.43-2.14,5.18-2.14,5.18Z"/>
          <path class="cls-15" d="m117.26,121.58l-.38-4.23.19,2.11-.28-2.1c.18-.03,1.27-.24,7.64-1.57,1.47-.31,3.29-.22,3.49,1.27.08.58-.57,2.66-1.35,4.22-.31.63-1.26.49-1.37-.21l-.18-1.08c-7.6,1.6-7.57,1.56-7.76,1.58Z"/>
          <path class="cls-4" d="m117.2,108.77c-.12,0-.23-.09-.24-.21-.02-.13.08-.26.21-.28.36-.05,8.89-1.18,10.71-.99.13.01.23.14.22.27-.01.13-.14.23-.27.22-1.76-.2-10.5.97-10.59.98-.01,0-.02,0-.03,0Z"/>
          <path class="cls-4" d="m129.52,114.48s-.05,0-.07,0c-.13-.04-.2-.17-.17-.3.11-.37.05-.73-.16-1.06-.34-.51-1.03-.9-1.82-1-1.06-.14-6.93.68-9.88,1.12-.13.02-.26-.07-.28-.21-.02-.13.07-.26.21-.28.35-.05,8.63-1.31,10.02-1.13.94.12,1.75.58,2.16,1.22.29.45.37.96.22,1.47-.03.11-.13.18-.24.18Z"/>
          <path class="cls-4" d="m125.71,121.93c-.28,0-.47-.12-.6-.24-.54-.49-.66-1.72-.32-3.12.03-.13.16-.21.3-.18.13.03.21.16.18.3-.29,1.17-.21,2.29.18,2.65.08.07.21.16.48.07.78-.26,1.49-2.03,1.7-2.7.28-.66.31-1.25.08-1.73-.23-.48-.69-.84-1.35-1.04-1.09-.33-6.93,1.03-9.09,1.58-.13.03-.27-.05-.3-.18-.03-.13.05-.27.18-.3.81-.21,7.94-2,9.35-1.58.79.24,1.36.69,1.65,1.3.29.61.26,1.34-.07,2.11-.08.25-.85,2.61-2,2.99-.13.04-.26.06-.36.06Z"/>
          <path class="cls-4" d="m119.48,120.49c-.12,0-.22-.09-.24-.21-.02-.13.07-.26.2-.28.04,0,4.12-.67,5.41-.97.13-.03.26.05.3.18.03.13-.05.26-.18.3-1.3.31-5.27.95-5.44.97-.01,0-.03,0-.04,0Z"/>
          <g>
            <path class="cls-1" d="m134.67,75.32c-.07,0-.13-.03-.18-.08-.09-.1-.09-.25.01-.35l12.7-11.96c.1-.09.25-.09.35.01.09.1.09.25-.01.35l-12.7,11.96s-.11.07-.17.07Z"/>
            <path class="cls-1" d="m136.6,78.23c-.06,0-.13-.03-.18-.08-.09-.1-.09-.25,0-.35l10.16-9.67c.1-.09.25-.09.35,0,.09.1.09.25,0,.35l-10.16,9.67s-.11.07-.17.07Z"/>
            <path class="cls-1" d="m144.16,80.98c-.06,0-.12-.02-.17-.07-.1-.09-.1-.25,0-.35l6.13-6.22c.1-.1.25-.1.35,0,.1.09.1.25,0,.35l-6.13,6.22s-.11.07-.17.07Z"/>
          </g>
        </g>
      </g>
      <path class="cls-7" d="m9.74,82.12h105.75l19.1,3.19-10.67-13.27v-12.86c0-4.3-3.49-7.79-7.79-7.79H9.74c-4.3,0-7.79,3.49-7.79,7.79v15.15c0,4.3,3.49,7.79,7.79,7.79Z"/>
      <path class="cls-9" d="m236.02,148.09c11.86,6.85,23.29,7.53,26.15,2.99.96-1.53.8-3.63-.28-6.02,16.69-.13,29.66-5.51,30.3-13.19.34-4.04-2.8-8.01-8.24-11.29,1.94-1.2,3.04-2.63,2.74-3.87-.5-2.07-4.71-2.82-9.39-1.68-1.22.3-2.34.69-3.34,1.15-4.99-1.6-10.74-2.75-16.9-3.26-10.63-.88-20.36.31-27.29,2.93,0,0,0,0,0,0-7.45,2.96-13.15-2.43-13.15-2.43,0,0-1.7,22.49,19.41,34.67Z"/>
      <g>
        <path class="cls-8" d="m9.59,60.69h4.19l1.76,6.2h.03l1.63-6.2h3.6l-3.45,11.23h-4.05l-3.71-11.23Z"/>
        <path class="cls-8" d="m29.19,67.6h-3.75v1.58h4.58v2.73h-8.42l.02-1.48v-8.28l-.02-1.48h8.29v2.73h-4.46v1.51h3.75v2.67Z"/>
        <path class="cls-8" d="m37.46,71.91l-1.41-4.05h-.93v2.58l.02,1.48h-3.85l.02-1.48v-8.28l-.02-1.48h5.78c2.14,0,4.33.75,4.33,3.53,0,1.52-.69,2.5-1.71,3.06l1.99,4.6v.03h-4.22Zm-2.34-6.64h1.29c.71,0,1.24-.24,1.24-.99s-.53-1-1.29-1h-1.24v1.99Z"/>
        <path class="cls-8" d="m42.77,60.69h4.99c3.6,0,5.78,2.26,5.78,5.73,0,3.67-2.39,5.5-5.78,5.5h-4.99l.02-1.48v-8.28l-.02-1.48Zm3.83,8.65h.68c1.29,0,2.17-.79,2.17-3.01s-.86-3.05-2.17-3.05h-.68v6.06Z"/>
        <path class="cls-8" d="m56.9,71.91h-3.45l3.97-11.23h4.04l3.82,11.23h-4.13l-.47-1.77h-3.22l-.55,1.77Zm1.3-4.22h1.82l-.82-3.17h-.03l-.97,3.17Z"/>
        <path class="cls-8" d="m65.96,60.69h4.99c3.6,0,5.78,2.26,5.78,5.73,0,3.67-2.39,5.5-5.78,5.5h-4.99l.02-1.48v-8.28l-.02-1.48Zm3.83,8.65h.68c1.29,0,2.17-.79,2.17-3.01s-.86-3.05-2.17-3.05h-.68v6.06Z"/>
        <path class="cls-8" d="m85.57,67.6h-3.75v1.58h4.58v2.73h-8.42l.02-1.48v-8.28l-.02-1.48h8.29v2.73h-4.46v1.51h3.75v2.67Z"/>
        <path class="cls-8" d="m87.67,71.91l.02-1.48v-8.28l-.02-1.48h3.85l-.02,1.48v8.28l.02,1.48h-3.85Z"/>
        <path class="cls-8" d="m99.51,71.91l-1.41-4.05h-.93v2.58l.02,1.48h-3.85l.02-1.48v-8.28l-.02-1.48h5.78c2.14,0,4.33.75,4.33,3.53,0,1.52-.69,2.5-1.71,3.06l1.99,4.6v.03h-4.22Zm-2.34-6.64h1.29c.71,0,1.24-.24,1.24-.99s-.53-1-1.29-1h-1.24v1.99Z"/>
        <path class="cls-8" d="m104.37,66.29c0-3.23,2.07-5.9,5.78-5.9s5.76,2.67,5.76,5.9-2.09,5.92-5.76,5.92-5.78-2.67-5.78-5.92Zm7.24,0c0-2.46-.47-3.3-1.46-3.3s-1.46.83-1.46,3.3.44,3.31,1.46,3.31,1.46-.83,1.46-3.31Z"/>
      </g>
      <g>
        <path class="cls-8" d="m236.43,129.8h-3.71v2.75l.02,1.48h-3.85l.02-1.48v-8.28l-.02-1.48h8.05v2.73h-4.22v1.6h3.71v2.67Z"/>
        <path class="cls-8" d="m239.64,134.02h-3.45l3.97-11.23h4.04l3.82,11.23h-4.13l-.47-1.77h-3.22l-.55,1.77Zm1.3-4.22h1.82l-.82-3.17h-.03l-.97,3.17Z"/>
        <path class="cls-8" d="m248.7,134.02l.02-1.48v-8.28l-.02-1.48h3.85l-.02,1.48v7.02h4.04v2.73h-7.87Z"/>
        <path class="cls-8" d="m265.55,126.13c-.86-.64-1.76-1.12-3-1.12-.82,0-1.4.25-1.4.77,0,.8,1.32.75,2.68,1.02,2.14.41,3.74,1.46,3.74,3.55,0,2.21-1.79,3.97-5.17,3.97-2.06,0-4.11-.67-5.4-1.84l1.73-2.04c.97.77,2.1,1.38,3.56,1.38.82,0,1.46-.24,1.46-.8,0-.85-1.48-.83-2.87-1.11-2.03-.41-3.55-1.35-3.55-3.44,0-2.2,1.71-3.97,4.93-3.97,1.79,0,3.8.61,4.99,1.57l-1.71,2.06Z"/>
        <path class="cls-8" d="m268.25,128.4c0-3.23,2.07-5.9,5.78-5.9s5.76,2.67,5.76,5.9-2.09,5.92-5.76,5.92-5.78-2.67-5.78-5.92Zm7.24,0c0-2.46-.47-3.3-1.46-3.3s-1.46.83-1.46,3.3.44,3.31,1.46,3.31,1.46-.83,1.46-3.31Z"/>
      </g>
    </g>
  </g>
</svg>