<?xml version="1.0" encoding="UTF-8"?>
<svg id="Camada_2" data-name="Camada 2" xmlns="http://www.w3.org/2000/svg" viewBox="0 0 96.13 139.24">
  <defs>
    <style>
      .cls-1 {
        fill: #bad8d7;
      }

      .cls-2 {
        fill: #88bab8;
      }
    </style>
  </defs>
  <g id="Camada_1-2" data-name="Camada 1">
    <g>
      <g>
        <path class="cls-1" d="m11.66,103.65c-2.01-.38-4.09-.75-6.1-.36-2.67.53-5.26,2.75-4.41,5.9.29,1.09.98,2.03,1.84,2.76,1.26,1.09,2.05,1.68,3.77,1.79,1.52.1,2.67.35,4.89-1.04,1.11-.69,2.03-4.21,2.24-5.41.58-3.2.28-9.59-.1-15.18-.01-.19.23-.29.35-.14,1.41,1.62,2.69,3.37,3.79,5.22.93,1.54,1.76,3.42,1.08,5.09-.32.8-.97,1.46-1.19,2.3s.35,1.98,1.2,1.81c.43-.09.73-.47.97-.84,1.79-2.77,1.99-5.99.19-8.69-1.06-1.59-1.95-3.04-3.17-4.5-1.51-1.82-3.81-4.99-5.34-6.74-.11-.13-.33-.06-.35.11-.13,1.37-.13,2.99-.1,4.25.12,4.65.3,9.03.43,13.68"/>
        <path class="cls-2" d="m10.94,102.74c-3.1-.58-6.68-1.13-9.29,1.1-2.1,1.8-2.15,4.74-.41,6.82s4.24,3.06,6.95,2.7c1.12-.15,2.53-.66,3.27-1.55s1.07-2.07,1.38-3.1c.78-2.6.86-5.27.83-7.96-.02-1.93-.1-3.87-.2-5.8-.03-.52-.06-1.03-.09-1.55-.02-.34-.19-.99-.08-1.31.2-.57.49.09.77.45.42.52.83,1.06,1.22,1.6,1.2,1.67,2.81,3.75,2.93,5.88.1,1.73-1.64,2.85-1.46,4.5.08.76.69,1.6,1.55,1.43,1.22-.24,1.89-2.24,2.21-3.26,1.24-3.92-1.01-7.11-3.27-10.13-1.16-1.55-2.4-3.03-3.58-4.56-.51-.67-1.03-1.33-1.55-1.99-.37-.47-.77-1.21-1.36-1.37-.08-.02-.19,0-.24.06-.59.73-.32,2.28-.33,3.16,0,1.63.07,3.25.12,4.88.11,3.41.23,6.82.33,10.23,0,.32.51.32.5,0-.11-4.23-.28-8.46-.4-12.69-.02-.88-.05-1.76-.04-2.64,0-.44.01-.88.03-1.32.02-.41-.1-.98.3-.87s1.18,1.45,1.43,1.77c.58.75,1.16,1.5,1.74,2.25.99,1.29,2.06,2.52,3.01,3.84,1.04,1.45,2.31,3.03,2.87,4.75.65,1.98.33,4.12-.63,5.94-.14.27-.51,1.11-.8,1.21l-.66-.25c-.55.02-.77-.19-.67-.63-.06-.37.08-.67.24-.99.35-.7.87-1.3,1.07-2.06.8-3-2.06-6.38-3.75-8.56-.28-.37-1.32-2.3-1.99-1.59-.28.3-.06,1.04-.04,1.39.07,1.03.13,2.06.18,3.09.17,3.29.36,6.65,0,9.93-.13,1.18-.41,2.34-.78,3.47-.55,1.69-1.17,2.87-2.92,3.54-3.29,1.25-7.97-.65-8.75-4.29-.47-2.18.84-4.02,2.77-4.92,2.34-1.09,5.04-.58,7.47-.13.31.06.45-.42.13-.48h0Z"/>
      </g>
      <g>
        <path class="cls-1" d="m66.38,48.26c-3.56-2.53-9.71-1.61-13.23.96-1.88,1.37-2.26,3.84-2.59,6.14-.54,3.74,2.55,7.12,5.96,8.74,3.04,1.44,6.84,1.91,9.63.03,3.72-2.51,4.01-7.78,3.93-12.26-.17-8.3-.33-16.59-.5-24.89,7.55-2.64,15.04-5.46,22.46-8.46.13,6.25.27,12.51.4,18.76-4.13-2.94-10.57-1.89-13.51,2.24-2.93,4.14-1.75,10.62,2.49,13.39,4.24,2.78,10.71,1.22,13.17-3.21,1.5-2.71,1.54-5.95,1.53-9.05-.01-12.92-.02-25.84-.04-38.77-5.58.07-10.54,3.31-15.6,5.67-3.59,1.68-7.37,2.95-11.24,3.79-1.28.28-2.67.56-3.52,1.55-.97,1.13-1.28.42-1.15,1.9.92,10.38,2.23,19.82,1.79,33.45"/>
        <path class="cls-2" d="m64.14,46.41c-2.36-1.59-5.35-1.79-8.09-1.28s-5.78,1.68-7.02,4.23-1.62,5.79-.4,8.28c1.31,2.68,3.97,4.6,6.72,5.59s6.29,1.16,8.84-.72c2.24-1.65,3.18-4.41,3.54-7.07.49-3.6.18-7.32.11-10.94-.09-4.4-.18-8.79-.26-13.19-.02-1.24-.05-2.49-.07-3.73,0-.46-.2-1.32-.03-1.74.24-.62,1.09-.71,1.66-.91,2.23-.79,4.46-1.59,6.68-2.42,4.67-1.73,9.32-3.53,13.93-5.39l-.32-.24c.13,6.25.27,12.51.4,18.76l.38-.22c-4.21-2.87-10.51-2.03-13.65,2.07s-2.19,10.48,1.81,13.59,9.88,2.18,13.05-1.43c2.05-2.33,2.49-5.52,2.58-8.51.12-4.1.01-8.21.01-12.31,0-9.53-.02-19.05-.03-28.58,0-.13-.11-.25-.25-.25-4.78.13-9.02,2.37-13.2,4.47-2.39,1.2-4.81,2.31-7.33,3.2s-4.94,1.38-7.43,2.05c-.72.19-1.46.44-2.06.9-.4.31-.71.71-1.11,1.03-.15.12-.36.19-.47.36-.31.43-.16,1.05-.12,1.54.1,1.12.21,2.23.31,3.34.41,4.25.84,8.5,1.13,12.76.38,5.65.49,11.31.32,16.97,0,.32.49.32.5,0,.32-10.22-.55-20.32-1.52-30.47-.1-1.05-.41-2.28-.3-3.33.08-.78,1.51-1.84,2.16-2.17,1.12-.57,2.47-.71,3.68-1,1.41-.34,2.8-.74,4.17-1.2,5.27-1.75,9.93-4.79,15.12-6.69,1.19-.44,2.42-.8,3.67-1.01.48-.08,1.79-.44,2.13-.11.32.32.09,2.13.09,2.6,0,3.06,0,6.13,0,9.19,0,6.21.01,12.42.02,18.64,0,3,.03,6.01,0,9.01-.02,2.76-.18,5.71-1.65,8.14-2.34,3.85-7.84,5.31-11.85,3.32-4.52-2.25-6.12-8.54-3.65-12.84,2.66-4.64,9.3-5.77,13.6-2.83.16.11.38-.04.38-.22-.13-6.25-.27-12.51-.4-18.76,0-.15-.16-.3-.32-.24-7.42,3-14.91,5.82-22.46,8.46-.1.04-.19.13-.18.24.12,5.97.24,11.95.36,17.92.06,2.79.17,5.58.15,8.37-.01,2.2-.15,4.46-.87,6.56-.81,2.36-2.48,4.32-4.96,5s-5.39.07-7.7-1.11-4.26-2.94-5.15-5.29c-.82-2.16-.34-5.13.65-7.18,1.15-2.37,4.11-3.48,6.55-3.97,2.66-.53,5.58-.36,7.88,1.19.27.18.52-.25.25-.43h0Z"/>
      </g>
      <g>
        <path class="cls-1" d="m64.82,132.56c-1.39-.99-3.79-.63-5.16.38-.73.54-.88,1.5-1.01,2.4-.21,1.46.99,2.78,2.33,3.41,1.18.56,2.67.74,3.76.01,1.45-.98,1.57-3.03,1.53-4.78-.06-3.24-.13-6.47-.19-9.71,2.95-1.03,5.87-2.13,8.76-3.3.05,2.44.1,4.88.16,7.32-1.61-1.15-4.12-.74-5.27.87s-.68,4.14.97,5.23c1.65,1.08,4.18.48,5.14-1.25.59-1.06.6-2.32.6-3.53,0-5.04,0-10.08-.01-15.12-2.18.03-4.11,1.29-6.09,2.21-1.4.65-2.87,1.15-4.38,1.48-.5.11-1.04.22-1.37.61-.38.44-.5.16-.45.74.36,4.05.87,7.73.7,13.05"/>
        <path class="cls-2" d="m64.03,131.71c-1.27-.8-2.87-.76-4.24-.24s-2.02,1.37-2.25,2.82c-.45,2.91,3.01,5.31,5.71,4.38,1.29-.44,1.95-1.64,2.19-2.91.39-2.04.11-4.25.07-6.31-.02-1.13-.05-2.27-.07-3.4,0-.47-.23-1.52-.04-1.94.27-.6,1-.66,1.57-.87,2.35-.85,4.68-1.74,7-2.67l-.32-.24c.05,2.44.1,4.88.16,7.32l.38-.22c-2.18-1.4-5.46-.51-6.15,2.14-.65,2.48,1.17,5.06,3.79,4.96,1.21-.05,2.43-.64,3.13-1.65.96-1.4.8-3.26.8-4.87,0-4.73,0-9.45-.01-14.18,0-.13-.11-.26-.25-.25-2.44.12-4.43,1.46-6.6,2.42-1.38.61-2.79.96-4.24,1.35-.53.14-1.34.47-1.62.99-.32.59.02,1.67.09,2.3.11,1.12.22,2.24.31,3.37.22,2.64.3,5.27.22,7.91,0,.32.49.32.5,0,.07-2.27.02-4.55-.14-6.82-.14-1.95-.5-3.93-.53-5.88-.02-1.13,1.07-1.33,2.01-1.56,1.09-.26,2.16-.61,3.2-1.04,2.24-.93,4.29-2.42,6.79-2.54l-.25-.25c0,3.07,0,6.14,0,9.22,0,1.5,0,2.99,0,4.49s.24,3.44-.56,4.82c-1.53,2.62-5.51,1.97-6.19-.95-.73-3.17,2.87-5.21,5.43-3.56.16.1.38-.03.38-.22-.05-2.44-.1-4.88-.16-7.32,0-.15-.16-.3-.32-.24-2.9,1.17-5.82,2.27-8.76,3.3-.1.04-.19.13-.18.24.05,2.59.1,5.18.15,7.77.04,2.05.58,5.52-1.65,6.65-2.43,1.23-5.81-1.12-5.35-3.79.23-1.36,1.05-2.09,2.34-2.46,1.14-.32,2.36-.29,3.38.34.27.17.52-.26.25-.43h0Z"/>
      </g>
    </g>
  </g>
</svg>