<?xml version="1.0" encoding="UTF-8"?>
<svg id="Camada_2" data-name="Camada 2" xmlns="http://www.w3.org/2000/svg" viewBox="0 0 84.7 122.6">
  <defs>
    <style>
      .cls-1 {
        fill: #bad8d7;
      }

      .cls-2 {
        fill: #88bab8;
      }
    </style>
  </defs>
  <g id="Camada_1-2" data-name="Camada 1">
    <g>
      <g>
        <path class="cls-1" d="m44.54,19.02c-2.01-.38-4.09-.75-6.1-.36-2.67.53-5.26,2.75-4.41,5.9.29,1.09.98,2.03,1.84,2.76,1.26,1.09,2.05,1.68,3.77,1.79,1.52.1,2.67.35,4.89-1.04,1.11-.69,2.03-4.21,2.24-5.41.58-3.2.28-9.59-.1-15.18-.01-.19.23-.29.35-.14,1.41,1.62,2.69,3.37,3.79,5.22.93,1.54,1.76,3.42,1.08,5.09-.32.8-.97,1.46-1.19,2.3s.35,1.98,1.2,1.81c.43-.09.73-.47.97-.84,1.79-2.77,1.99-5.99.19-8.69-1.06-1.59-1.95-3.04-3.17-4.5-1.51-1.82-3.81-4.99-5.34-6.74-.11-.13-.33-.06-.35.11-.13,1.37-.13,2.99-.1,4.25.12,4.65.3,9.03.43,13.68"/>
        <path class="cls-2" d="m43.82,18.11c-3.1-.58-6.68-1.13-9.29,1.1-2.1,1.8-2.15,4.74-.41,6.82s4.24,3.06,6.95,2.7c1.12-.15,2.53-.66,3.27-1.55s1.07-2.07,1.38-3.1c.78-2.6.86-5.27.83-7.96-.02-1.93-.1-3.87-.2-5.8-.03-.52-.06-1.03-.09-1.55-.02-.34-.19-.99-.08-1.31.2-.57.49.09.77.45.42.52.83,1.06,1.22,1.6,1.2,1.67,2.81,3.75,2.93,5.88.1,1.73-1.64,2.85-1.46,4.5.08.76.69,1.6,1.55,1.43,1.22-.24,1.89-2.24,2.21-3.26,1.24-3.92-1.01-7.11-3.27-10.13-1.16-1.55-2.4-3.03-3.58-4.56-.51-.67-1.03-1.33-1.55-1.99-.37-.47-.77-1.21-1.36-1.37-.08-.02-.19,0-.24.06-.59.73-.32,2.28-.33,3.16,0,1.63.07,3.25.12,4.88.11,3.41.23,6.82.33,10.23,0,.32.51.32.5,0-.11-4.23-.28-8.46-.4-12.69-.02-.88-.05-1.76-.04-2.64,0-.44.01-.88.03-1.32.02-.41-.1-.98.3-.87s1.18,1.45,1.43,1.77c.58.75,1.16,1.5,1.74,2.25.99,1.29,2.06,2.52,3.01,3.84,1.04,1.45,2.31,3.03,2.87,4.75.65,1.98.33,4.12-.63,5.94-.14.27-.51,1.11-.8,1.21l-.66-.25c-.55.02-.77-.19-.67-.63-.06-.37.08-.67.24-.99.35-.7.87-1.3,1.07-2.06.8-3-2.06-6.38-3.75-8.56-.28-.37-1.32-2.3-1.99-1.59-.28.3-.06,1.04-.04,1.39.07,1.03.13,2.06.18,3.09.17,3.29.36,6.65,0,9.93-.13,1.18-.41,2.34-.78,3.47-.55,1.69-1.17,2.87-2.92,3.54-3.29,1.25-7.97-.65-8.75-4.29-.47-2.18.84-4.02,2.77-4.92,2.34-1.09,5.04-.58,7.47-.13.31.06.45-.42.13-.48h0Z"/>
      </g>
      <g>
        <path class="cls-1" d="m7.33,85.18c-1.39-.99-3.79-.63-5.16.38-.73.54-.88,1.5-1.01,2.4-.21,1.46.99,2.78,2.33,3.41,1.18.56,2.67.74,3.76.01,1.45-.98,1.57-3.03,1.53-4.78-.06-3.24-.13-6.47-.19-9.71,2.95-1.03,5.87-2.13,8.76-3.3.05,2.44.1,4.88.16,7.32-1.61-1.15-4.12-.74-5.27.87-1.14,1.61-.68,4.14.97,5.23,1.65,1.08,4.18.48,5.14-1.25.59-1.06.6-2.32.6-3.53,0-5.04,0-10.08-.01-15.12-2.18.03-4.11,1.29-6.09,2.21-1.4.65-2.87,1.15-4.38,1.48-.5.11-1.04.22-1.37.61-.38.44-.5.16-.45.74.36,4.05.87,7.73.7,13.05"/>
        <path class="cls-2" d="m6.53,84.33c-1.27-.8-2.87-.76-4.24-.24s-2.02,1.37-2.25,2.82c-.45,2.91,3.01,5.31,5.71,4.38,1.29-.44,1.95-1.64,2.19-2.91.39-2.04.11-4.25.07-6.31-.02-1.13-.05-2.27-.07-3.4,0-.47-.23-1.52-.04-1.94.27-.6,1-.66,1.57-.87,2.35-.85,4.68-1.74,7-2.67l-.32-.24c.05,2.44.1,4.88.16,7.32l.38-.22c-2.18-1.4-5.46-.51-6.15,2.14-.65,2.48,1.17,5.06,3.79,4.96,1.21-.05,2.43-.64,3.13-1.65.96-1.4.8-3.26.8-4.87,0-4.73,0-9.45-.01-14.18,0-.13-.11-.26-.25-.25-2.44.12-4.43,1.46-6.6,2.42-1.38.61-2.79.96-4.24,1.35-.53.14-1.34.47-1.62.99-.32.59.02,1.67.09,2.3.11,1.12.22,2.24.31,3.37.22,2.64.3,5.27.22,7.91,0,.32.49.32.5,0,.07-2.27.02-4.55-.14-6.82-.14-1.95-.5-3.93-.53-5.88-.02-1.13,1.07-1.33,2.01-1.56,1.09-.26,2.16-.61,3.2-1.04,2.24-.93,4.29-2.42,6.79-2.54l-.25-.25c0,3.07,0,6.14,0,9.22,0,1.5,0,2.99,0,4.49s.24,3.44-.56,4.82c-1.53,2.62-5.51,1.97-6.19-.95-.73-3.17,2.87-5.21,5.43-3.56.16.1.38-.03.38-.22-.05-2.44-.1-4.88-.16-7.32,0-.15-.16-.3-.32-.24-2.9,1.17-5.82,2.27-8.76,3.3-.1.04-.19.13-.18.24.05,2.59.1,5.18.15,7.77.04,2.05.58,5.52-1.65,6.65-2.43,1.23-5.81-1.12-5.35-3.79.23-1.36,1.05-2.09,2.34-2.46,1.14-.32,2.36-.29,3.38.34.27.17.52-.26.25-.43h0Z"/>
      </g>
      <path class="cls-1" d="m59.05,107.85c-3.07-2.18-8.37-1.39-11.41.83-1.62,1.18-1.95,3.31-2.23,5.3-.46,3.22,2.2,6.13,5.14,7.53,2.62,1.24,5.9,1.64,8.3.03,3.21-2.16,3.46-6.7,3.38-10.57-.14-7.15-.28-14.31-.43-21.46,6.51-2.27,12.97-4.71,19.37-7.29.11,5.39.23,10.78.34,16.17-3.56-2.53-9.12-1.63-11.65,1.93-2.53,3.57-1.51,9.15,2.15,11.55,3.66,2.39,9.23,1.05,11.35-2.77,1.29-2.33,1.32-5.13,1.32-7.8-.01-11.14-.02-22.28-.03-33.42-4.81.06-9.09,2.85-13.45,4.89-3.09,1.45-6.35,2.54-9.69,3.27-1.1.24-2.3.49-3.03,1.34-.83.97-1.1.36-.99,1.64.79,8.95,1.92,17.09,1.54,28.84"/>
      <path class="cls-2" d="m57.13,106.22c-2.1-1.4-4.74-1.56-7.16-1.07-2.2.44-4.8,1.44-5.88,3.55s-1.43,4.93-.48,7.04c1.04,2.31,3.25,4.01,5.56,4.92,2.46.97,5.47,1.22,7.77-.32,2.01-1.35,2.91-3.68,3.27-5.99.47-3.05.21-6.22.15-9.29-.08-3.83-.15-7.65-.23-11.48-.02-1.16-.05-2.33-.07-3.49,0-.34-.17-1.19-.03-1.5.24-.52.66-.56,1.17-.74,1.97-.69,3.93-1.4,5.88-2.13,4.06-1.5,8.1-3.07,12.12-4.69l-.32-.24c.11,5.39.23,10.78.34,16.17l.38-.22c-3.64-2.47-9.07-1.77-11.79,1.76s-1.98,8.75,1.23,11.54,8.55,2.28,11.44-.8c1.84-1.95,2.3-4.67,2.4-7.26.14-3.53.02-7.07.02-10.6,0-8.31-.02-16.63-.02-24.94,0-.13-.11-.25-.25-.25-4.01.12-7.57,1.93-11.08,3.7-2.13,1.07-4.28,2.08-6.53,2.88-2.08.74-4.2,1.22-6.34,1.76-.76.19-1.51.44-2.11.96-.35.29-.99.69-1.22,1.07-.19.32-.16.65-.13,1.02.06,1,.18,2,.28,3,.36,3.72.74,7.43.99,11.15.33,4.89.43,9.79.28,14.69,0,.32.49.32.5,0,.27-8.79-.47-17.48-1.3-26.22-.09-.9-.3-1.89-.25-2.79.04-.75,1.12-1.58,1.74-1.93.95-.54,2.19-.65,3.24-.9,1.28-.31,2.55-.68,3.8-1.1,4.42-1.49,8.34-4.02,12.69-5.65.98-.37,1.99-.68,3.02-.88.34-.07,1.72-.47,2.01-.25.38.3.18,1.57.18,1.98,0,2.66,0,5.32,0,7.98,0,5.32.01,10.64.02,15.96,0,2.55.01,5.1,0,7.66s-.07,5.05-1.29,7.25c-1.9,3.43-6.68,4.8-10.18,3.15-3.99-1.88-5.42-7.4-3.24-11.14,2.31-3.96,7.97-4.87,11.65-2.38.16.11.38-.03.38-.22-.11-5.39-.23-10.78-.34-16.17,0-.15-.16-.3-.32-.24-6.4,2.58-12.85,5.01-19.37,7.29-.1.04-.19.13-.18.24.1,5.16.21,10.31.31,15.47.08,4.09.71,8.7-.56,12.67-.67,2.09-2.1,3.84-4.28,4.46s-4.81.04-6.84-1.05c-1.88-1.01-3.64-2.64-4.32-4.71-.58-1.79-.15-4.3.7-5.97,1-1.98,3.53-2.91,5.58-3.32,2.29-.46,4.79-.3,6.77,1.02.27.18.52-.25.25-.43h0Z"/>
    </g>
  </g>
</svg>