<?xml version="1.0" encoding="UTF-8"?>
<svg id="Camada_2" data-name="Camada 2" xmlns="http://www.w3.org/2000/svg" viewBox="0 0 236.35 281.93">
  <defs>
    <style>
      .cls-1 {
        fill: #fff;
      }

      .cls-2 {
        fill: #e8eaea;
      }

      .cls-3 {
        fill: #f0dbbe;
      }

      .cls-4 {
        fill: #8e6a51;
      }

      .cls-5 {
        fill: #af8162;
      }

      .cls-6 {
        fill: #e2c39d;
      }

      .cls-7 {
        fill: #acb5b5;
      }

      .cls-8 {
        fill: #117b82;
      }

      .cls-9 {
        fill: #13898c;
      }

      .cls-10 {
        fill: #0a5b5b;
      }

      .cls-11 {
        fill: #0d696b;
      }

      .cls-12 {
        fill: #0c6664;
      }

      .cls-13 {
        fill: #273666;
      }
    </style>
  </defs>
  <g id="Camada_1-2" data-name="Camada 1">
    <g>
      <ellipse class="cls-2" cx="118.17" cy="270.21" rx="118.17" ry="11.72"/>
      <g>
        <path class="cls-13" d="m84.72,7.9s-6.9-9.98-25.83-6.65c-18.94,3.32-19.49,32.55-34.46,42.05C9.46,52.8,1.15,60.57.04,75.81c-1.11,15.24,21.63,38.55,41.86,30.78,20.23-7.78,24.11-25.52,22.03-35.63-2.08-10.12-14.2-65.19,16.14-59.76l4.66-3.29h0Z"/>
        <path class="cls-13" d="m116.23,22.34s-4.35-10.55-19.2-16.37c-14.85-5.82-23.25,1.99-27.23,5.82-4.8,4.62-9.46,42.31,10.26,43.78,19.72,1.47,36.17-33.23,36.17-33.23h0Z"/>
        <path class="cls-5" d="m120.43,91.61s43.79,36.95,43.24,38.99c-.55,2.03-4.8,10.07-14.23,5.91-9.43-4.15-36.47-22.56-35.8-23.46.66-.9,6.79-21.43,6.79-21.43h0Z"/>
        <path class="cls-5" d="m113.8,109.33c-4.53,3.15-10.21,5.74-17.34,7.38-26.73,6.18-36.97-16.42-40.82-31.92,3.65-2.09,7.07-2.55,9.06-2.78,1.93-.23,3.96-.38,5.65-.47,3-2.3,7.47-11.7,8.46-26.32l1.26.34,21.07,5.77s-.96,6.7-1.44,13.03c-.37,4.95-.42,9.69.52,10.84,1.64.36,2.63.59,2.63.59v.02c.29.46,6.4,10.51,10.97,23.52h0Z"/>
        <path class="cls-4" d="m101.13,61.33s-.97,6.69-1.44,13.03c-11.94-1.2-17.47-12.56-19.63-18.79l21.07,5.77h0Z"/>
        <path class="cls-5" d="m104.69,67.62s-28.33-1.56-27.08-19.19c1.24-17.63-1.57-29.7,16.57-29.44,18.14.25,21.18,7.23,22.19,13.21,1.02,5.98-4.27,35.38-11.67,35.42h0Z"/>
        <path class="cls-13" d="m116.55,15.08c-4.2-5.97-7.76-4.98-9.82-3.43-15.61-10.21-27.02,2.39-27.02,2.39-2.94,13.3-13.07,20.3-13.07,20.3,0,0,5.28,4.27,17.9,1.44,16.15-3.63,21.7-17.79,22.45-19.97,1.7,1.78,3.89,2.91,5.57,6.77,2,4.59,3.25,7.25,3.29,14.78,0,0,7-13.33.7-22.28h0Z"/>
        <path class="cls-3" d="m116.96,117.76c1.52,13.65-1.67,9.88-15.83,41.4-11.97,26.65,1.61,50.64,1.61,50.64,0,0-38.11,31.55-60.17,39.85-3.21,1.21-6.08,1.92-8.44,1.98-2.21.05-3.97-.47-5.16-1.7-.5-.52-.99-1.15-1.47-1.89-12.39-19.14-16.45-109.36,7.92-153.3,3.35-6.05,11.13-10.61,14.84-12.23h0c2.07-.91,4.43-1.68,6.97-2.28,3.64-.87,7.63-1.4,11.62-1.52h0c1.27-.04,2.53-.03,3.79.02,4.01,2.59,19.31,12.38,25.59,11.16.07-.01.19-.04.35-.08,2.96-.74,4.07-2.82,1.61-4.61,0,0,7.93-1.38,16.16,2.43,9,4.17,18.2,14.64,18.2,14.64,0,0-8.63,11.69-17.6,15.48h0Z"/>
        <path class="cls-6" d="m42.57,249.66c-1.49,3.28-2.37,5.21-2.37,5.21,0,0-2.29-1.21-6.07-3.24-1.87-1-4.11-2.22-6.62-3.59-12.39-19.14-16.45-109.36,7.92-153.3,3.35-6.05,11.13-10.61,14.84-12.23h0c2.07-.91,4.43-1.68,6.97-2.28,3.64-.87,7.63-1.4,11.62-1.52-.39.15-12.98,4.85-16.43,10.86-3.51,6.1-3.74,32.8-4.57,40.19-.83,7.39,2.73,10.21,5.68,20.21,2.95,10,17.37,10.74,19.96,18.68,2.18,6.7-22.98,63.38-30.93,81h0Z"/>
        <path class="cls-6" d="m121.91,117.76s-5.54-8.57-6.84-10.81c-1.29-2.23-1.11-1.32-1.28,2.38-.17,3.71-2.56,8.33-.18,12.58,2.38,4.25,8.29-4.15,8.29-4.15h0Z"/>
        <path class="cls-11" d="m106.24,271.39c3.83-.43,7.28-2.53,9.42-5.74.34-.51.7-1.05,1.09-1.64,8.02-12.14,11.14-49.31,29.17-88.91,4.39-9.64,20.16-11.37,24.46-22.27,0,0,10.58-35.32-20.26-36.37-30.84-1.04-82.59,98.29-83.41,108.71-.79,10.09-20.39,52.98,39.52,46.22h0Z"/>
        <path class="cls-10" d="m184.91,270.58s-1.64-7,1.24-11.77c2.55-4.21,1.57-6.61-.32-10.1,1.99.81,4.56,1.56,7.39,1.39,2.19-.12,4.5-1.12,6.53-2.3,1.89,2.15,9.98,11.32,12.51,13.14"/>
        <path class="cls-10" d="m187.66,254.87c-2.77-.73-7.39-5.14-9.52-7.06-14.78-13.32-44.78-51.04-44.78-81.29,0-14.74-.26-42.9,10.46-50.06,3.69-2.46,11.51-1.44,17.89,1.3,5.06,2.18,9.21,5.45,9.68,8.92,2.07,15.59,8.9,57.58,20.58,89.65,3.17,8.71,6.7,16.69,10.59,23.22,5.87,9.84-14.79,15.35-14.9,15.32h0Z"/>
        <path class="cls-8" d="m80.06,270.58s1.63-2.26,4.46-6.56c3.38-5.11,7.11-15.17,11.64-28.07,4.76-13.54,10.41-30.2,17.47-47.53,2.18-5.35,4.49-10.76,6.95-16.17,4.39-9.64,16.48-8.31,20.78-19.21,0,0,16.78-37.78-14.06-38.83-30.84-1.04-92.03,92.22-95.4,102.12-3.69,10.82-19.08,64.63,48.16,54.26h0Z"/>
        <path class="cls-11" d="m196.59,270.58h-43.89s-1.64-7,1.24-11.77c2.55-4.21,1.57-6.61-.32-10.1,1.99.81,4.56,1.56,7.39,1.39,2.19-.12,4.5-1.12,6.53-2.3,1.89,2.15,9.98,11.32,12.51,13.14,2.87,2.06,15.66,1.33,16.54,9.64"/>
        <path class="cls-9" d="m165.18,250.87c-4.43,2.62-9.64,4-9.74,4-2.77-.73-7.38-5.14-9.51-7.06-14.78-13.32-44.79-51.04-44.79-81.29,0-14.74,17.31-41.72,28.03-48.88,1.7-1.13,3.54-1.7,5.37-1.78,5.31-.24,10.45,3.56,11.23,9.41,2.64,19.81,6.37,83.76,24.57,114.27,2.93,4.91-.75,8.74-5.16,11.33h0Z"/>
        <path class="cls-1" d="m110,57.48s-2.68-1.05-10.21-.45c0,0,.4,2.94,5.96,3.23,3.15.16,4.26-2.78,4.26-2.78h0Z"/>
        <path class="cls-8" d="m165.18,250.87c-4.43,2.62-9.64,4-9.74,4-2.77-.73-7.38-5.14-9.51-7.06-14.78-13.32-44.79-51.04-44.79-81.29,0-14.74,17.31-41.72,28.03-48.88,1.7-1.13,3.54-1.7,5.37-1.78-.48.28-5.93,3.67-5.22,16.39.74,13.3,18.68,101,28.45,108.28,4.05,3.01,6.46,6.77,7.42,10.34h0Z"/>
        <path class="cls-5" d="m138.65,168.65s8.64-.21,11.66-3.43c3.01-3.22,2.34-15.09,0-17.45-2.34-2.36-5.67,7.39-8.26,8.87-2.59,1.48,3.19-6.83,1.11-6.7-2.08.14-5.27,3.74-5.82,5.68-.55,1.94-1.08,4.2-1.08,4.2l2.39,8.83h0Z"/>
        <path class="cls-5" d="m60.59,89.5s23.5,54.48,31.6,59.2c5.24,3.04,44.07,11.12,44.07,11.12l2.39,8.83s-45.95,6.13-57.15-1.34c-22.1-14.75-37.11-55.28-39.6-60.73-2.49-5.45,4.6-22.39,18.69-17.09h0Z"/>
        <path class="cls-3" d="m77.57,117.76s-5.16,4.54-12.66,7.52c-1.47.58-3.03,1.11-4.65,1.52-1.29.34-2.62.6-3.99.78-2.89.37-5.93.34-9.02-.31,0,0-17.69-33.26,2.95-40.96,0,0,.48-.11,1.31-.17.68-.05,1.6-.06,2.69.05.32.04.66.08,1.01.14,6.45,1.07,17.41,6.69,22.34,31.43h0Z"/>
        <path class="cls-6" d="m63.67,125.75c-8.03,3.34-13.33,2.16-16.42,1.52,0,0-17.69-33.26,2.95-40.96,0,0,.48-.11,1.31-.17.68-.05,1.6-.06,2.69.05.32.04,5.28-3.2,5.64-3.14-1.16,1.02-6.51,5.3-7.86,9.2-6.35,18.39,12.96,32.97,11.68,33.5h0Z"/>
        <path class="cls-12" d="m191.96,216.33c-14.85-10.53-41.13-85.64-39.65-93.22,1.49-7.58,9.38-5.35,9.38-5.35h0c5.06,2.17,9.21,5.44,9.68,8.92,2.07,15.59,8.9,57.58,20.58,89.65h0Z"/>
        <path class="cls-5" d="m174.68,147.61s5.56,2.16,6.47,6.51c.91,4.36-.47,7.26-3.23,9.44-2.76,2.18-7.3,5.45-8.75,2-1.45-3.45-.5-9.44,1.84-11.98,2.34-2.54,3.68-5.97,3.68-5.97h0Z"/>
        <g>
          <path class="cls-7" d="m73.98,39.61c-.39-2.94.08-6.1,1.89-8.45,1.81-2.34,5.14-3.61,7.89-2.5,2.79,1.13,4.22,4.18,5.22,7.01.97,2.75,1.77,5.84.59,8.51-1.5,3.39-5.6,4.74-9.29,5.08-1.52.14-3.22.11-4.33-.94-.7-.67-1.03-1.63-1.29-2.56-.77-2.76-1.15-5.63-1.15-8.5"/>
          <path class="cls-7" d="m81.48,39.61c-.15-1.22-.16-2.42-.02-3.63l-.27,1.99c.14-.98.39-1.92.76-2.84l-.76,1.79c.31-.71.69-1.35,1.15-1.97l-1.17,1.52c.38-.47.79-.88,1.25-1.27l-1.52,1.17c.56-.43,1.14-.78,1.79-1.07l-1.79.76c.65-.26,1.29-.44,1.99-.53l-1.99.27c.49-.04.96-.04,1.45,0l-1.99-.27c.49.07.95.19,1.41.36l-1.79-.76c.53.23,1.01.51,1.47.86l-1.52-1.17c.52.42.97.89,1.39,1.42l-1.17-1.52c.71.95,1.25,1.99,1.73,3.08l-.76-1.79c.77,1.85,1.42,3.78,1.72,5.77l-.27-1.99c.1.81.12,1.6.04,2.41l.27-1.99c-.1.69-.27,1.34-.53,1.98l.76-1.79c-.24.51-.52.97-.87,1.42l1.17-1.52c-.36.43-.74.8-1.17,1.16l1.52-1.17c-.68.52-1.4.93-2.18,1.28l1.79-.76c-1.35.57-2.76.91-4.22,1.12l1.99-.27c-1.01.13-2.01.2-3.02.09l1.99.27c-.4-.07-.78-.16-1.16-.3l1.79.76c-.28-.13-.52-.26-.77-.44l1.52,1.17c-.25-.21-.44-.42-.65-.68l1.17,1.52c-.18-.28-.32-.55-.46-.85l.76,1.79c-.68-1.72-1.02-3.62-1.27-5.44l.27,1.99c-.18-1.43-.28-2.85-.28-4.29-.02-3.92-3.44-7.68-7.5-7.5s-7.52,3.3-7.5,7.5c.01,3.39.45,6.84,1.31,10.12,1.14,4.32,4.01,8.22,8.64,9.1,3.21.61,6.6.31,9.74-.6,2.97-.86,6.04-2.4,8.12-4.74,2.58-2.91,4.08-6.7,3.8-10.64-.26-3.65-1.36-6.92-2.81-10.25-1.3-2.97-3.28-5.4-5.92-7.28-3.1-2.21-7.24-2.63-10.87-1.74-8.02,1.98-12.52,10.55-11.56,18.39.25,2.06.67,3.78,2.2,5.3,1.3,1.3,3.44,2.28,5.3,2.2s3.95-.72,5.3-2.2c1.25-1.36,2.43-3.38,2.2-5.3h0Z"/>
        </g>
        <path class="cls-7" d="m85.53,30.18c1.53-3.37,3.3-6.63,5.33-9.73.49-.74.99-1.48,1.5-2.2.26-.36.52-.72.78-1.08.12-.16,1.03-1.39.17-.25,1-1.35,2.14-2.64,3.37-3.77.13-.12,1.18-1.03.48-.45s.38-.25.54-.35c.33-.21.69-.37,1.02-.58.39-.19.23-.13-.48.18.24-.09.49-.18.74-.25.21-.06,1.16-.11,1.31-.29-.1.11-1.86.16-.82.12.21,0,.41-.03.62-.03.45-.01.93.1,1.37.06-1.59.14-1.18-.22-.57-.04.16.05.55.24.72.21-.98-.44-1.21-.53-.68-.28l.22.12c.87.4-.96-.96-.33-.29.9.96-.35-.6-.11-.21.7,1.11-.37-1.18,0-.12.99,2.83,3.98,5.02,7.07,4.02,2.8-.91,5.08-4.03,4.02-7.07-1.66-4.75-5.41-7.39-10.35-7.85-3.42-.32-7.06.67-9.89,2.58-3.96,2.66-6.84,6.48-9.54,10.36-2.5,3.59-4.65,7.41-6.45,11.39-1.24,2.73-.87,6.31,2.06,7.87,2.52,1.33,6.54.86,7.87-2.06h0Z"/>
        <path class="cls-13" d="m111.98,10.95s-4.02-.33-3.63,1.88c0,0-4.94-2.58-9.32-1.11-3.36,1.13,4.76,4.8,4.76,4.8l7.45-2.8.73-2.77Z"/>
      </g>
    </g>
  </g>
</svg>